{"glyphs":{"0":{"ha":694,"x_min":35,"x_max":660,"o":"m 347 -21 q 114 119 193 -21 q 35 481 35 260 q 114 828 35 693 q 347 964 193 964 q 581 828 503 964 q 660 481 660 693 q 581 119 660 260 q 347 -21 501 -21 m 347 43 q 525 167 468 43 q 582 481 582 290 q 525 781 582 663 q 347 900 468 900 q 169 781 226 900 q 113 481 113 663 q 169 167 113 290 q 347 43 226 43 z "},"1":{"ha":694,"x_min":129,"x_max":621,"o":"m 621 64 l 621 0 l 150 0 l 150 64 l 347 64 l 347 843 l 174 679 l 129 726 l 361 944 l 424 944 l 424 64 l 621 64 z "},"2":{"ha":694,"x_min":33,"x_max":639,"o":"m 47 49 l 292 286 q 474 508 422 413 q 525 693 525 604 q 472 843 525 789 q 331 897 419 897 q 202 866 257 897 q 79 756 147 835 l 33 794 q 169 921 97 881 q 331 961 240 961 q 530 890 457 961 q 603 692 603 818 q 543 486 603 592 q 332 233 483 381 l 161 67 l 161 64 l 639 64 l 639 0 l 47 0 l 47 49 z "},"3":{"ha":696,"x_min":25,"x_max":643,"o":"m 408 504 q 526 469 472 500 q 611 385 579 439 q 643 264 643 332 q 604 116 643 183 q 492 9 565 49 q 325 -31 419 -31 q 153 -2 224 -31 q 25 101 83 26 l 67 147 q 184 57 128 81 q 325 33 240 33 q 497 97 429 33 q 565 263 565 161 q 506 403 565 350 q 340 456 446 456 q 203 433 275 456 l 188 493 q 370 550 303 522 q 476 625 438 578 q 514 749 514 672 q 471 853 514 813 q 354 893 428 893 q 100 751 221 893 l 54 790 q 193 915 114 872 q 354 957 272 957 q 526 900 461 957 q 592 747 592 843 q 408 504 592 583 z "},"4":{"ha":693,"x_min":24,"x_max":683,"o":"m 683 274 l 528 274 l 528 0 l 451 0 l 451 274 l 24 274 l 24 324 l 465 944 l 528 944 l 528 338 l 683 338 l 683 274 m 451 338 l 451 811 l 256 536 l 115 338 l 451 338 z "},"5":{"ha":696,"x_min":39,"x_max":657,"o":"m 354 554 q 517 519 449 554 q 621 420 585 483 q 657 276 657 357 q 617 120 657 190 q 504 10 578 50 q 332 -31 431 -31 q 165 -2 235 -31 q 39 101 96 26 l 81 147 q 197 58 142 82 q 332 33 253 33 q 511 99 443 33 q 579 276 579 165 q 519 433 579 375 q 354 490 460 490 q 136 442 246 490 l 103 461 l 140 944 l 632 944 l 632 879 l 208 879 l 185 522 q 265 545 219 536 q 354 554 311 554 z "},"6":{"ha":694,"x_min":46,"x_max":649,"o":"m 371 554 q 519 516 456 554 q 615 415 582 478 q 649 285 649 353 q 613 133 649 203 q 508 21 576 63 q 347 -21 440 -21 q 190 22 258 -21 q 84 148 122 65 q 46 349 46 231 q 185 734 46 575 q 572 964 325 893 l 599 904 q 278 730 397 844 q 131 444 158 615 q 237 525 174 496 q 371 554 300 554 m 347 43 q 513 112 456 43 q 571 285 571 181 q 517 431 571 372 q 371 490 464 490 q 124 343 214 490 q 185 120 125 197 q 347 43 246 43 z "},"7":{"ha":694,"x_min":31,"x_max":664,"o":"m 574 878 l 574 881 l 31 881 l 31 944 l 664 944 l 664 896 l 135 0 l 49 0 l 574 878 z "},"8":{"ha":694,"x_min":49,"x_max":646,"o":"m 431 490 q 594 384 542 447 q 646 228 646 321 q 570 49 646 119 q 347 -21 494 -21 q 181 13 249 -21 q 81 105 114 47 q 49 231 49 163 q 253 490 49 407 q 116 592 156 535 q 76 729 76 649 q 147 897 76 831 q 347 964 217 964 q 496 933 435 964 q 588 849 557 901 q 618 736 618 797 q 576 591 618 647 q 431 490 533 535 m 154 729 q 204 599 154 647 q 351 518 254 550 q 497 605 454 551 q 540 736 540 658 q 492 852 540 804 q 347 900 443 900 q 203 851 251 900 q 154 729 154 801 m 347 43 q 514 96 460 43 q 568 228 568 149 q 513 369 568 319 q 340 457 457 418 l 328 461 q 180 371 233 431 q 126 231 126 311 q 181 98 126 153 q 347 43 235 43 z "},"9":{"ha":694,"x_min":46,"x_max":649,"o":"m 347 964 q 504 921 436 964 q 610 795 572 878 q 649 594 649 713 q 509 209 649 368 q 122 -21 369 50 l 96 39 q 417 213 297 99 q 564 499 536 328 q 458 418 521 447 q 324 389 394 389 q 176 427 239 389 q 79 528 113 465 q 46 658 46 590 q 82 810 46 740 q 186 922 118 881 q 347 964 254 964 m 324 453 q 571 600 481 453 q 509 823 569 746 q 347 900 449 900 q 181 831 239 900 q 124 658 124 763 q 177 512 124 571 q 324 453 231 453 z "},"\r":{"ha":0,"x_min":0,"x_max":0,"o":""}," ":{"ha":347,"x_min":0,"x_max":0,"o":""},"A":{"ha":874,"x_min":35,"x_max":839,"o":"m 635 325 l 236 325 l 111 0 l 35 0 l 403 957 l 469 957 l 839 0 l 760 0 l 635 325 m 610 389 l 435 846 l 260 389 l 610 389 z "},"Á":{"ha":874,"x_min":35,"x_max":839,"o":"m 35 0 m 635 325 l 236 325 l 111 0 l 35 0 l 403 957 l 469 957 l 839 0 l 760 0 l 635 325 m 610 389 l 435 846 l 260 389 l 610 389 m 568 1225 l 644 1225 l 471 1028 l 406 1028 l 568 1225 z "},"Ă":{"ha":874,"x_min":35,"x_max":839,"o":"m 35 0 m 635 325 l 236 325 l 111 0 l 35 0 l 403 957 l 469 957 l 839 0 l 760 0 l 635 325 m 610 389 l 435 846 l 260 389 l 610 389 m 438 1067 q 307 1119 354 1067 q 257 1261 260 1171 l 308 1264 q 346 1152 313 1189 q 438 1115 379 1115 q 529 1152 496 1115 q 567 1264 563 1189 l 618 1261 q 568 1119 615 1171 q 438 1067 521 1067 z "},"Â":{"ha":874,"x_min":35,"x_max":839,"o":"m 35 0 m 635 325 l 236 325 l 111 0 l 35 0 l 403 957 l 469 957 l 839 0 l 760 0 l 635 325 m 610 389 l 435 846 l 260 389 l 610 389 m 575 1028 l 436 1183 l 300 1028 l 233 1028 l 396 1225 l 479 1225 l 642 1028 l 575 1028 z "},"Ä":{"ha":874,"x_min":35,"x_max":839,"o":"m 35 0 m 635 325 l 236 325 l 111 0 l 35 0 l 403 957 l 469 957 l 839 0 l 760 0 l 635 325 m 610 389 l 435 846 l 260 389 l 610 389 m 313 1083 q 274 1099 290 1083 q 258 1136 258 1115 q 274 1175 258 1158 q 313 1192 290 1192 q 352 1176 336 1192 q 368 1136 368 1160 q 351 1099 368 1115 q 313 1083 335 1083 m 563 1083 q 524 1099 540 1083 q 508 1136 508 1115 q 524 1175 508 1158 q 563 1192 540 1192 q 602 1176 586 1192 q 618 1136 618 1160 q 601 1099 618 1115 q 563 1083 585 1083 z "},"À":{"ha":874,"x_min":35,"x_max":839,"o":"m 35 0 m 635 325 l 236 325 l 111 0 l 35 0 l 403 957 l 469 957 l 839 0 l 760 0 l 635 325 m 610 389 l 435 846 l 260 389 l 610 389 m 233 1225 l 310 1225 l 472 1028 l 407 1028 l 233 1225 z "},"Ā":{"ha":874,"x_min":35,"x_max":839,"o":"m 35 0 m 635 325 l 236 325 l 111 0 l 35 0 l 403 957 l 469 957 l 839 0 l 760 0 l 635 325 m 610 389 l 435 846 l 260 389 l 610 389 m 243 1167 l 632 1167 l 632 1108 l 243 1108 l 243 1167 z "},"Ą":{"ha":874,"x_min":35,"x_max":863,"o":"m 863 -261 q 736 -328 810 -328 q 643 -295 678 -328 q 608 -204 608 -262 q 753 19 608 -94 l 635 325 l 236 325 l 111 0 l 35 0 l 403 957 l 469 957 l 839 0 l 807 0 q 706 -107 738 -60 q 674 -200 674 -154 q 692 -251 674 -233 q 740 -269 710 -269 q 826 -226 785 -269 l 863 -261 m 610 389 l 435 846 l 260 389 l 610 389 z "},"Å":{"ha":874,"x_min":35,"x_max":839,"o":"m 35 0 m 635 325 l 236 325 l 111 0 l 35 0 l 403 957 l 469 957 l 839 0 l 760 0 l 635 325 m 610 389 l 435 846 l 260 389 l 610 389 m 438 1028 q 351 1059 382 1028 q 319 1133 319 1090 q 351 1208 319 1176 q 438 1239 382 1239 q 524 1208 493 1239 q 556 1133 556 1176 q 524 1059 556 1090 q 438 1028 493 1028 m 438 1076 q 483 1092 467 1076 q 500 1133 500 1108 q 483 1174 500 1158 q 438 1190 467 1190 q 392 1174 408 1190 q 375 1133 375 1158 q 392 1092 375 1108 q 438 1076 408 1076 z "},"Ã":{"ha":874,"x_min":35,"x_max":839,"o":"m 35 0 m 635 325 l 236 325 l 111 0 l 35 0 l 403 957 l 469 957 l 839 0 l 760 0 l 635 325 m 610 389 l 435 846 l 260 389 l 610 389 m 222 1050 q 260 1181 229 1135 q 347 1226 292 1226 q 408 1208 385 1226 q 456 1154 431 1189 q 492 1113 476 1126 q 528 1100 507 1100 q 575 1128 560 1100 q 599 1226 590 1157 l 653 1221 q 615 1090 646 1136 q 528 1044 583 1044 q 466 1063 489 1044 q 414 1119 443 1082 q 381 1158 394 1146 q 347 1171 367 1171 q 300 1142 315 1171 q 276 1044 285 1114 l 222 1050 z "},"Æ":{"ha":1360,"x_min":35,"x_max":1276,"o":"m 1276 64 l 1276 0 l 722 0 l 722 426 l 415 426 l 125 0 l 35 0 l 688 944 l 1249 944 l 1249 881 l 800 881 l 800 490 l 1193 490 l 1193 426 l 800 426 l 800 64 l 1276 64 m 722 490 l 722 878 l 458 490 l 722 490 z "},"B":{"ha":844,"x_min":167,"x_max":775,"o":"m 581 497 q 725 415 675 476 q 775 263 775 353 q 739 128 775 188 q 631 34 703 68 q 458 0 560 0 l 167 0 l 167 944 l 458 944 q 663 878 592 944 q 733 700 733 811 q 694 574 733 628 q 581 497 654 519 m 244 881 l 244 528 l 458 528 q 604 575 553 528 q 656 701 656 622 q 606 835 656 790 q 458 881 556 881 l 244 881 m 458 64 q 635 118 572 64 q 697 264 697 172 q 636 413 697 363 q 458 464 575 464 l 244 464 l 244 64 l 458 64 z "},"C":{"ha":969,"x_min":83,"x_max":900,"o":"m 538 -22 q 287 46 389 -22 q 134 226 185 114 q 83 474 83 339 q 136 719 83 607 q 296 897 189 831 q 557 964 403 964 q 739 928 654 964 q 881 828 824 893 l 828 781 q 709 867 783 836 q 557 899 635 899 q 342 843 431 899 q 207 691 253 788 q 161 472 161 594 q 205 251 161 349 q 333 97 249 153 q 538 42 418 42 q 853 203 724 42 l 900 157 q 745 28 836 78 q 538 -22 654 -22 z "},"Ć":{"ha":969,"x_min":83,"x_max":900,"o":"m 83 0 m 538 -22 q 287 46 389 -22 q 134 226 185 114 q 83 474 83 339 q 136 719 83 607 q 296 897 189 831 q 557 964 403 964 q 739 928 654 964 q 881 828 824 893 l 828 781 q 709 867 783 836 q 557 899 635 899 q 342 843 431 899 q 207 691 253 788 q 161 472 161 594 q 205 251 161 349 q 333 97 249 153 q 538 42 418 42 q 853 203 724 42 l 900 157 q 745 28 836 78 q 538 -22 654 -22 m 671 1225 l 747 1225 l 574 1028 l 508 1028 l 671 1225 z "},"Č":{"ha":969,"x_min":83,"x_max":900,"o":"m 83 0 m 538 -22 q 287 46 389 -22 q 134 226 185 114 q 83 474 83 339 q 136 719 83 607 q 296 897 189 831 q 557 964 403 964 q 739 928 654 964 q 881 828 824 893 l 828 781 q 709 867 783 836 q 557 899 635 899 q 342 843 431 899 q 207 691 253 788 q 161 472 161 594 q 205 251 161 349 q 333 97 249 153 q 538 42 418 42 q 853 203 724 42 l 900 157 q 745 28 836 78 q 538 -22 654 -22 m 744 1225 l 582 1028 l 499 1028 l 336 1225 l 403 1225 l 542 1069 l 678 1225 l 744 1225 z "},"Ç":{"ha":969,"x_min":83,"x_max":900,"o":"m 900 157 q 758 35 842 83 q 569 -21 675 -14 l 522 -108 q 569 -100 550 -100 q 633 -122 608 -100 q 658 -178 658 -143 q 621 -260 658 -225 q 501 -328 583 -296 l 474 -289 q 568 -234 543 -257 q 593 -186 593 -211 q 551 -151 593 -151 q 496 -167 526 -151 l 453 -129 l 511 -22 q 276 54 372 -15 q 131 233 179 124 q 83 474 83 343 q 136 719 83 607 q 296 897 189 831 q 557 964 403 964 q 739 928 654 964 q 881 828 824 893 l 828 781 q 709 867 783 836 q 557 899 635 899 q 342 843 431 899 q 207 691 253 788 q 161 472 161 594 q 205 251 161 349 q 333 97 249 153 q 538 42 418 42 q 853 203 724 42 l 900 157 z "},"D":{"ha":997,"x_min":167,"x_max":914,"o":"m 472 944 q 713 883 614 944 q 863 715 813 822 q 914 474 914 608 q 863 228 914 335 q 713 60 813 121 q 472 0 614 0 l 167 0 l 167 944 l 472 944 m 472 64 q 741 174 646 64 q 836 472 836 283 q 741 769 836 658 q 472 881 646 881 l 244 881 l 244 64 l 472 64 z "},"Ð":{"ha":997,"x_min":4,"x_max":914,"o":"m 472 944 q 713 883 614 944 q 863 715 813 822 q 914 474 914 608 q 863 228 914 335 q 713 60 813 121 q 472 0 614 0 l 167 0 l 167 443 l 4 443 l 4 501 l 167 501 l 167 944 l 472 944 m 472 64 q 741 174 646 64 q 836 472 836 283 q 741 769 836 658 q 472 881 646 881 l 244 881 l 244 501 l 546 501 l 546 443 l 244 443 l 244 64 l 472 64 z "},"Ď":{"ha":997,"x_min":167,"x_max":914,"o":"m 167 0 m 472 944 q 713 883 614 944 q 863 715 813 822 q 914 474 914 608 q 863 228 914 335 q 713 60 813 121 q 472 0 614 0 l 167 0 l 167 944 l 472 944 m 472 64 q 741 174 646 64 q 836 472 836 283 q 741 769 836 658 q 472 881 646 881 l 244 881 l 244 64 l 472 64 m 694 1225 l 532 1028 l 449 1028 l 286 1225 l 353 1225 l 492 1069 l 628 1225 l 694 1225 z "},"Đ":{"ha":997,"x_min":4,"x_max":914,"o":"m 472 944 q 713 883 614 944 q 863 715 813 822 q 914 474 914 608 q 863 228 914 335 q 713 60 813 121 q 472 0 614 0 l 167 0 l 167 443 l 4 443 l 4 501 l 167 501 l 167 944 l 472 944 m 472 64 q 741 174 646 64 q 836 472 836 283 q 741 769 836 658 q 472 881 646 881 l 244 881 l 244 501 l 546 501 l 546 443 l 244 443 l 244 64 l 472 64 z "},"E":{"ha":804,"x_min":167,"x_max":721,"o":"m 721 64 l 721 0 l 167 0 l 167 944 l 693 944 l 693 881 l 244 881 l 244 532 l 638 532 l 638 468 l 244 468 l 244 64 l 721 64 z "},"É":{"ha":804,"x_min":167,"x_max":721,"o":"m 167 0 m 721 64 l 721 0 l 167 0 l 167 944 l 693 944 l 693 881 l 244 881 l 244 532 l 638 532 l 638 468 l 244 468 l 244 64 l 721 64 m 567 1225 l 643 1225 l 469 1028 l 404 1028 l 567 1225 z "},"Ě":{"ha":804,"x_min":167,"x_max":721,"o":"m 167 0 m 721 64 l 721 0 l 167 0 l 167 944 l 693 944 l 693 881 l 244 881 l 244 532 l 638 532 l 638 468 l 244 468 l 244 64 l 721 64 m 640 1225 l 478 1028 l 394 1028 l 232 1225 l 299 1225 l 438 1069 l 574 1225 l 640 1225 z "},"Ê":{"ha":804,"x_min":167,"x_max":721,"o":"m 167 0 m 721 64 l 721 0 l 167 0 l 167 944 l 693 944 l 693 881 l 244 881 l 244 532 l 638 532 l 638 468 l 244 468 l 244 64 l 721 64 m 574 1028 l 435 1183 l 299 1028 l 232 1028 l 394 1225 l 478 1225 l 640 1028 l 574 1028 z "},"Ë":{"ha":804,"x_min":167,"x_max":721,"o":"m 167 0 m 721 64 l 721 0 l 167 0 l 167 944 l 693 944 l 693 881 l 244 881 l 244 532 l 638 532 l 638 468 l 244 468 l 244 64 l 721 64 m 311 1083 q 273 1099 289 1083 q 257 1136 257 1115 q 273 1175 257 1158 q 311 1192 289 1192 q 351 1176 335 1192 q 367 1136 367 1160 q 350 1099 367 1115 q 311 1083 333 1083 m 561 1083 q 523 1099 539 1083 q 507 1136 507 1115 q 523 1175 507 1158 q 561 1192 539 1192 q 601 1176 585 1192 q 617 1136 617 1160 q 600 1099 617 1115 q 561 1083 583 1083 z "},"Ė":{"ha":804,"x_min":167,"x_max":721,"o":"m 167 0 m 721 64 l 721 0 l 167 0 l 167 944 l 693 944 l 693 881 l 244 881 l 244 532 l 638 532 l 638 468 l 244 468 l 244 64 l 721 64 m 436 1082 q 398 1098 414 1082 q 382 1135 382 1114 q 398 1174 382 1157 q 436 1190 414 1190 q 476 1174 460 1190 q 492 1135 492 1158 q 475 1098 492 1114 q 436 1082 458 1082 z "},"È":{"ha":804,"x_min":167,"x_max":721,"o":"m 167 0 m 721 64 l 721 0 l 167 0 l 167 944 l 693 944 l 693 881 l 244 881 l 244 532 l 638 532 l 638 468 l 244 468 l 244 64 l 721 64 m 232 1225 l 308 1225 l 471 1028 l 406 1028 l 232 1225 z "},"Ē":{"ha":804,"x_min":167,"x_max":721,"o":"m 167 0 m 721 64 l 721 0 l 167 0 l 167 944 l 693 944 l 693 881 l 244 881 l 244 532 l 638 532 l 638 468 l 244 468 l 244 64 l 721 64 m 242 1167 l 631 1167 l 631 1108 l 242 1108 l 242 1167 z "},"Ę":{"ha":804,"x_min":167,"x_max":742,"o":"m 742 -261 q 615 -328 689 -328 q 522 -295 557 -328 q 488 -204 488 -262 q 608 0 488 -104 l 167 0 l 167 944 l 693 944 l 693 881 l 244 881 l 244 532 l 638 532 l 638 468 l 244 468 l 244 64 l 721 64 l 721 0 l 686 0 q 585 -107 617 -60 q 553 -200 553 -154 q 571 -251 553 -233 q 619 -269 589 -269 q 706 -226 664 -269 l 742 -261 z "},"F":{"ha":735,"x_min":167,"x_max":693,"o":"m 244 881 l 244 518 l 638 518 l 638 454 l 244 454 l 244 0 l 167 0 l 167 944 l 693 944 l 693 881 l 244 881 z "},"G":{"ha":992,"x_min":83,"x_max":881,"o":"m 799 432 l 874 432 l 874 56 q 737 -1 824 21 q 538 -22 650 -22 q 287 46 389 -22 q 134 226 185 114 q 83 474 83 339 q 136 719 83 607 q 296 897 189 831 q 557 964 403 964 q 739 928 654 964 q 881 828 824 893 l 828 781 q 709 867 783 836 q 557 899 635 899 q 342 843 431 899 q 207 691 253 788 q 161 472 161 594 q 205 251 161 349 q 333 97 249 153 q 538 42 418 42 q 799 88 707 42 l 799 432 z "},"Ğ":{"ha":992,"x_min":83,"x_max":881,"o":"m 83 0 m 799 432 l 874 432 l 874 56 q 737 -1 824 21 q 538 -22 650 -22 q 287 46 389 -22 q 134 226 185 114 q 83 474 83 339 q 136 719 83 607 q 296 897 189 831 q 557 964 403 964 q 739 928 654 964 q 881 828 824 893 l 828 781 q 709 867 783 836 q 557 899 635 899 q 342 843 431 899 q 207 691 253 788 q 161 472 161 594 q 205 251 161 349 q 333 97 249 153 q 538 42 418 42 q 799 88 707 42 l 799 432 m 539 1067 q 408 1119 456 1067 q 358 1261 361 1171 l 410 1264 q 447 1152 414 1189 q 539 1115 481 1115 q 631 1152 597 1115 q 668 1264 664 1189 l 719 1261 q 669 1119 717 1171 q 539 1067 622 1067 z "},"Ģ":{"ha":992,"x_min":83,"x_max":881,"o":"m 83 0 m 799 432 l 874 432 l 874 56 q 737 -1 824 21 q 538 -22 650 -22 q 287 46 389 -22 q 134 226 185 114 q 83 474 83 339 q 136 719 83 607 q 296 897 189 831 q 557 964 403 964 q 739 928 654 964 q 881 828 824 893 l 828 781 q 709 867 783 836 q 557 899 635 899 q 342 843 431 899 q 207 691 253 788 q 161 472 161 594 q 205 251 161 349 q 333 97 249 153 q 538 42 418 42 q 799 88 707 42 l 799 432 m 471 -287 q 545 -245 525 -265 q 565 -196 565 -225 q 549 -164 565 -176 q 496 -144 533 -151 l 517 -94 q 603 -129 576 -103 q 631 -193 631 -156 q 499 -328 631 -282 l 471 -287 z "},"H":{"ha":1049,"x_min":167,"x_max":882,"o":"m 882 944 l 882 0 l 804 0 l 804 468 l 244 468 l 244 0 l 167 0 l 167 944 l 244 944 l 244 532 l 804 532 l 804 944 l 882 944 z "},"Ħ":{"ha":1049,"x_min":4,"x_max":1047,"o":"m 1047 710 l 882 710 l 882 0 l 804 0 l 804 468 l 244 468 l 244 0 l 167 0 l 167 710 l 4 710 l 4 768 l 167 768 l 167 944 l 244 944 l 244 768 l 804 768 l 804 944 l 882 944 l 882 768 l 1047 768 l 1047 710 m 804 710 l 244 710 l 244 532 l 804 532 l 804 710 z "},"I":{"ha":411,"x_min":167,"x_max":244,"o":"m 167 944 l 244 944 l 244 0 l 167 0 l 167 944 z "},"Ĳ":{"ha":822,"x_min":167,"x_max":656,"o":"m 167 0 m 167 944 l 244 944 l 244 0 l 167 0 l 167 944 m 419 -340 q 353 -329 386 -340 l 368 -265 q 419 -272 393 -272 q 541 -215 504 -272 q 578 -33 578 -157 l 578 944 l 656 944 l 656 -36 q 598 -262 656 -183 q 419 -340 540 -340 z "},"Í":{"ha":411,"x_min":167,"x_max":413,"o":"m 167 0 m 167 944 l 244 944 l 244 0 l 167 0 l 167 944 m 336 1225 l 413 1225 l 239 1028 l 174 1028 l 336 1225 z "},"Î":{"ha":411,"x_min":1,"x_max":410,"o":"m 1 0 m 167 944 l 244 944 l 244 0 l 167 0 l 167 944 m 343 1028 l 204 1183 l 68 1028 l 1 1028 l 164 1225 l 247 1225 l 410 1028 l 343 1028 z "},"Ï":{"ha":411,"x_min":26,"x_max":386,"o":"m 26 0 m 167 944 l 244 944 l 244 0 l 167 0 l 167 944 m 81 1083 q 42 1099 58 1083 q 26 1136 26 1115 q 42 1175 26 1158 q 81 1192 58 1192 q 120 1176 104 1192 q 136 1136 136 1160 q 119 1099 136 1115 q 81 1083 103 1083 m 331 1083 q 292 1099 308 1083 q 276 1136 276 1115 q 292 1175 276 1158 q 331 1192 308 1192 q 370 1176 354 1192 q 386 1136 386 1160 q 369 1099 386 1115 q 331 1083 353 1083 z "},"İ":{"ha":411,"x_min":151,"x_max":261,"o":"m 151 0 m 167 944 l 244 944 l 244 0 l 167 0 l 167 944 m 206 1082 q 167 1098 183 1082 q 151 1135 151 1114 q 167 1174 151 1157 q 206 1190 183 1190 q 245 1174 229 1190 q 261 1135 261 1158 q 244 1098 261 1114 q 206 1082 228 1082 z "},"Ì":{"ha":411,"x_min":1,"x_max":244,"o":"m 1 0 m 167 944 l 244 944 l 244 0 l 167 0 l 167 944 m 1 1225 l 78 1225 l 240 1028 l 175 1028 l 1 1225 z "},"Ī":{"ha":411,"x_min":11,"x_max":400,"o":"m 11 0 m 167 944 l 244 944 l 244 0 l 167 0 l 167 944 m 11 1167 l 400 1167 l 400 1108 l 11 1108 l 11 1167 z "},"Į":{"ha":411,"x_min":22,"x_max":276,"o":"m 276 -261 q 150 -328 224 -328 q 57 -295 92 -328 q 22 -204 22 -262 q 167 19 22 -97 l 167 944 l 244 944 l 244 0 l 221 0 q 119 -107 151 -60 q 88 -200 88 -154 q 106 -251 88 -233 q 154 -269 124 -269 q 240 -226 199 -269 l 276 -261 z "},"Ĩ":{"ha":411,"x_min":-10,"x_max":421,"o":"m 0 0 m 167 944 l 244 944 l 244 0 l 167 0 l 167 944 m -10 1050 q 28 1181 -3 1135 q 115 1226 60 1226 q 176 1208 153 1226 q 224 1154 199 1189 q 260 1113 244 1126 q 296 1100 275 1100 q 343 1128 328 1100 q 367 1226 358 1157 l 421 1221 q 383 1090 414 1136 q 296 1044 351 1044 q 234 1063 257 1044 q 182 1119 211 1082 q 149 1158 163 1146 q 115 1171 135 1171 q 68 1142 83 1171 q 44 1044 53 1114 l -10 1050 z "},"J":{"ha":411,"x_min":-58,"x_max":244,"o":"m 8 -340 q -58 -329 -25 -340 l -43 -265 q 8 -272 -18 -272 q 130 -215 93 -272 q 167 -33 167 -157 l 167 944 l 244 944 l 244 -36 q 187 -262 244 -183 q 8 -340 129 -340 z "},"Ĵ":{"ha":411,"x_min":-58,"x_max":410,"o":"m 0 0 m 8 -340 q -58 -329 -25 -340 l -43 -265 q 8 -272 -18 -272 q 130 -215 93 -272 q 167 -33 167 -157 l 167 944 l 244 944 l 244 -36 q 187 -262 244 -183 q 8 -340 129 -340 m 343 1028 l 204 1183 l 68 1028 l 1 1028 l 164 1225 l 247 1225 l 410 1028 l 343 1028 z "},"K":{"ha":917,"x_min":167,"x_max":868,"o":"m 167 944 l 244 944 l 244 0 l 167 0 l 167 944 m 868 0 l 772 0 l 281 493 l 281 521 l 710 944 l 803 944 l 363 511 l 868 0 z "},"Ķ":{"ha":917,"x_min":167,"x_max":868,"o":"m 167 0 m 167 944 l 244 944 l 244 0 l 167 0 l 167 944 m 868 0 l 772 0 l 281 493 l 281 521 l 710 944 l 803 944 l 363 511 l 868 0 m 386 -287 q 460 -245 440 -265 q 481 -196 481 -225 q 465 -164 481 -176 q 411 -144 449 -151 l 432 -94 q 519 -129 492 -103 q 546 -193 546 -156 q 414 -328 546 -282 l 386 -287 z "},"L":{"ha":776,"x_min":167,"x_max":721,"o":"m 721 64 l 721 0 l 167 0 l 167 944 l 244 944 l 244 64 l 721 64 z "},"Ĺ":{"ha":776,"x_min":167,"x_max":721,"o":"m 167 0 m 721 64 l 721 0 l 167 0 l 167 944 l 244 944 l 244 64 l 721 64 m 347 1225 l 424 1225 l 250 1028 l 185 1028 l 347 1225 z "},"Ľ":{"ha":776,"x_min":167,"x_max":721,"o":"m 721 64 l 721 0 l 167 0 l 167 944 l 244 944 l 244 64 l 721 64 m 468 860 q 435 731 468 789 q 347 644 401 672 l 317 685 q 406 861 406 742 q 392 944 406 896 l 456 944 q 468 860 468 901 z "},"Ļ":{"ha":776,"x_min":167,"x_max":721,"o":"m 167 0 m 721 64 l 721 0 l 167 0 l 167 944 l 244 944 l 244 64 l 721 64 m 389 -287 q 463 -245 443 -265 q 483 -196 483 -225 q 467 -164 483 -176 q 414 -144 451 -151 l 435 -94 q 522 -129 494 -103 q 549 -193 549 -156 q 417 -328 549 -282 l 389 -287 z "},"Ŀ":{"ha":776,"x_min":167,"x_max":721,"o":"m 167 0 m 721 64 l 721 0 l 167 0 l 167 944 l 244 944 l 244 64 l 721 64 m 569 447 q 528 465 546 447 q 511 506 511 482 q 528 547 511 529 q 569 565 546 565 q 612 547 594 565 q 629 506 629 529 q 612 465 629 482 q 569 447 594 447 z "},"Ł":{"ha":776,"x_min":17,"x_max":721,"o":"m 721 64 l 721 0 l 167 0 l 167 332 l 49 257 l 17 307 l 167 403 l 167 944 l 244 944 l 244 451 l 474 597 l 506 549 l 244 382 l 244 64 l 721 64 z "},"M":{"ha":1192,"x_min":167,"x_max":1025,"o":"m 1025 944 l 1025 0 l 947 0 l 947 801 l 618 336 l 574 336 l 244 801 l 244 0 l 167 0 l 167 944 l 231 944 l 596 428 l 961 944 l 1025 944 z "},"N":{"ha":1049,"x_min":167,"x_max":882,"o":"m 882 944 l 882 0 l 818 -1 l 244 801 l 244 0 l 167 0 l 167 944 l 231 944 l 804 139 l 804 944 l 882 944 z "},"Ń":{"ha":1049,"x_min":167,"x_max":882,"o":"m 167 0 m 882 944 l 882 0 l 818 -1 l 244 801 l 244 0 l 167 0 l 167 944 l 231 944 l 804 139 l 804 944 l 882 944 m 656 1225 l 732 1225 l 558 1028 l 493 1028 l 656 1225 z "},"Ň":{"ha":1049,"x_min":167,"x_max":882,"o":"m 167 0 m 882 944 l 882 0 l 818 -1 l 244 801 l 244 0 l 167 0 l 167 944 l 231 944 l 804 139 l 804 944 l 882 944 m 729 1225 l 567 1028 l 483 1028 l 321 1225 l 388 1225 l 526 1069 l 663 1225 l 729 1225 z "},"Ņ":{"ha":1049,"x_min":167,"x_max":882,"o":"m 167 0 m 882 944 l 882 0 l 818 -1 l 244 801 l 244 0 l 167 0 l 167 944 l 231 944 l 804 139 l 804 944 l 882 944 m 453 -287 q 527 -245 507 -265 q 547 -196 547 -225 q 531 -164 547 -176 q 478 -144 515 -151 l 499 -94 q 585 -129 558 -103 q 613 -193 613 -156 q 481 -328 613 -282 l 453 -287 z "},"Ñ":{"ha":1049,"x_min":167,"x_max":882,"o":"m 167 0 m 882 944 l 882 0 l 818 -1 l 244 801 l 244 0 l 167 0 l 167 944 l 231 944 l 804 139 l 804 944 l 882 944 m 310 1050 q 348 1181 317 1135 q 435 1226 379 1226 q 495 1208 472 1226 q 543 1154 518 1189 q 579 1113 564 1126 q 615 1100 594 1100 q 663 1128 647 1100 q 686 1226 678 1157 l 740 1221 q 702 1090 733 1136 q 615 1044 671 1044 q 553 1063 576 1044 q 501 1119 531 1082 q 468 1158 482 1146 q 435 1171 454 1171 q 388 1142 403 1171 q 364 1044 372 1114 l 310 1050 z "},"O":{"ha":1050,"x_min":83,"x_max":967,"o":"m 525 -24 q 284 42 383 -24 q 134 221 185 108 q 83 469 83 333 q 134 718 83 606 q 284 897 185 831 q 525 964 383 964 q 765 897 665 964 q 916 719 865 831 q 967 472 967 607 q 916 222 967 335 q 765 43 865 110 q 525 -24 665 -24 m 525 42 q 722 97 640 42 q 847 250 804 153 q 889 471 889 347 q 847 690 889 593 q 722 842 804 786 q 525 899 640 899 q 328 842 410 899 q 203 690 246 786 q 161 471 161 593 q 203 250 161 347 q 328 97 246 153 q 525 42 410 42 z "},"Ó":{"ha":1050,"x_min":83,"x_max":967,"o":"m 83 0 m 525 -24 q 284 42 383 -24 q 134 221 185 108 q 83 469 83 333 q 134 718 83 606 q 284 897 185 831 q 525 964 383 964 q 765 897 665 964 q 916 719 865 831 q 967 472 967 607 q 916 222 967 335 q 765 43 865 110 q 525 -24 665 -24 m 525 42 q 722 97 640 42 q 847 250 804 153 q 889 471 889 347 q 847 690 889 593 q 722 842 804 786 q 525 899 640 899 q 328 842 410 899 q 203 690 246 786 q 161 471 161 593 q 203 250 161 347 q 328 97 246 153 q 525 42 410 42 m 656 1225 l 732 1225 l 558 1028 l 493 1028 l 656 1225 z "},"Ô":{"ha":1050,"x_min":83,"x_max":967,"o":"m 83 0 m 525 -24 q 284 42 383 -24 q 134 221 185 108 q 83 469 83 333 q 134 718 83 606 q 284 897 185 831 q 525 964 383 964 q 765 897 665 964 q 916 719 865 831 q 967 472 967 607 q 916 222 967 335 q 765 43 865 110 q 525 -24 665 -24 m 525 42 q 722 97 640 42 q 847 250 804 153 q 889 471 889 347 q 847 690 889 593 q 722 842 804 786 q 525 899 640 899 q 328 842 410 899 q 203 690 246 786 q 161 471 161 593 q 203 250 161 347 q 328 97 246 153 q 525 42 410 42 m 663 1028 l 524 1183 l 388 1028 l 321 1028 l 483 1225 l 567 1225 l 729 1028 l 663 1028 z "},"Ö":{"ha":1050,"x_min":83,"x_max":967,"o":"m 83 0 m 525 -24 q 284 42 383 -24 q 134 221 185 108 q 83 469 83 333 q 134 718 83 606 q 284 897 185 831 q 525 964 383 964 q 765 897 665 964 q 916 719 865 831 q 967 472 967 607 q 916 222 967 335 q 765 43 865 110 q 525 -24 665 -24 m 525 42 q 722 97 640 42 q 847 250 804 153 q 889 471 889 347 q 847 690 889 593 q 722 842 804 786 q 525 899 640 899 q 328 842 410 899 q 203 690 246 786 q 161 471 161 593 q 203 250 161 347 q 328 97 246 153 q 525 42 410 42 m 400 1083 q 362 1099 378 1083 q 346 1136 346 1115 q 362 1175 346 1158 q 400 1192 378 1192 q 440 1176 424 1192 q 456 1136 456 1160 q 439 1099 456 1115 q 400 1083 422 1083 m 650 1083 q 612 1099 628 1083 q 596 1136 596 1115 q 612 1175 596 1158 q 650 1192 628 1192 q 690 1176 674 1192 q 706 1136 706 1160 q 689 1099 706 1115 q 650 1083 672 1083 z "},"Ò":{"ha":1050,"x_min":83,"x_max":967,"o":"m 83 0 m 525 -24 q 284 42 383 -24 q 134 221 185 108 q 83 469 83 333 q 134 718 83 606 q 284 897 185 831 q 525 964 383 964 q 765 897 665 964 q 916 719 865 831 q 967 472 967 607 q 916 222 967 335 q 765 43 865 110 q 525 -24 665 -24 m 525 42 q 722 97 640 42 q 847 250 804 153 q 889 471 889 347 q 847 690 889 593 q 722 842 804 786 q 525 899 640 899 q 328 842 410 899 q 203 690 246 786 q 161 471 161 593 q 203 250 161 347 q 328 97 246 153 q 525 42 410 42 m 321 1225 l 397 1225 l 560 1028 l 494 1028 l 321 1225 z "},"Ő":{"ha":1050,"x_min":83,"x_max":967,"o":"m 83 0 m 525 -24 q 284 42 383 -24 q 134 221 185 108 q 83 469 83 333 q 134 718 83 606 q 284 897 185 831 q 525 964 383 964 q 765 897 665 964 q 916 719 865 831 q 967 472 967 607 q 916 222 967 335 q 765 43 865 110 q 525 -24 665 -24 m 525 42 q 722 97 640 42 q 847 250 804 153 q 889 471 889 347 q 847 690 889 593 q 722 842 804 786 q 525 899 640 899 q 328 842 410 899 q 203 690 246 786 q 161 471 161 593 q 203 250 161 347 q 328 97 246 153 q 525 42 410 42 m 526 1225 l 603 1225 l 429 1028 l 364 1028 l 526 1225 m 764 1225 l 840 1225 l 667 1028 l 601 1028 l 764 1225 z "},"Ō":{"ha":1050,"x_min":83,"x_max":967,"o":"m 83 0 m 525 -24 q 284 42 383 -24 q 134 221 185 108 q 83 469 83 333 q 134 718 83 606 q 284 897 185 831 q 525 964 383 964 q 765 897 665 964 q 916 719 865 831 q 967 472 967 607 q 916 222 967 335 q 765 43 865 110 q 525 -24 665 -24 m 525 42 q 722 97 640 42 q 847 250 804 153 q 889 471 889 347 q 847 690 889 593 q 722 842 804 786 q 525 899 640 899 q 328 842 410 899 q 203 690 246 786 q 161 471 161 593 q 203 250 161 347 q 328 97 246 153 q 525 42 410 42 m 331 1167 l 719 1167 l 719 1108 l 331 1108 l 331 1167 z "},"Ø":{"ha":1118,"x_min":83,"x_max":967,"o":"m 863 808 q 940 656 914 742 q 967 472 967 569 q 916 222 967 335 q 765 43 865 110 q 525 -24 665 -24 q 229 85 347 -24 l 128 -31 l 83 8 l 189 129 q 110 283 138 196 q 83 469 83 371 q 134 718 83 606 q 284 897 185 831 q 525 964 383 964 q 824 851 707 964 l 924 965 l 967 926 l 863 808 m 161 471 q 181 314 161 388 q 239 186 200 240 l 776 797 q 525 899 679 899 q 328 842 410 899 q 203 690 246 786 q 161 471 161 593 m 889 471 q 813 751 889 638 l 276 139 q 525 42 374 42 q 722 97 640 42 q 847 250 804 153 q 889 471 889 347 z "},"Õ":{"ha":1050,"x_min":83,"x_max":967,"o":"m 83 0 m 525 -24 q 284 42 383 -24 q 134 221 185 108 q 83 469 83 333 q 134 718 83 606 q 284 897 185 831 q 525 964 383 964 q 765 897 665 964 q 916 719 865 831 q 967 472 967 607 q 916 222 967 335 q 765 43 865 110 q 525 -24 665 -24 m 525 42 q 722 97 640 42 q 847 250 804 153 q 889 471 889 347 q 847 690 889 593 q 722 842 804 786 q 525 899 640 899 q 328 842 410 899 q 203 690 246 786 q 161 471 161 593 q 203 250 161 347 q 328 97 246 153 q 525 42 410 42 m 310 1050 q 348 1181 317 1135 q 435 1226 379 1226 q 495 1208 472 1226 q 543 1154 518 1189 q 579 1113 564 1126 q 615 1100 594 1100 q 663 1128 647 1100 q 686 1226 678 1157 l 740 1221 q 702 1090 733 1136 q 615 1044 671 1044 q 553 1063 576 1044 q 501 1119 531 1082 q 468 1158 482 1146 q 435 1171 454 1171 q 388 1142 403 1171 q 364 1044 372 1114 l 310 1050 z "},"Œ":{"ha":1390,"x_min":83,"x_max":1307,"o":"m 1307 64 l 1307 0 l 525 0 q 284 61 383 0 q 134 229 185 122 q 83 471 83 336 q 134 717 83 610 q 284 884 185 824 q 525 944 383 944 l 1279 944 l 1279 881 l 831 881 l 831 532 l 1224 532 l 1224 468 l 831 468 l 831 64 l 1307 64 m 753 64 l 753 881 l 525 881 q 256 771 351 881 q 161 472 161 661 q 256 175 161 286 q 525 64 351 64 l 753 64 z "},"P":{"ha":817,"x_min":167,"x_max":775,"o":"m 458 944 q 631 910 560 944 q 739 817 703 876 q 775 682 775 757 q 693 489 775 561 q 458 417 611 417 l 244 417 l 244 0 l 167 0 l 167 944 l 458 944 m 458 481 q 636 531 575 481 q 697 681 697 582 q 635 826 697 772 q 458 881 572 881 l 244 881 l 244 481 l 458 481 z "},"Þ":{"ha":890,"x_min":167,"x_max":775,"o":"m 458 750 q 631 716 560 750 q 739 622 703 682 q 775 488 775 563 q 693 294 775 367 q 458 222 611 222 l 244 222 l 244 0 l 167 0 l 167 944 l 244 944 l 244 750 l 458 750 m 458 286 q 636 337 575 286 q 697 486 697 388 q 635 632 697 578 q 458 686 572 686 l 244 686 l 244 286 l 458 286 z "},"Q":{"ha":1050,"x_min":83,"x_max":1156,"o":"m 1156 -272 q 1010 -332 1083 -332 q 778 -192 896 -332 l 628 -14 q 525 -24 572 -24 q 284 42 383 -24 q 134 221 185 108 q 83 469 83 333 q 134 718 83 606 q 284 897 185 831 q 525 964 383 964 q 765 897 665 964 q 916 719 865 831 q 967 472 967 607 q 899 189 967 313 q 707 11 832 65 l 836 -140 q 1017 -260 939 -260 q 1133 -214 1078 -260 l 1156 -272 m 161 471 q 203 250 161 347 q 328 97 246 153 q 525 42 410 42 q 722 97 640 42 q 847 250 804 153 q 889 471 889 347 q 847 690 889 593 q 722 842 804 786 q 525 899 640 899 q 328 842 410 899 q 203 690 246 786 q 161 471 161 593 z "},"R":{"ha":911,"x_min":167,"x_max":842,"o":"m 429 444 l 244 444 l 244 0 l 167 0 l 167 944 l 458 944 q 624 912 556 944 q 726 823 692 879 q 761 696 761 767 q 697 529 761 594 q 513 451 633 464 l 842 0 l 753 0 l 429 444 m 244 508 l 458 508 q 626 555 568 508 q 683 694 683 601 q 624 830 683 779 q 458 881 565 881 l 244 881 l 244 508 z "},"Ŕ":{"ha":911,"x_min":167,"x_max":842,"o":"m 167 0 m 429 444 l 244 444 l 244 0 l 167 0 l 167 944 l 458 944 q 624 912 556 944 q 726 823 692 879 q 761 696 761 767 q 697 529 761 594 q 513 451 633 464 l 842 0 l 753 0 l 429 444 m 244 508 l 458 508 q 626 555 568 508 q 683 694 683 601 q 624 830 683 779 q 458 881 565 881 l 244 881 l 244 508 m 544 1225 l 621 1225 l 447 1028 l 382 1028 l 544 1225 z "},"Ř":{"ha":911,"x_min":167,"x_max":842,"o":"m 167 0 m 429 444 l 244 444 l 244 0 l 167 0 l 167 944 l 458 944 q 624 912 556 944 q 726 823 692 879 q 761 696 761 767 q 697 529 761 594 q 513 451 633 464 l 842 0 l 753 0 l 429 444 m 244 508 l 458 508 q 626 555 568 508 q 683 694 683 601 q 624 830 683 779 q 458 881 565 881 l 244 881 l 244 508 m 618 1225 l 456 1028 l 372 1028 l 210 1225 l 276 1225 l 415 1069 l 551 1225 l 618 1225 z "},"Ŗ":{"ha":911,"x_min":167,"x_max":842,"o":"m 167 0 m 429 444 l 244 444 l 244 0 l 167 0 l 167 944 l 458 944 q 624 912 556 944 q 726 823 692 879 q 761 696 761 767 q 697 529 761 594 q 513 451 633 464 l 842 0 l 753 0 l 429 444 m 244 508 l 458 508 q 626 555 568 508 q 683 694 683 601 q 624 830 683 779 q 458 881 565 881 l 244 881 l 244 508 m 383 -287 q 458 -245 438 -265 q 478 -196 478 -225 q 462 -164 478 -176 q 408 -144 446 -151 l 429 -94 q 516 -129 489 -103 q 543 -193 543 -156 q 411 -328 543 -282 l 383 -287 z "},"S":{"ha":807,"x_min":83,"x_max":724,"o":"m 408 -24 q 224 0 297 -24 q 83 75 150 24 l 126 136 q 408 42 228 42 q 579 96 513 42 q 646 244 646 150 q 614 337 646 300 q 535 395 582 374 q 408 446 489 417 q 260 506 317 478 q 163 585 203 533 q 124 715 124 636 q 204 900 124 836 q 407 964 285 964 q 567 940 497 964 q 701 865 638 915 l 660 806 q 542 875 607 851 q 407 899 478 899 q 259 853 318 899 q 200 717 200 807 q 232 624 200 661 q 310 566 264 588 q 438 517 357 544 q 588 456 532 483 q 684 376 644 428 q 724 244 724 325 q 682 103 724 164 q 569 9 640 42 q 408 -24 497 -24 z "},"Ś":{"ha":807,"x_min":83,"x_max":724,"o":"m 83 0 m 408 -24 q 224 0 297 -24 q 83 75 150 24 l 126 136 q 408 42 228 42 q 579 96 513 42 q 646 244 646 150 q 614 337 646 300 q 535 395 582 374 q 408 446 489 417 q 260 506 317 478 q 163 585 203 533 q 124 715 124 636 q 204 900 124 836 q 407 964 285 964 q 567 940 497 964 q 701 865 638 915 l 660 806 q 542 875 607 851 q 407 899 478 899 q 259 853 318 899 q 200 717 200 807 q 232 624 200 661 q 310 566 264 588 q 438 517 357 544 q 588 456 532 483 q 684 376 644 428 q 724 244 724 325 q 682 103 724 164 q 569 9 640 42 q 408 -24 497 -24 m 533 1225 l 610 1225 l 436 1028 l 371 1028 l 533 1225 z "},"Š":{"ha":807,"x_min":83,"x_max":724,"o":"m 83 0 m 408 -24 q 224 0 297 -24 q 83 75 150 24 l 126 136 q 408 42 228 42 q 579 96 513 42 q 646 244 646 150 q 614 337 646 300 q 535 395 582 374 q 408 446 489 417 q 260 506 317 478 q 163 585 203 533 q 124 715 124 636 q 204 900 124 836 q 407 964 285 964 q 567 940 497 964 q 701 865 638 915 l 660 806 q 542 875 607 851 q 407 899 478 899 q 259 853 318 899 q 200 717 200 807 q 232 624 200 661 q 310 566 264 588 q 438 517 357 544 q 588 456 532 483 q 684 376 644 428 q 724 244 724 325 q 682 103 724 164 q 569 9 640 42 q 408 -24 497 -24 m 607 1225 l 444 1028 l 361 1028 l 199 1225 l 265 1225 l 404 1069 l 540 1225 l 607 1225 z "},"Ş":{"ha":807,"x_min":83,"x_max":724,"o":"m 724 244 q 643 58 724 131 q 438 -22 563 -14 l 392 -108 q 439 -100 419 -100 q 503 -122 478 -100 q 528 -178 528 -143 q 490 -260 528 -225 q 371 -328 453 -296 l 343 -289 q 438 -234 413 -257 q 463 -186 463 -211 q 421 -151 463 -151 q 365 -167 396 -151 l 322 -129 l 379 -24 q 213 3 281 -21 q 83 75 146 26 l 126 136 q 408 42 228 42 q 579 96 513 42 q 646 244 646 150 q 614 337 646 300 q 535 395 582 374 q 408 446 489 417 q 260 506 317 478 q 163 585 203 533 q 124 715 124 636 q 204 900 124 836 q 407 964 285 964 q 567 940 497 964 q 701 865 638 915 l 660 806 q 542 875 607 851 q 407 899 478 899 q 259 853 318 899 q 200 717 200 807 q 232 624 200 661 q 310 566 264 588 q 438 517 357 544 q 588 456 532 483 q 684 376 644 428 q 724 244 724 325 z "},"Ș":{"ha":807,"x_min":83,"x_max":724,"o":"m 83 0 m 408 -24 q 224 0 297 -24 q 83 75 150 24 l 126 136 q 408 42 228 42 q 579 96 513 42 q 646 244 646 150 q 614 337 646 300 q 535 395 582 374 q 408 446 489 417 q 260 506 317 478 q 163 585 203 533 q 124 715 124 636 q 204 900 124 836 q 407 964 285 964 q 567 940 497 964 q 701 865 638 915 l 660 806 q 542 875 607 851 q 407 899 478 899 q 259 853 318 899 q 200 717 200 807 q 232 624 200 661 q 310 566 264 588 q 438 517 357 544 q 588 456 532 483 q 684 376 644 428 q 724 244 724 325 q 682 103 724 164 q 569 9 640 42 q 408 -24 497 -24 m 346 -287 q 420 -245 400 -265 q 440 -196 440 -225 q 424 -164 440 -176 q 371 -144 408 -151 l 392 -94 q 478 -129 451 -103 q 506 -193 506 -156 q 374 -328 506 -282 l 346 -287 z "},"T":{"ha":875,"x_min":56,"x_max":819,"o":"m 819 881 l 476 881 l 476 0 l 399 0 l 399 881 l 56 881 l 56 944 l 819 944 l 819 881 z "},"Ť":{"ha":875,"x_min":56,"x_max":819,"o":"m 56 0 m 819 881 l 476 881 l 476 0 l 399 0 l 399 881 l 56 881 l 56 944 l 819 944 l 819 881 m 642 1225 l 479 1028 l 396 1028 l 233 1225 l 300 1225 l 439 1069 l 575 1225 l 642 1225 z "},"Ț":{"ha":875,"x_min":56,"x_max":819,"o":"m 56 0 m 819 881 l 476 881 l 476 0 l 399 0 l 399 881 l 56 881 l 56 944 l 819 944 l 819 881 m 365 -287 q 440 -245 419 -265 q 460 -196 460 -225 q 444 -164 460 -176 q 390 -144 428 -151 l 411 -94 q 498 -129 471 -103 q 525 -193 525 -156 q 393 -328 525 -282 l 365 -287 z "},"U":{"ha":1021,"x_min":153,"x_max":868,"o":"m 511 -24 q 315 24 396 -24 q 194 153 235 71 q 153 343 153 236 l 153 944 l 231 944 l 231 344 q 303 123 231 204 q 511 42 376 42 q 717 123 644 42 q 790 344 790 204 l 790 944 l 868 944 l 868 346 q 828 154 868 238 q 707 24 788 71 q 511 -24 626 -24 z "},"Ú":{"ha":1021,"x_min":153,"x_max":868,"o":"m 153 0 m 511 -24 q 315 24 396 -24 q 194 153 235 71 q 153 343 153 236 l 153 944 l 231 944 l 231 344 q 303 123 231 204 q 511 42 376 42 q 717 123 644 42 q 790 344 790 204 l 790 944 l 868 944 l 868 346 q 828 154 868 238 q 707 24 788 71 q 511 -24 626 -24 m 642 1225 l 718 1225 l 544 1028 l 479 1028 l 642 1225 z "},"Û":{"ha":1021,"x_min":153,"x_max":868,"o":"m 153 0 m 511 -24 q 315 24 396 -24 q 194 153 235 71 q 153 343 153 236 l 153 944 l 231 944 l 231 344 q 303 123 231 204 q 511 42 376 42 q 717 123 644 42 q 790 344 790 204 l 790 944 l 868 944 l 868 346 q 828 154 868 238 q 707 24 788 71 q 511 -24 626 -24 m 649 1028 l 510 1183 l 374 1028 l 307 1028 l 469 1225 l 553 1225 l 715 1028 l 649 1028 z "},"Ü":{"ha":1021,"x_min":153,"x_max":868,"o":"m 153 0 m 511 -24 q 315 24 396 -24 q 194 153 235 71 q 153 343 153 236 l 153 944 l 231 944 l 231 344 q 303 123 231 204 q 511 42 376 42 q 717 123 644 42 q 790 344 790 204 l 790 944 l 868 944 l 868 346 q 828 154 868 238 q 707 24 788 71 q 511 -24 626 -24 m 386 1083 q 348 1099 364 1083 q 332 1136 332 1115 q 348 1175 332 1158 q 386 1192 364 1192 q 426 1176 410 1192 q 442 1136 442 1160 q 425 1099 442 1115 q 386 1083 408 1083 m 636 1083 q 598 1099 614 1083 q 582 1136 582 1115 q 598 1175 582 1158 q 636 1192 614 1192 q 676 1176 660 1192 q 692 1136 692 1160 q 675 1099 692 1115 q 636 1083 658 1083 z "},"Ù":{"ha":1021,"x_min":153,"x_max":868,"o":"m 153 0 m 511 -24 q 315 24 396 -24 q 194 153 235 71 q 153 343 153 236 l 153 944 l 231 944 l 231 344 q 303 123 231 204 q 511 42 376 42 q 717 123 644 42 q 790 344 790 204 l 790 944 l 868 944 l 868 346 q 828 154 868 238 q 707 24 788 71 q 511 -24 626 -24 m 307 1225 l 383 1225 l 546 1028 l 481 1028 l 307 1225 z "},"Ű":{"ha":1021,"x_min":153,"x_max":868,"o":"m 153 0 m 511 -24 q 315 24 396 -24 q 194 153 235 71 q 153 343 153 236 l 153 944 l 231 944 l 231 344 q 303 123 231 204 q 511 42 376 42 q 717 123 644 42 q 790 344 790 204 l 790 944 l 868 944 l 868 346 q 828 154 868 238 q 707 24 788 71 q 511 -24 626 -24 m 513 1225 l 589 1225 l 415 1028 l 350 1028 l 513 1225 m 750 1225 l 826 1225 l 653 1028 l 588 1028 l 750 1225 z "},"Ū":{"ha":1021,"x_min":153,"x_max":868,"o":"m 153 0 m 511 -24 q 315 24 396 -24 q 194 153 235 71 q 153 343 153 236 l 153 944 l 231 944 l 231 344 q 303 123 231 204 q 511 42 376 42 q 717 123 644 42 q 790 344 790 204 l 790 944 l 868 944 l 868 346 q 828 154 868 238 q 707 24 788 71 q 511 -24 626 -24 m 317 1167 l 706 1167 l 706 1108 l 317 1108 l 317 1167 z "},"Ų":{"ha":1021,"x_min":153,"x_max":868,"o":"m 868 944 l 868 346 q 819 137 868 226 q 675 7 769 47 q 567 -104 601 -56 q 533 -200 533 -153 q 551 -251 533 -233 q 600 -269 569 -269 q 686 -226 644 -269 l 722 -261 q 596 -328 669 -328 q 503 -295 538 -328 q 468 -204 468 -262 q 567 -21 468 -112 q 511 -24 531 -24 q 315 24 396 -24 q 194 153 235 71 q 153 343 153 236 l 153 944 l 231 944 l 231 344 q 303 123 231 204 q 511 42 376 42 q 717 123 644 42 q 790 344 790 204 l 790 944 l 868 944 z "},"Ů":{"ha":1021,"x_min":153,"x_max":868,"o":"m 153 0 m 511 -24 q 315 24 396 -24 q 194 153 235 71 q 153 343 153 236 l 153 944 l 231 944 l 231 344 q 303 123 231 204 q 511 42 376 42 q 717 123 644 42 q 790 344 790 204 l 790 944 l 868 944 l 868 346 q 828 154 868 238 q 707 24 788 71 q 511 -24 626 -24 m 511 1028 q 424 1059 456 1028 q 393 1133 393 1090 q 424 1208 393 1176 q 511 1239 456 1239 q 598 1208 567 1239 q 629 1133 629 1176 q 598 1059 629 1090 q 511 1028 567 1028 m 511 1076 q 557 1092 540 1076 q 574 1133 574 1108 q 557 1174 574 1158 q 511 1190 540 1190 q 465 1174 482 1190 q 449 1133 449 1158 q 465 1092 449 1108 q 511 1076 482 1076 z "},"V":{"ha":901,"x_min":49,"x_max":853,"o":"m 853 944 l 485 -12 l 418 -12 l 49 944 l 128 944 l 453 99 l 776 944 l 853 944 z "},"W":{"ha":1372,"x_min":49,"x_max":1324,"o":"m 1324 944 l 1025 -12 l 958 -12 l 681 814 l 401 -12 l 335 -12 l 49 944 l 128 944 l 369 103 l 651 944 l 710 944 l 993 103 l 1247 944 l 1324 944 z "},"X":{"ha":954,"x_min":63,"x_max":892,"o":"m 796 0 l 478 435 l 158 0 l 63 0 l 424 490 l 90 944 l 185 944 l 478 547 l 771 944 l 865 944 l 532 490 l 892 0 l 796 0 z "},"Y":{"ha":872,"x_min":49,"x_max":824,"o":"m 475 388 l 475 0 l 397 0 l 397 383 l 49 944 l 139 944 l 436 454 l 736 944 l 824 944 l 475 388 z "},"Ý":{"ha":872,"x_min":49,"x_max":824,"o":"m 49 0 m 475 388 l 475 0 l 397 0 l 397 383 l 49 944 l 139 944 l 436 454 l 736 944 l 824 944 l 475 388 m 567 1225 l 643 1225 l 469 1028 l 404 1028 l 567 1225 z "},"Ÿ":{"ha":872,"x_min":49,"x_max":824,"o":"m 49 0 m 475 388 l 475 0 l 397 0 l 397 383 l 49 944 l 139 944 l 436 454 l 736 944 l 824 944 l 475 388 m 311 1083 q 273 1099 289 1083 q 257 1136 257 1115 q 273 1175 257 1158 q 311 1192 289 1192 q 351 1176 335 1192 q 367 1136 367 1160 q 350 1099 367 1115 q 311 1083 333 1083 m 561 1083 q 523 1099 539 1083 q 507 1136 507 1115 q 523 1175 507 1158 q 561 1192 539 1192 q 601 1176 585 1192 q 617 1136 617 1160 q 600 1099 617 1115 q 561 1083 583 1083 z "},"Z":{"ha":901,"x_min":111,"x_max":818,"o":"m 818 64 l 818 0 l 111 0 l 111 43 l 711 881 l 129 881 l 129 944 l 799 944 l 799 890 l 208 64 l 818 64 z "},"Ź":{"ha":901,"x_min":111,"x_max":818,"o":"m 111 0 m 818 64 l 818 0 l 111 0 l 111 43 l 711 881 l 129 881 l 129 944 l 799 944 l 799 890 l 208 64 l 818 64 m 596 1225 l 672 1225 l 499 1028 l 433 1028 l 596 1225 z "},"Ž":{"ha":901,"x_min":111,"x_max":818,"o":"m 111 0 m 818 64 l 818 0 l 111 0 l 111 43 l 711 881 l 129 881 l 129 944 l 799 944 l 799 890 l 208 64 l 818 64 m 669 1225 l 507 1028 l 424 1028 l 261 1225 l 328 1225 l 467 1069 l 603 1225 l 669 1225 z "},"Ż":{"ha":901,"x_min":111,"x_max":818,"o":"m 111 0 m 818 64 l 818 0 l 111 0 l 111 43 l 711 881 l 129 881 l 129 944 l 799 944 l 799 890 l 208 64 l 818 64 m 465 1082 q 427 1098 443 1082 q 411 1135 411 1114 q 427 1174 411 1157 q 465 1190 443 1190 q 505 1174 489 1190 q 521 1135 521 1158 q 504 1098 521 1114 q 465 1082 488 1082 z "},"a":{"ha":736,"x_min":72,"x_max":701,"o":"m 701 -1 q 621 -21 654 -21 q 542 3 571 -21 q 513 88 513 26 l 513 90 q 263 -22 374 -22 q 125 26 178 -22 q 72 149 72 74 q 108 256 72 213 q 210 330 144 300 q 383 390 276 360 l 513 426 l 513 501 q 485 634 513 583 q 382 685 457 685 q 253 655 308 685 q 126 538 197 625 l 74 578 q 381 750 211 750 q 542 692 496 750 q 588 500 588 635 l 588 97 q 598 53 588 67 q 631 40 608 40 q 692 57 654 40 l 701 -1 m 264 40 q 376 69 319 40 q 513 158 432 97 l 513 365 l 410 336 q 207 254 267 296 q 147 149 147 213 q 180 66 147 92 q 264 40 213 40 z "},"á":{"ha":736,"x_min":72,"x_max":701,"o":"m 72 0 m 701 -1 q 621 -21 654 -21 q 542 3 571 -21 q 513 88 513 26 l 513 90 q 263 -22 374 -22 q 125 26 178 -22 q 72 149 72 74 q 108 256 72 213 q 210 330 144 300 q 383 390 276 360 l 513 426 l 513 501 q 485 634 513 583 q 382 685 457 685 q 253 655 308 685 q 126 538 197 625 l 74 578 q 381 750 211 750 q 542 692 496 750 q 588 500 588 635 l 588 97 q 598 53 588 67 q 631 40 608 40 q 692 57 654 40 l 701 -1 m 264 40 q 376 69 319 40 q 513 158 432 97 l 513 365 l 410 336 q 207 254 267 296 q 147 149 147 213 q 180 66 147 92 q 264 40 213 40 m 458 1114 l 538 1114 l 385 819 l 324 819 l 458 1114 z "},"ă":{"ha":736,"x_min":72,"x_max":701,"o":"m 72 0 m 701 -1 q 621 -21 654 -21 q 542 3 571 -21 q 513 88 513 26 l 513 90 q 263 -22 374 -22 q 125 26 178 -22 q 72 149 72 74 q 108 256 72 213 q 210 330 144 300 q 383 390 276 360 l 513 426 l 513 501 q 485 634 513 583 q 382 685 457 685 q 253 655 308 685 q 126 538 197 625 l 74 578 q 381 750 211 750 q 542 692 496 750 q 588 500 588 635 l 588 97 q 598 53 588 67 q 631 40 608 40 q 692 57 654 40 l 701 -1 m 264 40 q 376 69 319 40 q 513 158 432 97 l 513 365 l 410 336 q 207 254 267 296 q 147 149 147 213 q 180 66 147 92 q 264 40 213 40 m 357 858 q 226 916 274 858 q 176 1074 179 974 l 228 1076 q 266 949 232 992 q 357 907 300 907 q 448 949 414 907 q 486 1076 482 992 l 538 1074 q 488 916 535 974 q 357 858 440 858 z "},"â":{"ha":736,"x_min":72,"x_max":701,"o":"m 72 0 m 701 -1 q 621 -21 654 -21 q 542 3 571 -21 q 513 88 513 26 l 513 90 q 263 -22 374 -22 q 125 26 178 -22 q 72 149 72 74 q 108 256 72 213 q 210 330 144 300 q 383 390 276 360 l 513 426 l 513 501 q 485 634 513 583 q 382 685 457 685 q 253 655 308 685 q 126 538 197 625 l 74 578 q 381 750 211 750 q 542 692 496 750 q 588 500 588 635 l 588 97 q 598 53 588 67 q 631 40 608 40 q 692 57 654 40 l 701 -1 m 264 40 q 376 69 319 40 q 513 158 432 97 l 513 365 l 410 336 q 207 254 267 296 q 147 149 147 213 q 180 66 147 92 q 264 40 213 40 m 478 819 l 357 1050 l 236 819 l 175 819 l 321 1111 l 393 1111 l 539 819 l 478 819 z "},"ä":{"ha":736,"x_min":72,"x_max":701,"o":"m 72 0 m 701 -1 q 621 -21 654 -21 q 542 3 571 -21 q 513 88 513 26 l 513 90 q 263 -22 374 -22 q 125 26 178 -22 q 72 149 72 74 q 108 256 72 213 q 210 330 144 300 q 383 390 276 360 l 513 426 l 513 501 q 485 634 513 583 q 382 685 457 685 q 253 655 308 685 q 126 538 197 625 l 74 578 q 381 750 211 750 q 542 692 496 750 q 588 500 588 635 l 588 97 q 598 53 588 67 q 631 40 608 40 q 692 57 654 40 l 701 -1 m 264 40 q 376 69 319 40 q 513 158 432 97 l 513 365 l 410 336 q 207 254 267 296 q 147 149 147 213 q 180 66 147 92 q 264 40 213 40 m 232 1003 q 194 1019 210 1003 q 178 1056 178 1035 q 194 1094 178 1078 q 232 1111 210 1111 q 272 1095 256 1111 q 288 1056 288 1079 q 271 1019 288 1035 q 232 1003 254 1003 m 482 1003 q 444 1019 460 1003 q 428 1056 428 1035 q 444 1094 428 1078 q 482 1111 460 1111 q 522 1095 506 1111 q 538 1056 538 1079 q 521 1019 538 1035 q 482 1003 504 1003 z "},"à":{"ha":736,"x_min":72,"x_max":701,"o":"m 72 0 m 701 -1 q 621 -21 654 -21 q 542 3 571 -21 q 513 88 513 26 l 513 90 q 263 -22 374 -22 q 125 26 178 -22 q 72 149 72 74 q 108 256 72 213 q 210 330 144 300 q 383 390 276 360 l 513 426 l 513 501 q 485 634 513 583 q 382 685 457 685 q 253 655 308 685 q 126 538 197 625 l 74 578 q 381 750 211 750 q 542 692 496 750 q 588 500 588 635 l 588 97 q 598 53 588 67 q 631 40 608 40 q 692 57 654 40 l 701 -1 m 264 40 q 376 69 319 40 q 513 158 432 97 l 513 365 l 410 336 q 207 254 267 296 q 147 149 147 213 q 180 66 147 92 q 264 40 213 40 m 174 1111 l 253 1111 l 388 819 l 326 819 l 174 1111 z "},"ā":{"ha":736,"x_min":72,"x_max":701,"o":"m 72 0 m 701 -1 q 621 -21 654 -21 q 542 3 571 -21 q 513 88 513 26 l 513 90 q 263 -22 374 -22 q 125 26 178 -22 q 72 149 72 74 q 108 256 72 213 q 210 330 144 300 q 383 390 276 360 l 513 426 l 513 501 q 485 634 513 583 q 382 685 457 685 q 253 655 308 685 q 126 538 197 625 l 74 578 q 381 750 211 750 q 542 692 496 750 q 588 500 588 635 l 588 97 q 598 53 588 67 q 631 40 608 40 q 692 57 654 40 l 701 -1 m 264 40 q 376 69 319 40 q 513 158 432 97 l 513 365 l 410 336 q 207 254 267 296 q 147 149 147 213 q 180 66 147 92 q 264 40 213 40 m 163 1086 l 551 1086 l 551 1028 l 163 1028 l 163 1086 z "},"ą":{"ha":736,"x_min":72,"x_max":701,"o":"m 546 -269 q 632 -226 590 -269 l 668 -261 q 542 -328 615 -328 q 449 -295 483 -328 q 414 -204 414 -262 q 540 4 414 -103 q 513 88 513 32 l 513 90 q 263 -22 374 -22 q 125 26 178 -22 q 72 149 72 74 q 108 256 72 213 q 210 330 144 300 q 383 390 276 360 l 513 426 l 513 501 q 485 634 513 583 q 382 685 457 685 q 253 655 308 685 q 126 538 197 625 l 74 578 q 381 750 211 750 q 542 692 496 750 q 588 500 588 635 l 588 97 q 598 53 588 67 q 631 40 608 40 q 692 57 654 40 l 701 -1 q 621 -21 654 -21 q 592 -18 600 -21 q 506 -115 533 -71 q 479 -200 479 -158 q 497 -251 479 -233 q 546 -269 515 -269 m 264 40 q 376 69 319 40 q 513 158 432 97 l 513 365 l 410 336 q 207 254 267 296 q 147 149 147 213 q 180 66 147 92 q 264 40 213 40 z "},"å":{"ha":736,"x_min":72,"x_max":701,"o":"m 72 0 m 701 -1 q 621 -21 654 -21 q 542 3 571 -21 q 513 88 513 26 l 513 90 q 263 -22 374 -22 q 125 26 178 -22 q 72 149 72 74 q 108 256 72 213 q 210 330 144 300 q 383 390 276 360 l 513 426 l 513 501 q 485 634 513 583 q 382 685 457 685 q 253 655 308 685 q 126 538 197 625 l 74 578 q 381 750 211 750 q 542 692 496 750 q 588 500 588 635 l 588 97 q 598 53 588 67 q 631 40 608 40 q 692 57 654 40 l 701 -1 m 264 40 q 376 69 319 40 q 513 158 432 97 l 513 365 l 410 336 q 207 254 267 296 q 147 149 147 213 q 180 66 147 92 q 264 40 213 40 m 357 819 q 250 863 289 819 q 211 967 211 907 q 250 1068 211 1025 q 357 1111 289 1111 q 464 1068 425 1111 q 503 967 503 1025 q 464 863 503 907 q 357 819 425 819 m 357 868 q 423 896 399 868 q 447 967 447 924 q 423 1035 447 1008 q 357 1063 399 1063 q 291 1035 315 1063 q 267 967 267 1008 q 291 896 267 924 q 357 868 315 868 z "},"ã":{"ha":736,"x_min":72,"x_max":701,"o":"m 72 0 m 701 -1 q 621 -21 654 -21 q 542 3 571 -21 q 513 88 513 26 l 513 90 q 263 -22 374 -22 q 125 26 178 -22 q 72 149 72 74 q 108 256 72 213 q 210 330 144 300 q 383 390 276 360 l 513 426 l 513 501 q 485 634 513 583 q 382 685 457 685 q 253 655 308 685 q 126 538 197 625 l 74 578 q 381 750 211 750 q 542 692 496 750 q 588 500 588 635 l 588 97 q 598 53 588 67 q 631 40 608 40 q 692 57 654 40 l 701 -1 m 264 40 q 376 69 319 40 q 513 158 432 97 l 513 365 l 410 336 q 207 254 267 296 q 147 149 147 213 q 180 66 147 92 q 264 40 213 40 m 142 882 q 180 1013 149 967 q 267 1058 211 1058 q 327 1040 304 1058 q 375 986 350 1021 q 411 945 396 958 q 447 932 426 932 q 494 960 479 932 q 518 1058 510 989 l 572 1053 q 534 922 565 968 q 447 876 503 876 q 385 895 408 876 q 333 951 363 914 q 300 990 314 978 q 267 1003 286 1003 q 219 974 235 1003 q 196 876 204 946 l 142 882 z "},"æ":{"ha":1181,"x_min":72,"x_max":1111,"o":"m 1111 115 q 844 -28 1003 -28 q 677 15 747 -28 q 565 135 607 58 q 263 -22 393 -22 q 125 26 178 -22 q 72 149 72 74 q 108 256 72 213 q 210 330 144 300 q 383 390 276 360 l 513 426 l 513 501 q 485 634 513 583 q 382 685 457 685 q 253 655 308 685 q 126 538 197 625 l 74 578 q 381 750 211 750 q 516 716 469 750 q 578 608 563 682 q 687 713 619 675 q 844 750 754 750 q 974 720 914 750 q 1069 633 1033 690 q 1106 500 1106 576 q 1099 433 1106 472 l 596 433 q 590 361 590 401 q 657 126 590 217 q 844 35 724 35 q 1072 163 975 35 l 1111 115 m 844 688 q 695 635 756 688 q 608 494 635 583 l 1029 494 l 1029 501 q 1002 605 1029 563 q 933 667 975 647 q 844 688 890 688 m 264 40 q 388 76 325 40 q 542 186 450 111 q 513 360 513 265 l 513 364 l 410 336 q 207 254 267 296 q 147 149 147 213 q 180 66 147 92 q 264 40 213 40 z "},"b":{"ha":785,"x_min":139,"x_max":715,"o":"m 433 751 q 581 708 517 751 q 680 581 644 664 q 715 385 715 499 q 672 160 715 253 q 549 22 628 68 q 367 -25 469 -25 q 190 22 272 -25 l 172 -1 l 139 -1 l 139 1111 l 214 1111 l 214 665 q 433 751 310 751 m 365 38 q 570 133 503 38 q 638 385 638 228 q 608 558 638 490 q 533 656 579 626 q 433 686 486 686 q 322 667 369 686 q 214 600 274 647 l 214 74 q 365 38 272 38 z "},"c":{"ha":708,"x_min":69,"x_max":668,"o":"m 401 -28 q 218 25 293 -28 q 106 166 143 78 q 69 360 69 254 q 108 555 69 467 q 225 697 147 643 q 415 750 303 750 q 549 723 486 750 q 654 646 613 696 l 610 590 q 523 661 575 635 q 415 688 471 688 q 218 596 289 688 q 147 361 147 504 q 214 126 147 217 q 401 35 281 35 q 629 158 536 35 l 668 111 q 554 11 621 50 q 401 -28 488 -28 z "},"ć":{"ha":708,"x_min":69,"x_max":668,"o":"m 69 0 m 401 -28 q 218 25 293 -28 q 106 166 143 78 q 69 360 69 254 q 108 555 69 467 q 225 697 147 643 q 415 750 303 750 q 549 723 486 750 q 654 646 613 696 l 610 590 q 523 661 575 635 q 415 688 471 688 q 218 596 289 688 q 147 361 147 504 q 214 126 147 217 q 401 35 281 35 q 629 158 536 35 l 668 111 q 554 11 621 50 q 401 -28 488 -28 m 517 1114 l 596 1114 l 443 819 l 382 819 l 517 1114 z "},"č":{"ha":708,"x_min":69,"x_max":668,"o":"m 69 0 m 401 -28 q 218 25 293 -28 q 106 166 143 78 q 69 360 69 254 q 108 555 69 467 q 225 697 147 643 q 415 750 303 750 q 549 723 486 750 q 654 646 613 696 l 610 590 q 523 661 575 635 q 415 688 471 688 q 218 596 289 688 q 147 361 147 504 q 214 126 147 217 q 401 35 281 35 q 629 158 536 35 l 668 111 q 554 11 621 50 q 401 -28 488 -28 m 597 1111 l 451 819 l 379 819 l 233 1111 l 294 1111 l 415 881 l 536 1111 l 597 1111 z "},"ç":{"ha":708,"x_min":69,"x_max":668,"o":"m 668 111 q 563 16 625 54 q 424 -28 501 -22 l 379 -108 q 426 -100 407 -100 q 490 -122 465 -100 q 515 -178 515 -143 q 478 -260 515 -225 q 358 -328 440 -296 l 331 -289 q 425 -234 400 -257 q 450 -186 450 -211 q 408 -151 450 -151 q 353 -167 383 -151 l 310 -129 l 365 -26 q 203 38 269 -17 q 103 176 136 92 q 69 360 69 260 q 108 555 69 467 q 225 697 147 643 q 415 750 303 750 q 549 723 486 750 q 654 646 613 696 l 610 590 q 523 661 575 635 q 415 688 471 688 q 218 596 289 688 q 147 361 147 504 q 214 126 147 217 q 401 35 281 35 q 629 158 536 35 l 668 111 z "},"d":{"ha":785,"x_min":69,"x_max":646,"o":"m 646 1111 l 646 0 l 585 0 l 576 67 q 351 -28 475 -28 q 204 17 268 -28 q 105 144 140 61 q 69 343 69 228 q 113 566 69 475 q 235 703 157 657 q 418 750 314 750 q 571 718 501 750 l 571 1111 l 646 1111 m 147 343 q 176 167 147 236 q 252 68 206 99 q 351 38 299 38 q 462 58 415 38 q 571 128 508 79 l 571 654 q 419 688 513 688 q 215 594 282 688 q 147 343 147 500 z "},"ð":{"ha":839,"x_min":69,"x_max":732,"o":"m 469 974 q 665 719 599 869 q 732 404 732 569 q 691 176 732 275 q 576 24 650 78 q 408 -29 503 -29 q 222 24 299 -29 q 108 165 146 76 q 69 361 69 254 q 108 556 69 467 q 221 697 146 644 q 399 750 296 750 q 511 728 458 750 q 606 667 564 706 q 406 936 539 831 l 213 822 l 186 871 l 356 971 q 161 1054 267 1026 l 188 1114 q 422 1008 317 1079 l 599 1113 l 624 1064 l 469 974 m 408 35 q 588 131 521 35 q 654 400 654 228 q 640 546 654 478 q 532 653 592 619 q 399 686 472 686 q 213 597 279 686 q 147 361 147 507 q 215 127 147 219 q 408 35 282 35 z "},"ď":{"ha":785,"x_min":69,"x_max":842,"o":"m 69 0 m 646 1111 l 646 0 l 585 0 l 576 67 q 351 -28 475 -28 q 204 17 268 -28 q 105 144 140 61 q 69 343 69 228 q 113 566 69 475 q 235 703 157 657 q 418 750 314 750 q 571 718 501 750 l 571 1111 l 646 1111 m 147 343 q 176 167 147 236 q 252 68 206 99 q 351 38 299 38 q 462 58 415 38 q 571 128 508 79 l 571 654 q 419 688 513 688 q 215 594 282 688 q 147 343 147 500 m 690 851 q 779 1028 779 908 q 765 1111 779 1063 l 829 1111 q 842 1026 842 1068 q 808 897 842 956 q 721 811 775 839 l 690 851 z "},"đ":{"ha":785,"x_min":69,"x_max":785,"o":"m 785 874 l 646 874 l 646 0 l 585 0 l 576 67 q 351 -28 475 -28 q 204 17 268 -28 q 105 144 140 61 q 69 343 69 228 q 113 566 69 475 q 235 703 157 657 q 418 750 314 750 q 571 718 501 750 l 571 874 l 353 874 l 353 932 l 571 932 l 571 1111 l 646 1111 l 646 932 l 785 932 l 785 874 m 147 343 q 176 167 147 236 q 252 68 206 99 q 351 38 299 38 q 462 58 415 38 q 571 128 508 79 l 571 654 q 419 688 513 688 q 215 594 282 688 q 147 343 147 500 z "},"e":{"ha":738,"x_min":69,"x_max":668,"o":"m 668 111 q 554 11 621 50 q 401 -28 488 -28 q 218 25 293 -28 q 106 166 143 78 q 69 360 69 254 q 106 555 69 467 q 218 697 143 643 q 401 750 293 750 q 531 720 471 750 q 626 633 590 690 q 663 500 663 576 q 656 433 663 472 l 153 433 q 147 361 147 401 q 214 126 147 217 q 401 35 281 35 q 629 158 536 35 l 668 111 m 401 688 q 252 635 313 688 q 165 494 192 583 l 586 494 l 586 501 q 559 605 586 563 q 490 667 532 647 q 401 688 447 688 z "},"é":{"ha":738,"x_min":69,"x_max":668,"o":"m 69 0 m 668 111 q 554 11 621 50 q 401 -28 488 -28 q 218 25 293 -28 q 106 166 143 78 q 69 360 69 254 q 106 555 69 467 q 218 697 143 643 q 401 750 293 750 q 531 720 471 750 q 626 633 590 690 q 663 500 663 576 q 656 433 663 472 l 153 433 q 147 361 147 401 q 214 126 147 217 q 401 35 281 35 q 629 158 536 35 l 668 111 m 401 688 q 252 635 313 688 q 165 494 192 583 l 586 494 l 586 501 q 559 605 586 563 q 490 667 532 647 q 401 688 447 688 m 488 1114 l 567 1114 l 414 819 l 353 819 l 488 1114 z "},"ě":{"ha":738,"x_min":69,"x_max":668,"o":"m 69 0 m 668 111 q 554 11 621 50 q 401 -28 488 -28 q 218 25 293 -28 q 106 166 143 78 q 69 360 69 254 q 106 555 69 467 q 218 697 143 643 q 401 750 293 750 q 531 720 471 750 q 626 633 590 690 q 663 500 663 576 q 656 433 663 472 l 153 433 q 147 361 147 401 q 214 126 147 217 q 401 35 281 35 q 629 158 536 35 l 668 111 m 401 688 q 252 635 313 688 q 165 494 192 583 l 586 494 l 586 501 q 559 605 586 563 q 490 667 532 647 q 401 688 447 688 m 568 1111 l 422 819 l 350 819 l 204 1111 l 265 1111 l 386 881 l 507 1111 l 568 1111 z "},"ê":{"ha":738,"x_min":69,"x_max":668,"o":"m 69 0 m 668 111 q 554 11 621 50 q 401 -28 488 -28 q 218 25 293 -28 q 106 166 143 78 q 69 360 69 254 q 106 555 69 467 q 218 697 143 643 q 401 750 293 750 q 531 720 471 750 q 626 633 590 690 q 663 500 663 576 q 656 433 663 472 l 153 433 q 147 361 147 401 q 214 126 147 217 q 401 35 281 35 q 629 158 536 35 l 668 111 m 401 688 q 252 635 313 688 q 165 494 192 583 l 586 494 l 586 501 q 559 605 586 563 q 490 667 532 647 q 401 688 447 688 m 507 819 l 386 1050 l 265 819 l 204 819 l 350 1111 l 422 1111 l 568 819 l 507 819 z "},"ë":{"ha":738,"x_min":69,"x_max":668,"o":"m 69 0 m 668 111 q 554 11 621 50 q 401 -28 488 -28 q 218 25 293 -28 q 106 166 143 78 q 69 360 69 254 q 106 555 69 467 q 218 697 143 643 q 401 750 293 750 q 531 720 471 750 q 626 633 590 690 q 663 500 663 576 q 656 433 663 472 l 153 433 q 147 361 147 401 q 214 126 147 217 q 401 35 281 35 q 629 158 536 35 l 668 111 m 401 688 q 252 635 313 688 q 165 494 192 583 l 586 494 l 586 501 q 559 605 586 563 q 490 667 532 647 q 401 688 447 688 m 261 1003 q 223 1019 239 1003 q 207 1056 207 1035 q 223 1094 207 1078 q 261 1111 239 1111 q 301 1095 285 1111 q 317 1056 317 1079 q 300 1019 317 1035 q 261 1003 283 1003 m 511 1003 q 473 1019 489 1003 q 457 1056 457 1035 q 473 1094 457 1078 q 511 1111 489 1111 q 551 1095 535 1111 q 567 1056 567 1079 q 550 1019 567 1035 q 511 1003 533 1003 z "},"ė":{"ha":738,"x_min":69,"x_max":668,"o":"m 69 0 m 668 111 q 554 11 621 50 q 401 -28 488 -28 q 218 25 293 -28 q 106 166 143 78 q 69 360 69 254 q 106 555 69 467 q 218 697 143 643 q 401 750 293 750 q 531 720 471 750 q 626 633 590 690 q 663 500 663 576 q 656 433 663 472 l 153 433 q 147 361 147 401 q 214 126 147 217 q 401 35 281 35 q 629 158 536 35 l 668 111 m 401 688 q 252 635 313 688 q 165 494 192 583 l 586 494 l 586 501 q 559 605 586 563 q 490 667 532 647 q 401 688 447 688 m 386 1003 q 348 1019 364 1003 q 332 1056 332 1035 q 348 1094 332 1078 q 386 1111 364 1111 q 426 1095 410 1111 q 442 1056 442 1079 q 425 1019 442 1035 q 386 1003 408 1003 z "},"è":{"ha":738,"x_min":69,"x_max":668,"o":"m 69 0 m 668 111 q 554 11 621 50 q 401 -28 488 -28 q 218 25 293 -28 q 106 166 143 78 q 69 360 69 254 q 106 555 69 467 q 218 697 143 643 q 401 750 293 750 q 531 720 471 750 q 626 633 590 690 q 663 500 663 576 q 656 433 663 472 l 153 433 q 147 361 147 401 q 214 126 147 217 q 401 35 281 35 q 629 158 536 35 l 668 111 m 401 688 q 252 635 313 688 q 165 494 192 583 l 586 494 l 586 501 q 559 605 586 563 q 490 667 532 647 q 401 688 447 688 m 203 1111 l 282 1111 l 417 819 l 356 819 l 203 1111 z "},"ē":{"ha":738,"x_min":69,"x_max":668,"o":"m 69 0 m 668 111 q 554 11 621 50 q 401 -28 488 -28 q 218 25 293 -28 q 106 166 143 78 q 69 360 69 254 q 106 555 69 467 q 218 697 143 643 q 401 750 293 750 q 531 720 471 750 q 626 633 590 690 q 663 500 663 576 q 656 433 663 472 l 153 433 q 147 361 147 401 q 214 126 147 217 q 401 35 281 35 q 629 158 536 35 l 668 111 m 401 688 q 252 635 313 688 q 165 494 192 583 l 586 494 l 586 501 q 559 605 586 563 q 490 667 532 647 q 401 688 447 688 m 192 1086 l 581 1086 l 581 1028 l 192 1028 l 192 1086 z "},"ę":{"ha":738,"x_min":69,"x_max":668,"o":"m 544 6 q 439 -106 472 -57 q 406 -200 406 -154 q 424 -251 406 -233 q 472 -269 442 -269 q 558 -226 517 -269 l 594 -261 q 468 -328 542 -328 q 375 -295 410 -328 q 340 -204 340 -262 q 432 -26 340 -118 q 401 -28 422 -28 q 218 25 293 -28 q 106 166 143 78 q 69 360 69 254 q 106 555 69 467 q 218 697 143 643 q 401 750 293 750 q 531 720 471 750 q 626 633 590 690 q 663 500 663 576 q 656 433 663 472 l 153 433 q 147 361 147 401 q 214 126 147 217 q 401 35 281 35 q 629 158 536 35 l 668 111 q 544 6 618 43 m 401 688 q 252 635 313 688 q 165 494 192 583 l 586 494 l 586 501 q 559 605 586 563 q 490 667 532 647 q 401 688 447 688 z "},"f":{"ha":533,"x_min":104,"x_max":522,"o":"m 297 722 l 519 722 l 519 661 l 297 661 l 297 0 l 222 0 l 222 661 l 104 661 l 104 694 l 222 719 l 222 807 q 456 1111 222 1111 q 522 1100 489 1111 l 507 1039 q 456 1046 482 1046 q 334 988 371 1046 q 297 804 297 929 l 297 722 z "},"g":{"ha":736,"x_min":56,"x_max":718,"o":"m 718 661 l 542 674 q 599 515 599 611 q 571 396 599 450 q 488 309 543 342 q 350 276 432 276 q 254 290 300 276 q 181 219 200 244 q 161 163 161 194 q 187 114 161 128 q 268 100 213 100 l 517 100 q 656 53 607 100 q 706 -72 706 6 q 655 -209 706 -147 q 515 -306 604 -271 q 317 -342 426 -342 q 116 -290 176 -342 q 56 -157 56 -237 q 83 -53 56 -96 q 176 42 111 -11 q 108 85 126 56 q 90 151 90 114 q 114 227 90 192 q 197 318 138 263 q 126 401 150 350 q 101 513 101 453 q 165 682 101 614 q 350 750 229 750 q 479 722 424 750 l 718 722 l 718 661 m 350 339 q 476 388 431 339 q 521 514 521 438 q 476 639 521 590 q 350 688 431 688 q 225 638 271 688 q 179 514 179 589 q 224 388 179 438 q 350 339 269 339 m 636 -81 q 514 31 636 31 l 268 31 l 253 31 q 158 -58 189 -18 q 126 -153 126 -99 q 176 -250 126 -221 q 317 -279 226 -279 q 480 -250 407 -279 q 594 -174 553 -221 q 636 -81 636 -128 z "},"ğ":{"ha":736,"x_min":56,"x_max":718,"o":"m 56 0 m 718 661 l 542 674 q 599 515 599 611 q 571 396 599 450 q 488 309 543 342 q 350 276 432 276 q 254 290 300 276 q 181 219 200 244 q 161 163 161 194 q 187 114 161 128 q 268 100 213 100 l 517 100 q 656 53 607 100 q 706 -72 706 6 q 655 -209 706 -147 q 515 -306 604 -271 q 317 -342 426 -342 q 116 -290 176 -342 q 56 -157 56 -237 q 83 -53 56 -96 q 176 42 111 -11 q 108 85 126 56 q 90 151 90 114 q 114 227 90 192 q 197 318 138 263 q 126 401 150 350 q 101 513 101 453 q 165 682 101 614 q 350 750 229 750 q 479 722 424 750 l 718 722 l 718 661 m 350 339 q 476 388 431 339 q 521 514 521 438 q 476 639 521 590 q 350 688 431 688 q 225 638 271 688 q 179 514 179 589 q 224 388 179 438 q 350 339 269 339 m 636 -81 q 514 31 636 31 l 268 31 l 253 31 q 158 -58 189 -18 q 126 -153 126 -99 q 176 -250 126 -221 q 317 -279 226 -279 q 480 -250 407 -279 q 594 -174 553 -221 q 636 -81 636 -128 m 368 858 q 238 916 285 858 q 188 1074 190 974 l 239 1076 q 277 949 243 992 q 368 907 311 907 q 459 949 425 907 q 497 1076 493 992 l 549 1074 q 499 916 546 974 q 368 858 451 858 z "},"ģ":{"ha":736,"x_min":56,"x_max":718,"o":"m 56 0 m 718 661 l 542 674 q 599 515 599 611 q 571 396 599 450 q 488 309 543 342 q 350 276 432 276 q 254 290 300 276 q 181 219 200 244 q 161 163 161 194 q 187 114 161 128 q 268 100 213 100 l 517 100 q 656 53 607 100 q 706 -72 706 6 q 655 -209 706 -147 q 515 -306 604 -271 q 317 -342 426 -342 q 116 -290 176 -342 q 56 -157 56 -237 q 83 -53 56 -96 q 176 42 111 -11 q 108 85 126 56 q 90 151 90 114 q 114 227 90 192 q 197 318 138 263 q 126 401 150 350 q 101 513 101 453 q 165 682 101 614 q 350 750 229 750 q 479 722 424 750 l 718 722 l 718 661 m 350 339 q 476 388 431 339 q 521 514 521 438 q 476 639 521 590 q 350 688 431 688 q 225 638 271 688 q 179 514 179 589 q 224 388 179 438 q 350 339 269 339 m 636 -81 q 514 31 636 31 l 268 31 l 253 31 q 158 -58 189 -18 q 126 -153 126 -99 q 176 -250 126 -221 q 317 -279 226 -279 q 480 -250 407 -279 q 594 -174 553 -221 q 636 -81 636 -128 m 401 856 q 315 890 342 864 q 288 954 288 917 q 419 1089 288 1043 l 447 1049 q 373 1006 393 1026 q 353 957 353 986 q 369 925 353 938 q 422 906 385 913 l 401 856 z "},"h":{"ha":799,"x_min":139,"x_max":667,"o":"m 475 750 q 626 694 585 750 q 667 529 667 638 l 667 0 l 592 0 l 592 526 q 563 647 592 608 q 464 685 533 685 q 347 657 407 685 q 214 569 286 629 l 214 0 l 139 0 l 139 1111 l 214 1111 l 214 640 q 475 750 350 750 z "},"ħ":{"ha":799,"x_min":0,"x_max":667,"o":"m 475 750 q 626 694 585 750 q 667 529 667 638 l 667 0 l 592 0 l 592 526 q 563 647 592 608 q 464 685 533 685 q 347 657 407 685 q 214 569 286 629 l 214 0 l 139 0 l 139 874 l 0 874 l 0 932 l 139 932 l 139 1111 l 214 1111 l 214 932 l 432 932 l 432 874 l 214 874 l 214 640 q 475 750 350 750 z "},"i":{"ha":376,"x_min":133,"x_max":243,"o":"m 188 1003 q 149 1019 165 1003 q 133 1056 133 1035 q 149 1094 133 1078 q 188 1111 165 1111 q 227 1095 211 1111 q 243 1056 243 1079 q 226 1019 243 1035 q 188 1003 210 1003 m 150 722 l 225 722 l 225 0 l 150 0 l 150 722 z "},"ı":{"ha":376,"x_min":150,"x_max":225,"o":"m 150 722 l 225 722 l 225 0 l 150 0 l 150 722 z "},"í":{"ha":376,"x_min":150,"x_max":369,"o":"m 150 0 m 150 722 l 225 722 l 225 0 l 150 0 l 150 722 m 290 1114 l 369 1114 l 217 819 l 156 819 l 290 1114 z "},"î":{"ha":376,"x_min":7,"x_max":371,"o":"m 7 0 m 150 722 l 225 722 l 225 0 l 150 0 l 150 722 m 310 819 l 189 1050 l 68 819 l 7 819 l 153 1111 l 225 1111 l 371 819 l 310 819 z "},"ï":{"ha":376,"x_min":10,"x_max":369,"o":"m 10 0 m 150 722 l 225 722 l 225 0 l 150 0 l 150 722 m 64 1003 q 26 1019 42 1003 q 10 1056 10 1035 q 26 1094 10 1078 q 64 1111 42 1111 q 103 1095 88 1111 q 119 1056 119 1079 q 103 1019 119 1035 q 64 1003 86 1003 m 314 1003 q 276 1019 292 1003 q 260 1056 260 1035 q 276 1094 260 1078 q 314 1111 292 1111 q 353 1095 338 1111 q 369 1056 369 1079 q 353 1019 369 1035 q 314 1003 336 1003 z "},"ì":{"ha":376,"x_min":6,"x_max":225,"o":"m 6 0 m 150 722 l 225 722 l 225 0 l 150 0 l 150 722 m 6 1111 l 85 1111 l 219 819 l 158 819 l 6 1111 z "},"ĳ":{"ha":729,"x_min":133,"x_max":613,"o":"m 133 0 m 188 1003 q 149 1019 165 1003 q 133 1056 133 1035 q 149 1094 133 1078 q 188 1111 165 1111 q 227 1095 211 1111 q 243 1056 243 1079 q 226 1019 243 1035 q 188 1003 210 1003 m 150 722 l 225 722 l 225 0 l 150 0 l 150 722 m 557 1003 q 519 1019 535 1003 q 503 1056 503 1035 q 519 1094 503 1078 q 557 1111 535 1111 q 597 1095 581 1111 q 613 1056 613 1079 q 596 1019 613 1035 q 557 1003 579 1003 m 357 -340 q 290 -329 324 -340 l 306 -268 q 357 -275 331 -275 q 478 -217 442 -275 q 515 -33 515 -158 l 515 722 l 590 722 l 590 -36 q 357 -340 590 -340 z "},"ī":{"ha":376,"x_min":-6,"x_max":383,"o":"m 0 0 m 150 722 l 225 722 l 225 0 l 150 0 l 150 722 m -6 1086 l 383 1086 l 383 1028 l -6 1028 l -6 1086 z "},"į":{"ha":376,"x_min":6,"x_max":260,"o":"m 188 1003 q 149 1019 165 1003 q 133 1056 133 1035 q 149 1094 133 1078 q 188 1111 165 1111 q 227 1095 211 1111 q 243 1056 243 1079 q 226 1019 243 1035 q 188 1003 210 1003 m 260 -261 q 133 -328 207 -328 q 40 -295 75 -328 q 6 -204 6 -262 q 150 19 6 -97 l 150 722 l 225 722 l 225 21 l 228 21 l 225 18 l 225 0 l 204 0 q 103 -107 135 -60 q 71 -200 71 -154 q 89 -251 71 -233 q 138 -269 107 -269 q 224 -226 182 -269 l 260 -261 z "},"ĩ":{"ha":376,"x_min":-26,"x_max":404,"o":"m 0 0 m 150 722 l 225 722 l 225 0 l 150 0 l 150 722 m -26 882 q 12 1013 -19 967 q 99 1058 43 1058 q 159 1040 136 1058 q 207 986 182 1021 q 243 945 228 958 q 279 932 258 932 q 326 960 311 932 q 350 1058 342 989 l 404 1053 q 366 922 397 968 q 279 876 335 876 q 217 895 240 876 q 165 951 194 914 q 132 990 146 978 q 99 1003 118 1003 q 51 974 67 1003 q 28 876 36 946 l -26 882 z "},"j":{"ha":353,"x_min":-86,"x_max":236,"o":"m 181 1003 q 142 1019 158 1003 q 126 1056 126 1035 q 142 1094 126 1078 q 181 1111 158 1111 q 220 1095 204 1111 q 236 1056 236 1079 q 219 1019 236 1035 q 181 1003 203 1003 m -19 -340 q -86 -329 -53 -340 l -71 -268 q -19 -275 -46 -275 q 102 -217 65 -275 q 139 -33 139 -158 l 139 722 l 214 722 l 214 -36 q -19 -340 214 -340 z "},"ȷ":{"ha":353,"x_min":-86,"x_max":214,"o":"m -19 -340 q -86 -329 -53 -340 l -71 -268 q -19 -275 -46 -275 q 102 -217 65 -275 q 139 -33 139 -158 l 139 722 l 214 722 l 214 -36 q -19 -340 214 -340 z "},"ĵ":{"ha":353,"x_min":-86,"x_max":358,"o":"m 0 0 m -19 -340 q -86 -329 -53 -340 l -71 -268 q -19 -275 -46 -275 q 102 -217 65 -275 q 139 -33 139 -158 l 139 722 l 214 722 l 214 -36 q -19 -340 214 -340 m 297 819 l 176 1050 l 56 819 l -6 819 l 140 1111 l 213 1111 l 358 819 l 297 819 z "},"k":{"ha":736,"x_min":139,"x_max":694,"o":"m 139 1111 l 214 1111 l 214 0 l 139 0 l 139 1111 m 694 0 l 601 0 l 257 382 l 257 410 l 553 722 l 640 722 l 333 400 l 694 0 z "},"ķ":{"ha":736,"x_min":139,"x_max":694,"o":"m 139 0 m 139 1111 l 214 1111 l 214 0 l 139 0 l 139 1111 m 694 0 l 601 0 l 257 382 l 257 410 l 553 722 l 640 722 l 333 400 l 694 0 m 296 -287 q 370 -245 350 -265 q 390 -196 390 -225 q 374 -164 390 -176 q 321 -144 358 -151 l 342 -94 q 428 -129 401 -103 q 456 -193 456 -156 q 324 -328 456 -282 l 296 -287 z "},"ĸ":{"ha":867,"x_min":139,"x_max":694,"o":"m 139 722 l 214 722 l 214 0 l 139 0 l 139 722 m 694 0 l 601 0 l 257 382 l 257 410 l 553 722 l 640 722 l 333 400 l 694 0 z "},"l":{"ha":353,"x_min":139,"x_max":214,"o":"m 139 1111 l 214 1111 l 214 0 l 139 0 l 139 1111 z "},"ĺ":{"ha":353,"x_min":139,"x_max":358,"o":"m 139 0 m 139 1111 l 214 1111 l 214 0 l 139 0 l 139 1111 m 279 1433 l 358 1433 l 206 1139 l 144 1139 l 279 1433 z "},"ľ":{"ha":353,"x_min":139,"x_max":410,"o":"m 139 0 m 139 1111 l 214 1111 l 214 0 l 139 0 l 139 1111 m 258 851 q 347 1028 347 908 q 333 1111 347 1063 l 397 1111 q 410 1026 410 1068 q 376 897 410 956 q 289 811 343 839 l 258 851 z "},"ļ":{"ha":353,"x_min":104,"x_max":264,"o":"m 104 0 m 139 1111 l 214 1111 l 214 0 l 139 0 l 139 1111 m 104 -287 q 178 -245 158 -265 q 199 -196 199 -225 q 183 -164 199 -176 q 129 -144 167 -151 l 150 -94 q 237 -129 210 -103 q 264 -193 264 -156 q 132 -328 264 -282 l 104 -287 z "},"ŀ":{"ha":353,"x_min":139,"x_max":411,"o":"m 139 0 m 139 1111 l 214 1111 l 214 0 l 139 0 l 139 1111 m 351 308 q 310 326 328 308 q 293 367 293 343 q 310 408 293 390 q 351 426 328 426 q 394 408 376 426 q 411 367 411 390 q 394 326 411 343 q 351 308 376 308 z "},"ł":{"ha":353,"x_min":-15,"x_max":368,"o":"m 214 547 l 214 0 l 139 0 l 139 493 l 18 407 l -15 454 l 139 564 l 139 1111 l 214 1111 l 214 618 l 335 704 l 368 657 l 214 547 z "},"m":{"ha":1196,"x_min":139,"x_max":1064,"o":"m 886 750 q 1026 694 988 750 q 1064 529 1064 638 l 1064 0 l 989 0 l 989 526 q 963 647 989 608 q 875 685 936 685 q 768 657 822 685 q 638 568 714 629 q 639 529 639 556 l 639 0 l 564 0 l 564 526 q 538 647 564 608 q 450 685 511 685 q 343 657 399 685 q 214 569 288 629 l 214 0 l 139 0 l 139 722 l 200 722 l 211 638 q 461 750 346 750 q 575 719 535 750 q 629 632 615 689 q 886 750 767 750 z "},"n":{"ha":799,"x_min":139,"x_max":667,"o":"m 475 750 q 626 694 585 750 q 667 529 667 638 l 667 0 l 592 0 l 592 526 q 563 647 592 608 q 464 685 533 685 q 347 657 407 685 q 214 569 286 629 l 214 0 l 139 0 l 139 722 l 200 722 l 211 638 q 475 750 344 750 z "},"ń":{"ha":799,"x_min":139,"x_max":667,"o":"m 139 0 m 475 750 q 626 694 585 750 q 667 529 667 638 l 667 0 l 592 0 l 592 526 q 563 647 592 608 q 464 685 533 685 q 347 657 407 685 q 214 569 286 629 l 214 0 l 139 0 l 139 722 l 200 722 l 211 638 q 475 750 344 750 m 501 1114 l 581 1114 l 428 819 l 367 819 l 501 1114 z "},"ň":{"ha":799,"x_min":139,"x_max":667,"o":"m 139 0 m 475 750 q 626 694 585 750 q 667 529 667 638 l 667 0 l 592 0 l 592 526 q 563 647 592 608 q 464 685 533 685 q 347 657 407 685 q 214 569 286 629 l 214 0 l 139 0 l 139 722 l 200 722 l 211 638 q 475 750 344 750 m 582 1111 l 436 819 l 364 819 l 218 1111 l 279 1111 l 400 881 l 521 1111 l 582 1111 z "},"ņ":{"ha":799,"x_min":139,"x_max":667,"o":"m 139 0 m 475 750 q 626 694 585 750 q 667 529 667 638 l 667 0 l 592 0 l 592 526 q 563 647 592 608 q 464 685 533 685 q 347 657 407 685 q 214 569 286 629 l 214 0 l 139 0 l 139 722 l 200 722 l 211 638 q 475 750 344 750 m 328 -287 q 402 -245 382 -265 q 422 -196 422 -225 q 406 -164 422 -176 q 353 -144 390 -151 l 374 -94 q 460 -129 433 -103 q 488 -193 488 -156 q 356 -328 488 -282 l 328 -287 z "},"ñ":{"ha":799,"x_min":139,"x_max":667,"o":"m 139 0 m 475 750 q 626 694 585 750 q 667 529 667 638 l 667 0 l 592 0 l 592 526 q 563 647 592 608 q 464 685 533 685 q 347 657 407 685 q 214 569 286 629 l 214 0 l 139 0 l 139 722 l 200 722 l 211 638 q 475 750 344 750 m 185 882 q 223 1013 192 967 q 310 1058 254 1058 q 370 1040 347 1058 q 418 986 393 1021 q 454 945 439 958 q 490 932 469 932 q 538 960 522 932 q 561 1058 553 989 l 615 1053 q 577 922 608 968 q 490 876 546 876 q 428 895 451 876 q 376 951 406 914 q 343 990 357 978 q 310 1003 329 1003 q 263 974 278 1003 q 239 876 247 946 l 185 882 z "},"o":{"ha":803,"x_min":69,"x_max":733,"o":"m 401 -28 q 218 25 293 -28 q 106 166 143 78 q 69 360 69 254 q 106 555 69 467 q 218 697 143 643 q 401 750 293 750 q 585 697 510 750 q 697 556 660 644 q 733 363 733 468 q 697 167 733 256 q 585 25 660 78 q 401 -28 510 -28 m 401 35 q 589 126 522 35 q 656 361 656 217 q 588 596 656 504 q 401 688 521 688 q 215 596 282 688 q 147 361 147 504 q 214 126 147 217 q 401 35 281 35 z "},"ó":{"ha":803,"x_min":69,"x_max":733,"o":"m 69 0 m 401 -28 q 218 25 293 -28 q 106 166 143 78 q 69 360 69 254 q 106 555 69 467 q 218 697 143 643 q 401 750 293 750 q 585 697 510 750 q 697 556 660 644 q 733 363 733 468 q 697 167 733 256 q 585 25 660 78 q 401 -28 510 -28 m 401 35 q 589 126 522 35 q 656 361 656 217 q 588 596 656 504 q 401 688 521 688 q 215 596 282 688 q 147 361 147 504 q 214 126 147 217 q 401 35 281 35 m 503 1114 l 582 1114 l 429 819 l 368 819 l 503 1114 z "},"ô":{"ha":803,"x_min":69,"x_max":733,"o":"m 69 0 m 401 -28 q 218 25 293 -28 q 106 166 143 78 q 69 360 69 254 q 106 555 69 467 q 218 697 143 643 q 401 750 293 750 q 585 697 510 750 q 697 556 660 644 q 733 363 733 468 q 697 167 733 256 q 585 25 660 78 q 401 -28 510 -28 m 401 35 q 589 126 522 35 q 656 361 656 217 q 588 596 656 504 q 401 688 521 688 q 215 596 282 688 q 147 361 147 504 q 214 126 147 217 q 401 35 281 35 m 522 819 l 401 1050 l 281 819 l 219 819 l 365 1111 l 438 1111 l 583 819 l 522 819 z "},"ö":{"ha":803,"x_min":69,"x_max":733,"o":"m 69 0 m 401 -28 q 218 25 293 -28 q 106 166 143 78 q 69 360 69 254 q 106 555 69 467 q 218 697 143 643 q 401 750 293 750 q 585 697 510 750 q 697 556 660 644 q 733 363 733 468 q 697 167 733 256 q 585 25 660 78 q 401 -28 510 -28 m 401 35 q 589 126 522 35 q 656 361 656 217 q 588 596 656 504 q 401 688 521 688 q 215 596 282 688 q 147 361 147 504 q 214 126 147 217 q 401 35 281 35 m 276 1003 q 238 1019 254 1003 q 222 1056 222 1035 q 238 1094 222 1078 q 276 1111 254 1111 q 316 1095 300 1111 q 332 1056 332 1079 q 315 1019 332 1035 q 276 1003 299 1003 m 526 1003 q 488 1019 504 1003 q 472 1056 472 1035 q 488 1094 472 1078 q 526 1111 504 1111 q 566 1095 550 1111 q 582 1056 582 1079 q 565 1019 582 1035 q 526 1003 549 1003 z "},"ò":{"ha":803,"x_min":69,"x_max":733,"o":"m 69 0 m 401 -28 q 218 25 293 -28 q 106 166 143 78 q 69 360 69 254 q 106 555 69 467 q 218 697 143 643 q 401 750 293 750 q 585 697 510 750 q 697 556 660 644 q 733 363 733 468 q 697 167 733 256 q 585 25 660 78 q 401 -28 510 -28 m 401 35 q 589 126 522 35 q 656 361 656 217 q 588 596 656 504 q 401 688 521 688 q 215 596 282 688 q 147 361 147 504 q 214 126 147 217 q 401 35 281 35 m 218 1111 l 297 1111 l 432 819 l 371 819 l 218 1111 z "},"ő":{"ha":803,"x_min":69,"x_max":733,"o":"m 69 0 m 401 -28 q 218 25 293 -28 q 106 166 143 78 q 69 360 69 254 q 106 555 69 467 q 218 697 143 643 q 401 750 293 750 q 585 697 510 750 q 697 556 660 644 q 733 363 733 468 q 697 167 733 256 q 585 25 660 78 q 401 -28 510 -28 m 401 35 q 589 126 522 35 q 656 361 656 217 q 588 596 656 504 q 401 688 521 688 q 215 596 282 688 q 147 361 147 504 q 214 126 147 217 q 401 35 281 35 m 400 1111 l 479 1111 l 326 819 l 265 819 l 400 1111 m 608 1111 l 688 1111 l 535 819 l 474 819 l 608 1111 z "},"ō":{"ha":803,"x_min":69,"x_max":733,"o":"m 69 0 m 401 -28 q 218 25 293 -28 q 106 166 143 78 q 69 360 69 254 q 106 555 69 467 q 218 697 143 643 q 401 750 293 750 q 585 697 510 750 q 697 556 660 644 q 733 363 733 468 q 697 167 733 256 q 585 25 660 78 q 401 -28 510 -28 m 401 35 q 589 126 522 35 q 656 361 656 217 q 588 596 656 504 q 401 688 521 688 q 215 596 282 688 q 147 361 147 504 q 214 126 147 217 q 401 35 281 35 m 207 1086 l 596 1086 l 596 1028 l 207 1028 l 207 1086 z "},"ø":{"ha":803,"x_min":69,"x_max":733,"o":"m 658 624 q 715 503 696 571 q 733 363 733 436 q 697 167 733 256 q 585 25 660 78 q 401 -28 510 -28 q 183 54 268 -28 l 114 -29 l 69 7 l 144 97 q 88 217 107 150 q 69 360 69 285 q 106 555 69 467 q 218 697 143 643 q 401 750 293 750 q 621 667 535 750 l 690 750 l 733 714 l 658 624 m 147 361 q 194 157 147 240 l 575 613 q 401 688 508 688 q 215 596 282 688 q 147 361 147 504 m 656 361 q 608 564 656 483 l 229 108 q 401 35 296 35 q 589 126 522 35 q 656 361 656 217 z "},"õ":{"ha":803,"x_min":69,"x_max":733,"o":"m 69 0 m 401 -28 q 218 25 293 -28 q 106 166 143 78 q 69 360 69 254 q 106 555 69 467 q 218 697 143 643 q 401 750 293 750 q 585 697 510 750 q 697 556 660 644 q 733 363 733 468 q 697 167 733 256 q 585 25 660 78 q 401 -28 510 -28 m 401 35 q 589 126 522 35 q 656 361 656 217 q 588 596 656 504 q 401 688 521 688 q 215 596 282 688 q 147 361 147 504 q 214 126 147 217 q 401 35 281 35 m 186 882 q 224 1013 193 967 q 311 1058 256 1058 q 372 1040 349 1058 q 419 986 394 1021 q 456 945 440 958 q 492 932 471 932 q 539 960 524 932 q 563 1058 554 989 l 617 1053 q 578 922 610 968 q 492 876 547 876 q 430 895 453 876 q 378 951 407 914 q 344 990 358 978 q 311 1003 331 1003 q 264 974 279 1003 q 240 876 249 946 l 186 882 z "},"œ":{"ha":1324,"x_min":69,"x_max":1254,"o":"m 1254 115 q 988 -28 1146 -28 q 808 24 882 -28 q 694 163 733 75 q 581 23 656 74 q 401 -28 507 -28 q 218 25 293 -28 q 106 166 143 78 q 69 360 69 254 q 106 555 69 467 q 218 697 143 643 q 401 750 293 750 q 581 699 507 750 q 694 560 656 647 q 808 699 735 647 q 988 750 882 750 q 1117 720 1057 750 q 1213 633 1176 690 q 1249 500 1249 576 q 1242 433 1249 472 l 739 433 q 733 361 733 401 q 800 126 733 217 q 988 35 867 35 q 1215 163 1118 35 l 1254 115 m 401 35 q 589 126 522 35 q 656 361 656 217 q 588 596 656 504 q 401 688 521 688 q 215 596 282 688 q 147 361 147 504 q 214 126 147 217 q 401 35 281 35 m 988 688 q 838 635 899 688 q 751 494 778 583 l 1172 494 l 1172 501 q 1145 605 1172 563 q 1076 667 1118 647 q 988 688 1033 688 z "},"p":{"ha":785,"x_min":139,"x_max":715,"o":"m 433 750 q 581 706 517 750 q 680 580 644 663 q 715 383 715 497 q 672 158 715 250 q 549 19 628 65 q 367 -28 471 -28 q 214 7 283 -28 l 214 -329 l 139 -329 l 139 726 l 200 726 l 208 660 q 310 726 253 701 q 433 750 367 750 m 365 35 q 570 130 503 35 q 638 383 638 225 q 608 557 638 489 q 533 655 579 625 q 433 685 486 685 q 322 665 369 685 q 214 599 274 646 l 214 72 q 365 35 275 35 z "},"þ":{"ha":785,"x_min":139,"x_max":715,"o":"m 433 750 q 581 706 517 750 q 680 580 644 663 q 715 383 715 497 q 672 158 715 250 q 549 19 628 65 q 367 -28 471 -28 q 214 7 283 -28 l 214 -329 l 139 -329 l 139 1111 l 214 1111 l 214 664 q 433 750 310 750 m 365 35 q 570 130 503 35 q 638 383 638 225 q 608 557 638 489 q 533 655 579 625 q 433 685 486 685 q 322 665 369 685 q 214 599 274 646 l 214 72 q 365 35 275 35 z "},"q":{"ha":785,"x_min":69,"x_max":646,"o":"m 646 726 l 646 -329 l 571 -329 l 571 60 q 351 -28 474 -28 q 204 16 268 -28 q 105 143 140 60 q 69 340 69 226 q 113 565 69 472 q 236 703 157 657 q 418 750 315 750 q 594 703 513 750 l 613 726 l 646 726 m 351 38 q 463 58 415 38 q 571 125 510 78 l 571 651 q 419 688 513 688 q 215 592 282 688 q 147 340 147 497 q 176 165 147 233 q 252 67 206 97 q 351 38 299 38 z "},"r":{"ha":517,"x_min":139,"x_max":475,"o":"m 214 617 q 344 719 282 689 q 475 750 407 750 l 475 682 q 349 652 410 682 q 214 542 289 622 l 214 0 l 139 0 l 139 722 l 200 722 l 214 617 z "},"ŕ":{"ha":517,"x_min":139,"x_max":476,"o":"m 139 0 m 214 617 q 344 719 282 689 q 475 750 407 750 l 475 682 q 349 652 410 682 q 214 542 289 622 l 214 0 l 139 0 l 139 722 l 200 722 l 214 617 m 397 1114 l 476 1114 l 324 819 l 263 819 l 397 1114 z "},"ř":{"ha":517,"x_min":114,"x_max":478,"o":"m 114 0 m 214 617 q 344 719 282 689 q 475 750 407 750 l 475 682 q 349 652 410 682 q 214 542 289 622 l 214 0 l 139 0 l 139 722 l 200 722 l 214 617 m 478 1111 l 332 819 l 260 819 l 114 1111 l 175 1111 l 296 881 l 417 1111 l 478 1111 z "},"ŗ":{"ha":517,"x_min":100,"x_max":475,"o":"m 100 0 m 214 617 q 344 719 282 689 q 475 750 407 750 l 475 682 q 349 652 410 682 q 214 542 289 622 l 214 0 l 139 0 l 139 722 l 200 722 l 214 617 m 100 -287 q 174 -245 154 -265 q 194 -196 194 -225 q 178 -164 194 -176 q 125 -144 163 -151 l 146 -94 q 233 -129 206 -103 q 260 -193 260 -156 q 128 -328 260 -282 l 100 -287 z "},"s":{"ha":642,"x_min":69,"x_max":572,"o":"m 325 -28 q 180 -9 238 -28 q 69 50 122 10 l 103 108 q 325 35 183 35 q 451 76 403 35 q 500 188 500 117 q 476 257 500 229 q 419 301 453 285 q 322 342 385 318 q 208 390 253 367 q 132 453 163 413 q 101 557 101 494 q 165 700 101 650 q 324 750 228 750 q 449 731 394 750 q 556 672 504 711 l 522 614 q 431 669 482 650 q 324 688 379 688 q 216 655 258 688 q 174 558 174 622 q 197 489 174 517 q 255 444 221 461 q 351 404 289 428 q 467 355 424 378 q 542 292 511 332 q 572 188 572 251 q 502 31 572 90 q 325 -28 432 -28 z "},"ś":{"ha":642,"x_min":69,"x_max":572,"o":"m 69 0 m 325 -28 q 180 -9 238 -28 q 69 50 122 10 l 103 108 q 325 35 183 35 q 451 76 403 35 q 500 188 500 117 q 476 257 500 229 q 419 301 453 285 q 322 342 385 318 q 208 390 253 367 q 132 453 163 413 q 101 557 101 494 q 165 700 101 650 q 324 750 228 750 q 449 731 394 750 q 556 672 504 711 l 522 614 q 431 669 482 650 q 324 688 379 688 q 216 655 258 688 q 174 558 174 622 q 197 489 174 517 q 255 444 221 461 q 351 404 289 428 q 467 355 424 378 q 542 292 511 332 q 572 188 572 251 q 502 31 572 90 q 325 -28 432 -28 m 422 1114 l 501 1114 l 349 819 l 288 819 l 422 1114 z "},"š":{"ha":642,"x_min":69,"x_max":572,"o":"m 69 0 m 325 -28 q 180 -9 238 -28 q 69 50 122 10 l 103 108 q 325 35 183 35 q 451 76 403 35 q 500 188 500 117 q 476 257 500 229 q 419 301 453 285 q 322 342 385 318 q 208 390 253 367 q 132 453 163 413 q 101 557 101 494 q 165 700 101 650 q 324 750 228 750 q 449 731 394 750 q 556 672 504 711 l 522 614 q 431 669 482 650 q 324 688 379 688 q 216 655 258 688 q 174 558 174 622 q 197 489 174 517 q 255 444 221 461 q 351 404 289 428 q 467 355 424 378 q 542 292 511 332 q 572 188 572 251 q 502 31 572 90 q 325 -28 432 -28 m 503 1111 l 357 819 l 285 819 l 139 1111 l 200 1111 l 321 881 l 442 1111 l 503 1111 z "},"ş":{"ha":642,"x_min":69,"x_max":572,"o":"m 572 188 q 507 36 572 94 q 342 -28 442 -22 l 299 -108 q 346 -100 326 -100 q 410 -122 385 -100 q 435 -178 435 -143 q 397 -260 435 -225 q 278 -328 360 -296 l 250 -289 q 344 -234 319 -257 q 369 -186 369 -211 q 328 -151 369 -151 q 272 -167 303 -151 l 229 -129 l 285 -26 q 165 -4 214 -22 q 69 50 115 14 l 103 108 q 325 35 183 35 q 451 76 403 35 q 500 188 500 117 q 476 257 500 229 q 419 301 453 285 q 322 342 385 318 q 208 390 253 367 q 132 453 163 413 q 101 557 101 494 q 165 700 101 650 q 324 750 228 750 q 449 731 394 750 q 556 672 504 711 l 522 614 q 431 669 482 650 q 324 688 379 688 q 216 655 258 688 q 174 558 174 622 q 197 489 174 517 q 255 444 221 461 q 351 404 289 428 q 467 355 424 378 q 542 292 511 332 q 572 188 572 251 z "},"ș":{"ha":642,"x_min":69,"x_max":572,"o":"m 69 0 m 325 -28 q 180 -9 238 -28 q 69 50 122 10 l 103 108 q 325 35 183 35 q 451 76 403 35 q 500 188 500 117 q 476 257 500 229 q 419 301 453 285 q 322 342 385 318 q 208 390 253 367 q 132 453 163 413 q 101 557 101 494 q 165 700 101 650 q 324 750 228 750 q 449 731 394 750 q 556 672 504 711 l 522 614 q 431 669 482 650 q 324 688 379 688 q 216 655 258 688 q 174 558 174 622 q 197 489 174 517 q 255 444 221 461 q 351 404 289 428 q 467 355 424 378 q 542 292 511 332 q 572 188 572 251 q 502 31 572 90 q 325 -28 432 -28 m 253 -287 q 327 -245 307 -265 q 347 -196 347 -225 q 331 -164 347 -176 q 278 -144 315 -151 l 299 -94 q 385 -129 358 -103 q 413 -193 413 -156 q 281 -328 413 -282 l 253 -287 z "},"ß":{"ha":781,"x_min":139,"x_max":711,"o":"m 483 -28 q 306 26 378 -28 l 339 85 q 483 35 399 35 q 594 76 549 35 q 639 188 639 117 q 620 263 639 232 q 575 315 601 294 q 501 364 549 335 q 422 416 451 393 q 372 475 393 439 q 351 564 351 511 q 383 667 351 628 q 475 750 414 706 q 561 826 533 793 q 589 914 589 860 q 547 1012 589 978 q 425 1046 504 1046 q 266 986 318 1046 q 214 804 214 926 l 214 0 l 139 0 l 139 807 q 213 1032 139 953 q 425 1111 286 1111 q 601 1058 538 1111 q 664 910 664 1004 q 646 827 664 863 q 601 767 628 792 q 532 713 575 743 q 450 642 476 672 q 424 565 424 611 q 440 506 424 531 q 478 464 456 481 q 544 422 501 447 q 631 367 597 393 q 688 297 664 340 q 711 188 711 253 q 680 74 711 122 q 597 -1 649 25 q 483 -28 544 -28 z "},"t":{"ha":561,"x_min":49,"x_max":508,"o":"m 508 18 q 440 -12 471 -3 q 375 -21 410 -21 q 167 229 167 -21 l 167 661 l 49 661 l 49 694 l 172 721 l 194 886 l 242 886 l 242 722 l 464 722 l 464 661 l 242 661 l 242 232 q 272 90 242 135 q 375 44 303 44 q 431 52 407 44 q 493 79 454 60 l 508 18 z "},"ť":{"ha":561,"x_min":49,"x_max":508,"o":"m 49 0 m 508 18 q 440 -12 471 -3 q 375 -21 410 -21 q 167 229 167 -21 l 167 661 l 49 661 l 49 694 l 172 721 l 194 886 l 242 886 l 242 722 l 464 722 l 464 661 l 242 661 l 242 232 q 272 90 242 135 q 375 44 303 44 q 431 52 407 44 q 493 79 454 60 l 508 18 m 286 851 q 375 1028 375 908 q 361 1111 375 1063 l 425 1111 q 438 1026 438 1068 q 404 897 438 956 q 317 811 371 839 l 286 851 z "},"ț":{"ha":561,"x_min":49,"x_max":508,"o":"m 49 0 m 508 18 q 440 -12 471 -3 q 375 -21 410 -21 q 167 229 167 -21 l 167 661 l 49 661 l 49 694 l 172 721 l 194 886 l 242 886 l 242 722 l 464 722 l 464 661 l 242 661 l 242 232 q 272 90 242 135 q 375 44 303 44 q 431 52 407 44 q 493 79 454 60 l 508 18 m 283 -287 q 358 -245 338 -265 q 378 -196 378 -225 q 362 -164 378 -176 q 308 -144 346 -151 l 329 -94 q 416 -129 389 -103 q 443 -193 443 -156 q 311 -328 443 -282 l 283 -287 z "},"u":{"ha":799,"x_min":132,"x_max":660,"o":"m 660 722 l 660 0 l 599 0 l 588 85 q 324 -28 454 -28 q 173 28 214 -28 q 132 193 132 85 l 132 722 l 207 722 l 207 196 q 236 76 207 114 q 335 38 265 38 q 452 65 392 38 q 585 153 513 93 l 585 722 l 660 722 z "},"ú":{"ha":799,"x_min":132,"x_max":660,"o":"m 132 0 m 660 722 l 660 0 l 599 0 l 588 85 q 324 -28 454 -28 q 173 28 214 -28 q 132 193 132 85 l 132 722 l 207 722 l 207 196 q 236 76 207 114 q 335 38 265 38 q 452 65 392 38 q 585 153 513 93 l 585 722 l 660 722 m 501 1114 l 581 1114 l 428 819 l 367 819 l 501 1114 z "},"û":{"ha":799,"x_min":132,"x_max":660,"o":"m 132 0 m 660 722 l 660 0 l 599 0 l 588 85 q 324 -28 454 -28 q 173 28 214 -28 q 132 193 132 85 l 132 722 l 207 722 l 207 196 q 236 76 207 114 q 335 38 265 38 q 452 65 392 38 q 585 153 513 93 l 585 722 l 660 722 m 521 819 l 400 1050 l 279 819 l 218 819 l 364 1111 l 436 1111 l 582 819 l 521 819 z "},"ü":{"ha":799,"x_min":132,"x_max":660,"o":"m 132 0 m 660 722 l 660 0 l 599 0 l 588 85 q 324 -28 454 -28 q 173 28 214 -28 q 132 193 132 85 l 132 722 l 207 722 l 207 196 q 236 76 207 114 q 335 38 265 38 q 452 65 392 38 q 585 153 513 93 l 585 722 l 660 722 m 275 1003 q 237 1019 253 1003 q 221 1056 221 1035 q 237 1094 221 1078 q 275 1111 253 1111 q 315 1095 299 1111 q 331 1056 331 1079 q 314 1019 331 1035 q 275 1003 297 1003 m 525 1003 q 487 1019 503 1003 q 471 1056 471 1035 q 487 1094 471 1078 q 525 1111 503 1111 q 565 1095 549 1111 q 581 1056 581 1079 q 564 1019 581 1035 q 525 1003 547 1003 z "},"ù":{"ha":799,"x_min":132,"x_max":660,"o":"m 132 0 m 660 722 l 660 0 l 599 0 l 588 85 q 324 -28 454 -28 q 173 28 214 -28 q 132 193 132 85 l 132 722 l 207 722 l 207 196 q 236 76 207 114 q 335 38 265 38 q 452 65 392 38 q 585 153 513 93 l 585 722 l 660 722 m 217 1111 l 296 1111 l 431 819 l 369 819 l 217 1111 z "},"ű":{"ha":799,"x_min":132,"x_max":686,"o":"m 132 0 m 660 722 l 660 0 l 599 0 l 588 85 q 324 -28 454 -28 q 173 28 214 -28 q 132 193 132 85 l 132 722 l 207 722 l 207 196 q 236 76 207 114 q 335 38 265 38 q 452 65 392 38 q 585 153 513 93 l 585 722 l 660 722 m 399 1111 l 478 1111 l 325 819 l 264 819 l 399 1111 m 607 1111 l 686 1111 l 533 819 l 472 819 l 607 1111 z "},"ū":{"ha":799,"x_min":132,"x_max":660,"o":"m 132 0 m 660 722 l 660 0 l 599 0 l 588 85 q 324 -28 454 -28 q 173 28 214 -28 q 132 193 132 85 l 132 722 l 207 722 l 207 196 q 236 76 207 114 q 335 38 265 38 q 452 65 392 38 q 585 153 513 93 l 585 722 l 660 722 m 206 1086 l 594 1086 l 594 1028 l 206 1028 l 206 1086 z "},"ų":{"ha":799,"x_min":132,"x_max":706,"o":"m 706 -261 q 579 -328 653 -328 q 486 -295 521 -328 q 451 -204 451 -262 q 596 19 451 -94 l 588 85 q 324 -28 454 -28 q 173 28 214 -28 q 132 193 132 85 l 132 722 l 207 722 l 207 196 q 236 76 207 114 q 335 38 265 38 q 452 65 392 38 q 585 153 513 93 l 585 722 l 660 722 l 660 21 l 674 21 l 660 10 l 660 0 l 650 0 q 549 -107 581 -60 q 517 -200 517 -154 q 535 -251 517 -233 q 583 -269 553 -269 q 669 -226 628 -269 l 706 -261 z "},"ů":{"ha":799,"x_min":132,"x_max":660,"o":"m 132 0 m 660 722 l 660 0 l 599 0 l 588 85 q 324 -28 454 -28 q 173 28 214 -28 q 132 193 132 85 l 132 722 l 207 722 l 207 196 q 236 76 207 114 q 335 38 265 38 q 452 65 392 38 q 585 153 513 93 l 585 722 l 660 722 m 400 819 q 293 863 332 819 q 254 967 254 907 q 293 1068 254 1025 q 400 1111 332 1111 q 507 1068 468 1111 q 546 967 546 1025 q 507 863 546 907 q 400 819 468 819 m 400 868 q 466 896 442 868 q 490 967 490 924 q 466 1035 490 1008 q 400 1063 442 1063 q 334 1035 358 1063 q 310 967 310 1008 q 334 896 310 924 q 400 868 358 868 z "},"v":{"ha":685,"x_min":28,"x_max":657,"o":"m 657 722 l 374 -12 l 313 -12 l 28 722 l 107 722 l 344 107 l 581 722 l 657 722 z "},"w":{"ha":1078,"x_min":28,"x_max":1050,"o":"m 1050 722 l 822 -12 l 761 -12 l 539 596 l 318 -12 l 257 -12 l 28 722 l 107 722 l 290 110 l 511 722 l 569 722 l 794 110 l 974 722 l 1050 722 z "},"x":{"ha":750,"x_min":42,"x_max":708,"o":"m 613 0 l 374 326 l 135 0 l 42 0 l 321 379 l 69 722 l 164 722 l 376 433 l 589 722 l 681 722 l 429 379 l 708 0 l 613 0 z "},"y":{"ha":701,"x_min":28,"x_max":674,"o":"m 674 722 l 357 -103 q 247 -285 308 -229 q 94 -340 186 -340 q 28 -329 61 -340 l 43 -264 q 94 -271 68 -271 q 172 -254 139 -271 q 234 -194 204 -237 q 294 -71 264 -151 l 322 4 l 44 722 l 124 722 l 363 107 l 597 722 l 674 722 z "},"ý":{"ha":701,"x_min":28,"x_max":674,"o":"m 28 0 m 674 722 l 357 -103 q 247 -285 308 -229 q 94 -340 186 -340 q 28 -329 61 -340 l 43 -264 q 94 -271 68 -271 q 172 -254 139 -271 q 234 -194 204 -237 q 294 -71 264 -151 l 322 4 l 44 722 l 124 722 l 363 107 l 597 722 l 674 722 m 458 1114 l 538 1114 l 385 819 l 324 819 l 458 1114 z "},"ÿ":{"ha":701,"x_min":28,"x_max":674,"o":"m 28 0 m 674 722 l 357 -103 q 247 -285 308 -229 q 94 -340 186 -340 q 28 -329 61 -340 l 43 -264 q 94 -271 68 -271 q 172 -254 139 -271 q 234 -194 204 -237 q 294 -71 264 -151 l 322 4 l 44 722 l 124 722 l 363 107 l 597 722 l 674 722 m 232 1003 q 194 1019 210 1003 q 178 1056 178 1035 q 194 1094 178 1078 q 232 1111 210 1111 q 272 1095 256 1111 q 288 1056 288 1079 q 271 1019 288 1035 q 232 1003 254 1003 m 482 1003 q 444 1019 460 1003 q 428 1056 428 1035 q 444 1094 428 1078 q 482 1111 460 1111 q 522 1095 506 1111 q 538 1056 538 1079 q 521 1019 538 1035 q 482 1003 504 1003 z "},"z":{"ha":679,"x_min":69,"x_max":610,"o":"m 610 61 l 610 0 l 69 0 l 69 38 l 504 661 l 83 661 l 83 722 l 596 722 l 596 676 l 167 61 l 610 61 z "},"ź":{"ha":679,"x_min":69,"x_max":610,"o":"m 69 0 m 610 61 l 610 0 l 69 0 l 69 38 l 504 661 l 83 661 l 83 722 l 596 722 l 596 676 l 167 61 l 610 61 m 440 1114 l 519 1114 l 367 819 l 306 819 l 440 1114 z "},"ž":{"ha":679,"x_min":69,"x_max":610,"o":"m 69 0 m 610 61 l 610 0 l 69 0 l 69 38 l 504 661 l 83 661 l 83 722 l 596 722 l 596 676 l 167 61 l 610 61 m 521 1111 l 375 819 l 303 819 l 157 1111 l 218 1111 l 339 881 l 460 1111 l 521 1111 z "},"ż":{"ha":679,"x_min":69,"x_max":610,"o":"m 69 0 m 610 61 l 610 0 l 69 0 l 69 38 l 504 661 l 83 661 l 83 722 l 596 722 l 596 676 l 167 61 l 610 61 m 339 1003 q 301 1019 317 1003 q 285 1056 285 1035 q 301 1094 285 1078 q 339 1111 317 1111 q 378 1095 363 1111 q 394 1056 394 1079 q 378 1019 394 1035 q 339 1003 361 1003 z "},"ﬁ":{"ha":910,"x_min":104,"x_max":776,"o":"m 104 0 m 297 722 l 519 722 l 519 661 l 297 661 l 297 0 l 222 0 l 222 661 l 104 661 l 104 694 l 222 719 l 222 807 q 456 1111 222 1111 q 522 1100 489 1111 l 507 1039 q 456 1046 482 1046 q 334 988 371 1046 q 297 804 297 929 l 297 722 m 721 1003 q 683 1019 699 1003 q 667 1056 667 1035 q 683 1094 667 1078 q 721 1111 699 1111 q 760 1095 744 1111 q 776 1056 776 1079 q 760 1019 776 1035 q 721 1003 743 1003 m 683 722 l 758 722 l 758 0 l 683 0 l 683 722 z "},"ﬂ":{"ha":886,"x_min":104,"x_max":747,"o":"m 104 0 m 297 722 l 519 722 l 519 661 l 297 661 l 297 0 l 222 0 l 222 661 l 104 661 l 104 694 l 222 719 l 222 807 q 456 1111 222 1111 q 522 1100 489 1111 l 507 1039 q 456 1046 482 1046 q 334 988 371 1046 q 297 804 297 929 l 297 722 m 672 1111 l 747 1111 l 747 0 l 672 0 l 672 1111 z "},"ª":{"ha":442,"x_min":43,"x_max":421,"o":"m 43 592 q 73 672 43 640 q 156 724 103 703 q 307 771 210 744 l 307 810 q 291 878 307 851 q 229 906 275 906 q 158 888 189 906 q 86 821 126 869 l 44 856 q 228 958 128 958 q 334 923 301 958 q 367 808 367 888 l 367 575 q 388 546 367 546 q 413 554 399 546 l 421 507 q 372 496 392 496 q 307 563 313 496 q 157 494 225 494 q 75 522 107 494 q 43 592 43 550 m 103 593 q 119 558 103 569 q 158 546 135 546 q 226 563 192 546 q 307 617 260 581 l 307 719 q 148 663 193 690 q 103 593 103 636 m 44 360 l 406 360 l 406 306 l 44 306 l 44 360 z "},"º":{"ha":482,"x_min":42,"x_max":440,"o":"m 42 729 q 93 897 42 829 q 240 964 144 964 q 389 897 338 964 q 440 732 440 829 q 389 565 440 632 q 240 497 338 497 q 93 564 144 497 q 42 729 42 631 m 379 731 q 342 861 379 810 q 240 913 306 913 q 140 861 176 913 q 103 731 103 810 q 139 600 103 651 q 240 549 175 549 q 342 599 306 549 q 379 731 379 650 m 421 360 l 421 306 l 61 306 l 61 360 l 421 360 z "},"Ω":{"ha":1075,"x_min":83,"x_max":992,"o":"m 988 518 q 920 278 988 389 q 728 67 853 168 l 728 64 l 992 64 l 992 0 l 613 0 l 613 49 q 838 285 765 174 q 910 519 910 397 q 863 713 910 626 q 732 851 817 800 q 538 901 647 901 q 343 851 428 901 q 212 713 258 800 q 165 519 165 626 q 238 285 165 397 q 463 49 310 174 l 463 0 l 83 0 l 83 64 l 349 64 l 349 67 q 155 279 222 169 q 88 518 88 389 q 142 747 88 644 q 299 907 197 849 q 538 965 401 965 q 776 907 674 965 q 933 747 878 849 q 988 518 988 644 z "},"μ":{"ha":806,"x_min":139,"x_max":667,"o":"m 667 722 l 667 0 l 606 0 l 594 85 q 331 -28 461 -28 q 196 26 238 -28 l 214 -329 l 139 -329 l 139 722 l 214 722 l 214 196 q 243 76 214 114 q 342 38 272 38 q 459 65 399 38 q 592 153 519 93 l 592 722 l 667 722 z "},"π":{"ha":881,"x_min":49,"x_max":828,"o":"m 828 18 q 704 -21 767 -21 q 603 19 636 -21 q 569 132 569 58 l 569 661 l 303 661 l 239 0 l 164 0 l 228 661 l 49 661 l 49 722 l 801 722 l 801 661 l 644 661 l 644 135 q 660 66 644 88 q 708 44 675 44 q 754 51 735 44 q 804 76 774 58 l 828 18 z "},"ॲ":{"ha":1025,"x_min":0,"x_max":1108,"o":"m 0 0 m 1025 819 l 861 819 l 861 0 l 790 0 l 790 435 q 725 405 771 419 q 632 390 679 390 q 544 401 586 390 q 582 278 582 343 q 551 166 582 215 q 465 88 521 117 q 338 60 410 60 q 139 135 222 60 q 0 363 56 211 l 58 392 q 338 121 157 122 q 464 167 417 122 q 511 281 511 211 q 480 383 511 338 q 386 467 449 428 q 267 444 328 449 l 254 507 q 425 553 363 508 q 488 682 488 597 q 444 795 488 750 q 332 840 401 840 q 151 775 238 840 l 117 829 q 215 882 158 861 q 335 903 271 903 q 445 877 394 903 q 527 801 496 851 q 558 678 558 750 q 532 574 558 621 q 454 497 506 528 q 537 466 488 479 q 632 453 586 453 q 790 507 729 453 l 790 819 l 596 819 l 596 881 l 1025 881 l 1025 819 m 826 1021 q 660 1067 733 1021 q 543 1186 588 1114 l 590 1224 q 688 1122 629 1161 q 826 1082 747 1082 q 965 1122 906 1082 q 1063 1224 1024 1161 l 1108 1186 q 991 1067 1064 1114 q 826 1021 918 1021 z "},"ऄ":{"ha":1025,"x_min":0,"x_max":1025,"o":"m 1025 819 l 861 819 l 861 0 l 790 0 l 790 435 q 725 405 771 419 q 632 390 679 390 q 544 401 586 390 q 582 278 582 343 q 551 166 582 215 q 465 88 521 117 q 338 60 410 60 q 139 135 222 60 q 0 363 56 211 l 58 392 q 338 121 157 122 q 464 167 417 122 q 511 281 511 211 q 480 383 511 338 q 386 467 449 428 q 267 444 328 449 l 254 507 q 425 553 363 508 q 488 682 488 597 q 444 795 488 750 q 332 840 401 840 q 151 775 238 840 l 117 829 q 215 882 158 861 q 335 903 271 903 q 445 877 394 903 q 527 801 496 851 q 558 678 558 750 q 532 574 558 621 q 454 497 506 528 q 537 466 488 479 q 632 453 586 453 q 790 507 729 453 l 790 819 l 596 819 l 596 881 l 800 881 q 810 944 810 913 q 771 1054 810 1010 q 639 1099 732 1099 q 490 1090 590 1099 q 351 1082 396 1082 q 222 1118 268 1082 q 176 1221 176 1154 q 208 1326 176 1278 l 271 1308 q 246 1224 246 1267 q 271 1164 246 1183 q 353 1144 296 1144 q 497 1153 400 1144 q 639 1161 594 1161 q 817 1101 756 1161 q 879 943 879 1042 q 869 881 879 908 l 1025 881 l 1025 819 z "},"अ":{"ha":1025,"x_min":0,"x_max":1025,"o":"m 1025 819 l 861 819 l 861 0 l 790 0 l 790 435 q 725 405 771 419 q 632 390 679 390 q 544 401 586 390 q 582 278 582 343 q 551 166 582 215 q 465 88 521 117 q 338 60 410 60 q 139 135 222 60 q 0 363 56 211 l 58 392 q 338 121 157 122 q 464 167 417 122 q 511 281 511 211 q 480 383 511 338 q 386 467 449 428 q 267 444 328 449 l 254 507 q 425 553 363 508 q 488 682 488 597 q 444 795 488 750 q 332 840 401 840 q 151 775 238 840 l 117 829 q 215 882 158 861 q 335 903 271 903 q 445 877 394 903 q 527 801 496 851 q 558 678 558 750 q 532 574 558 621 q 454 497 506 528 q 537 466 488 479 q 632 453 586 453 q 790 507 729 453 l 790 819 l 596 819 l 596 881 l 1025 881 l 1025 819 z "},"आ":{"ha":1424,"x_min":0,"x_max":1424,"o":"m 1424 819 l 1260 819 l 1260 0 l 1189 0 l 1189 819 l 861 819 l 861 0 l 790 0 l 790 435 q 725 405 771 419 q 632 390 679 390 q 544 401 586 390 q 582 278 582 343 q 551 166 582 215 q 465 88 521 117 q 338 60 410 60 q 139 135 222 60 q 0 363 56 211 l 58 392 q 338 121 157 122 q 464 167 417 122 q 511 281 511 211 q 480 383 511 338 q 386 467 449 428 q 267 444 328 449 l 254 507 q 425 553 363 508 q 488 682 488 597 q 444 795 488 750 q 332 840 401 840 q 151 775 238 840 l 117 829 q 215 882 158 861 q 335 903 271 903 q 445 877 394 903 q 527 801 496 851 q 558 678 558 750 q 532 574 558 621 q 454 497 506 528 q 537 466 488 479 q 632 453 586 453 q 790 507 729 453 l 790 819 l 596 819 l 596 881 l 1424 881 l 1424 819 z "},"इ":{"ha":658,"x_min":-28,"x_max":658,"o":"m 261 607 q 190 581 215 607 q 165 511 165 556 q 199 433 165 463 q 292 403 233 403 q 393 417 340 403 q 490 458 446 432 q 556 374 529 424 q 583 271 583 324 q 547 166 583 213 q 447 92 510 119 q 313 60 385 64 l 440 -133 l 383 -169 l 233 64 q 138 100 174 74 q 103 163 103 126 q 126 217 103 196 q 194 239 150 238 l 269 125 q 292 124 278 124 q 407 144 357 124 q 485 200 457 165 q 513 276 513 235 q 499 332 513 304 q 467 376 486 360 q 382 350 428 360 q 294 340 336 340 q 145 390 196 340 q 94 517 94 440 q 138 625 94 582 q 261 668 181 668 l 442 668 l 442 819 l -28 819 l -28 881 l 658 881 l 658 819 l 511 819 l 511 607 l 261 607 z "},"ई":{"ha":658,"x_min":-28,"x_max":682,"o":"m 358 1117 q 507 881 358 996 l 658 881 l 658 819 l 511 819 l 511 607 l 261 607 q 190 581 215 607 q 165 511 165 556 q 199 433 165 463 q 292 403 233 403 q 393 417 340 403 q 490 458 446 432 q 556 374 529 424 q 583 271 583 324 q 547 166 583 213 q 447 92 510 119 q 313 60 385 64 l 440 -133 l 383 -169 l 233 64 q 138 100 174 74 q 103 163 103 126 q 126 217 103 196 q 194 239 150 238 l 269 125 q 292 124 278 124 q 407 144 357 124 q 485 200 457 165 q 513 276 513 235 q 499 332 513 304 q 467 376 486 360 q 382 350 428 360 q 294 340 336 340 q 145 390 196 340 q 94 517 94 440 q 138 625 94 582 q 261 668 181 668 l 442 668 l 442 819 l -28 819 l -28 881 l 411 881 q 319 992 350 935 q 288 1117 288 1049 q 344 1264 288 1206 q 494 1322 400 1322 q 593 1301 549 1322 q 682 1243 638 1281 l 647 1192 q 574 1242 608 1224 q 494 1260 539 1260 q 399 1222 440 1260 q 358 1117 358 1183 z "},"उ":{"ha":768,"x_min":-28,"x_max":768,"o":"m 768 819 l 575 819 q 649 650 649 742 q 619 560 649 601 q 532 492 589 519 q 665 264 665 388 q 635 144 665 197 q 549 62 604 92 q 421 32 493 32 q 216 114 301 32 q 69 363 131 196 l 128 392 q 252 170 181 246 q 421 93 324 94 q 547 143 500 94 q 594 267 594 192 q 560 374 594 328 q 457 465 526 421 q 301 444 390 449 l 289 507 q 501 547 424 510 q 578 654 578 583 q 482 819 578 747 l -28 819 l -28 881 l 768 881 l 768 819 z "},"ऊ":{"ha":1106,"x_min":-28,"x_max":1106,"o":"m 575 819 q 649 650 649 742 q 619 560 649 601 q 532 492 589 519 q 618 404 585 451 q 699 476 668 450 q 772 520 731 501 q 861 539 814 539 q 990 483 943 539 q 1038 339 1038 426 q 1000 202 1038 267 q 894 90 963 138 l 847 143 q 935 232 904 182 q 967 335 967 282 q 938 439 967 401 q 863 476 910 476 q 762 442 813 476 q 650 346 711 408 q 665 264 665 307 q 635 144 665 197 q 549 62 604 92 q 421 32 493 32 q 216 114 301 32 q 69 363 131 196 l 128 392 q 252 170 181 246 q 421 93 324 94 q 547 143 500 94 q 594 267 594 192 q 560 374 594 328 q 457 465 526 421 q 301 444 390 449 l 289 507 q 501 547 424 510 q 578 654 578 583 q 482 819 578 747 l -28 819 l -28 881 l 1106 881 l 1106 819 l 575 819 z "},"ऋ":{"ha":1144,"x_min":-28,"x_max":1144,"o":"m 606 819 l 606 451 q 660 444 628 444 q 814 485 731 444 l 758 597 q 801 640 775 624 q 853 656 826 656 q 913 630 892 656 q 935 569 935 604 q 888 469 935 514 l 1004 236 q 901 163 935 199 q 867 89 867 128 q 893 19 867 47 q 969 -8 919 -8 q 1075 25 1033 -8 l 1110 -29 q 965 -71 1047 -71 q 842 -26 889 -71 q 796 85 796 18 q 826 175 796 135 q 924 258 857 215 l 839 433 q 749 395 799 408 q 657 382 700 382 q 606 389 626 382 l 606 0 l 536 0 l 536 354 l 154 39 l 104 94 l 535 432 q 392 533 451 504 q 274 561 332 561 q 75 511 182 561 l 51 572 q 274 624 163 624 q 398 599 338 624 q 536 513 458 575 l 536 819 l -28 819 l -28 881 l 1144 881 l 1144 819 l 606 819 z "},"ॠ":{"ha":1144,"x_min":-28,"x_max":1235,"o":"m 1235 -240 q 1144 -315 1193 -289 q 1029 -340 1096 -340 q 915 -301 961 -340 q 868 -193 868 -261 q 881 -128 868 -158 q 917 -65 893 -97 q 828 -10 861 -51 q 796 85 796 31 q 826 175 796 135 q 924 258 857 215 l 839 433 q 749 395 799 408 q 657 382 700 382 q 606 389 626 382 l 606 0 l 536 0 l 536 354 l 154 39 l 104 94 l 535 432 q 392 533 451 504 q 274 561 332 561 q 75 511 182 561 l 51 572 q 274 624 163 624 q 398 599 338 624 q 536 513 458 575 l 536 819 l -28 819 l -28 881 l 1144 881 l 1144 819 l 606 819 l 606 451 q 660 444 628 444 q 814 485 731 444 l 758 597 q 801 640 775 624 q 853 656 826 656 q 913 630 892 656 q 935 569 935 604 q 888 469 935 514 l 1004 236 q 901 163 935 199 q 867 89 867 128 q 893 19 867 47 q 969 -8 919 -8 q 1075 25 1033 -8 l 1110 -29 q 985 -71 1056 -65 q 939 -193 939 -126 q 964 -255 939 -232 q 1035 -278 989 -278 q 1194 -192 1122 -278 l 1235 -240 z "},"ऌ":{"ha":969,"x_min":-28,"x_max":969,"o":"m 689 819 l 689 581 q 814 517 769 571 q 858 383 858 463 q 828 269 858 318 q 739 160 797 221 q 671 78 692 108 q 650 11 650 47 q 674 -50 650 -26 q 736 -74 697 -74 q 827 -53 786 -74 q 906 13 868 -33 l 946 -36 q 856 -110 904 -85 q 740 -136 807 -136 q 626 -97 672 -136 q 579 11 579 -57 q 605 100 579 61 q 681 189 631 139 q 761 285 735 244 q 788 379 788 325 q 753 483 788 447 q 658 519 718 519 q 535 455 578 519 q 492 279 493 390 l 421 292 q 442 417 422 356 q 358 511 400 479 q 265 543 317 543 q 183 503 215 543 q 150 389 150 464 q 209 192 150 283 q 371 17 268 100 l 325 -31 q 142 174 206 72 q 78 397 78 276 q 130 552 78 497 q 265 607 182 607 q 474 485 378 607 q 618 581 525 565 l 618 819 l -28 819 l -28 881 l 969 881 l 969 819 l 689 819 z "},"ॡ":{"ha":969,"x_min":-28,"x_max":1110,"o":"m 1110 -240 q 1019 -315 1068 -289 q 904 -340 971 -340 q 790 -301 836 -340 q 743 -193 743 -261 q 753 -136 743 -161 l 740 -136 q 626 -97 672 -136 q 579 11 579 -57 q 605 100 579 61 q 681 189 631 139 q 761 285 735 244 q 788 379 788 325 q 753 483 788 447 q 658 519 718 519 q 535 455 578 519 q 492 279 493 390 l 421 292 q 442 417 422 356 q 358 511 400 479 q 265 543 317 543 q 183 503 215 543 q 150 389 150 464 q 209 192 150 283 q 371 17 268 100 l 325 -31 q 142 174 206 72 q 78 397 78 276 q 130 552 78 497 q 265 607 182 607 q 474 485 378 607 q 618 581 525 565 l 618 819 l -28 819 l -28 881 l 969 881 l 969 819 l 689 819 l 689 581 q 814 517 769 571 q 858 383 858 463 q 828 269 858 318 q 739 160 797 221 q 671 78 692 108 q 650 11 650 47 q 674 -50 650 -26 q 736 -74 697 -74 q 827 -53 786 -74 q 906 13 868 -33 l 946 -36 q 828 -122 890 -100 q 814 -193 814 -150 q 839 -255 814 -232 q 910 -278 864 -278 q 1069 -192 997 -278 l 1110 -240 z "},"ऍ":{"ha":790,"x_min":-29,"x_max":849,"o":"m 0 0 m 761 -35 q 831 -101 813 -69 q 849 -167 849 -132 q 840 -217 849 -194 q 808 -265 831 -240 l 740 -228 q 771 -167 771 -199 q 760 -126 771 -144 q 710 -81 750 -107 l 275 214 q 178 308 204 263 q 151 426 151 354 l 151 819 l -29 819 l -29 881 l 790 881 l 790 819 l 651 819 l 651 471 q 601 342 651 393 q 496 272 551 292 l 457 332 q 547 388 517 358 q 576 476 576 418 l 576 819 l 226 819 l 226 431 q 248 333 226 368 q 317 267 269 299 l 761 -35 m 399 1021 q 233 1067 306 1021 q 115 1186 160 1114 l 163 1224 q 260 1122 201 1161 q 399 1082 319 1082 q 537 1122 478 1082 q 635 1224 596 1161 l 681 1186 q 563 1067 636 1114 q 399 1021 490 1021 z "},"ऎ":{"ha":790,"x_min":-42,"x_max":849,"o":"m 761 -35 q 831 -101 813 -69 q 849 -167 849 -132 q 840 -217 849 -194 q 808 -265 831 -240 l 740 -228 q 771 -167 771 -199 q 760 -126 771 -144 q 710 -81 750 -107 l 275 214 q 178 308 204 263 q 151 426 151 354 l 151 819 l -29 819 l -29 881 l 582 881 q 592 944 592 913 q 553 1054 592 1010 q 421 1099 514 1099 q 272 1090 372 1099 q 133 1082 178 1082 q 4 1118 50 1082 q -42 1221 -42 1154 q -10 1326 -42 1278 l 53 1308 q 28 1224 28 1267 q 53 1164 28 1183 q 135 1144 78 1144 q 279 1153 182 1144 q 421 1161 376 1161 q 599 1101 538 1161 q 661 943 661 1042 q 651 881 661 908 l 790 881 l 790 819 l 651 819 l 651 471 q 601 342 651 393 q 496 272 551 292 l 457 332 q 547 388 517 358 q 576 476 576 418 l 576 819 l 226 819 l 226 431 q 248 333 226 368 q 317 267 269 299 l 761 -35 z "},"ए":{"ha":790,"x_min":-29,"x_max":849,"o":"m 761 -35 q 831 -101 813 -69 q 849 -167 849 -132 q 840 -217 849 -194 q 808 -265 831 -240 l 740 -228 q 771 -167 771 -199 q 760 -126 771 -144 q 710 -81 750 -107 l 275 214 q 178 308 204 263 q 151 426 151 354 l 151 819 l -29 819 l -29 881 l 790 881 l 790 819 l 651 819 l 651 471 q 601 342 651 393 q 496 272 551 292 l 457 332 q 547 388 517 358 q 576 476 576 418 l 576 819 l 226 819 l 226 431 q 248 333 226 368 q 317 267 269 299 l 761 -35 z "},"ऐ":{"ha":790,"x_min":-29,"x_max":849,"o":"m 761 -35 q 831 -101 813 -69 q 849 -167 849 -132 q 840 -217 849 -194 q 808 -265 831 -240 l 740 -228 q 771 -167 771 -199 q 760 -126 771 -144 q 710 -81 750 -107 l 275 214 q 178 308 204 263 q 151 426 151 354 l 151 819 l -29 819 l -29 881 l 574 881 l 515 1007 q 438 1167 465 1117 q 375 1247 410 1217 q 293 1278 340 1278 q 204 1257 244 1278 l 190 1318 q 292 1344 235 1344 q 399 1311 354 1344 q 480 1216 443 1278 q 576 1029 517 1154 l 647 881 l 790 881 l 790 819 l 651 819 l 651 471 q 601 342 651 393 q 496 272 551 292 l 457 332 q 547 388 517 358 q 576 476 576 418 l 576 819 l 226 819 l 226 431 q 248 333 226 368 q 317 267 269 299 l 761 -35 z "},"ऑ":{"ha":1424,"x_min":0,"x_max":1424,"o":"m 0 0 m 1424 819 l 1260 819 l 1260 0 l 1189 0 l 1189 819 l 861 819 l 861 0 l 790 0 l 790 435 q 725 405 771 419 q 632 390 679 390 q 544 401 586 390 q 582 278 582 343 q 551 166 582 215 q 465 88 521 117 q 338 60 410 60 q 139 135 222 60 q 0 363 56 211 l 58 392 q 338 121 157 122 q 464 167 417 122 q 511 281 511 211 q 480 383 511 338 q 386 467 449 428 q 267 444 328 449 l 254 507 q 425 553 363 508 q 488 682 488 597 q 444 795 488 750 q 332 840 401 840 q 151 775 238 840 l 117 829 q 215 882 158 861 q 335 903 271 903 q 445 877 394 903 q 527 801 496 851 q 558 678 558 750 q 532 574 558 621 q 454 497 506 528 q 537 466 488 479 q 632 453 586 453 q 790 507 729 453 l 790 819 l 596 819 l 596 881 l 1424 881 l 1424 819 m 826 1021 q 660 1067 733 1021 q 543 1186 588 1114 l 590 1224 q 688 1122 629 1161 q 826 1082 747 1082 q 965 1122 906 1082 q 1063 1224 1024 1161 l 1108 1186 q 991 1067 1064 1114 q 826 1021 918 1021 z "},"ऒ":{"ha":1424,"x_min":0,"x_max":1424,"o":"m 1424 819 l 1260 819 l 1260 0 l 1189 0 l 1189 819 l 861 819 l 861 0 l 790 0 l 790 435 q 725 405 771 419 q 632 390 679 390 q 544 401 586 390 q 582 278 582 343 q 551 166 582 215 q 465 88 521 117 q 338 60 410 60 q 139 135 222 60 q 0 363 56 211 l 58 392 q 338 121 157 122 q 464 167 417 122 q 511 281 511 211 q 480 383 511 338 q 386 467 449 428 q 267 444 328 449 l 254 507 q 425 553 363 508 q 488 682 488 597 q 444 795 488 750 q 332 840 401 840 q 151 775 238 840 l 117 829 q 215 882 158 861 q 335 903 271 903 q 445 877 394 903 q 527 801 496 851 q 558 678 558 750 q 532 574 558 621 q 454 497 506 528 q 537 466 488 479 q 632 453 586 453 q 790 507 729 453 l 790 819 l 596 819 l 596 881 l 1193 881 q 1203 944 1203 913 q 1164 1054 1203 1010 q 1032 1099 1125 1099 q 883 1090 983 1099 q 744 1082 789 1082 q 615 1118 661 1082 q 569 1221 569 1154 q 601 1326 569 1278 l 664 1308 q 639 1224 639 1267 q 664 1164 639 1183 q 746 1144 689 1144 q 890 1153 793 1144 q 1032 1161 988 1161 q 1210 1101 1149 1161 q 1272 943 1272 1042 q 1263 881 1272 908 l 1424 881 l 1424 819 z "},"ओ":{"ha":1424,"x_min":0,"x_max":1424,"o":"m 1424 819 l 1260 819 l 1260 0 l 1189 0 l 1189 819 l 861 819 l 861 0 l 790 0 l 790 435 q 725 405 771 419 q 632 390 679 390 q 544 401 586 390 q 582 278 582 343 q 551 166 582 215 q 465 88 521 117 q 338 60 410 60 q 139 135 222 60 q 0 363 56 211 l 58 392 q 338 121 157 122 q 464 167 417 122 q 511 281 511 211 q 480 383 511 338 q 386 467 449 428 q 267 444 328 449 l 254 507 q 425 553 363 508 q 488 682 488 597 q 444 795 488 750 q 332 840 401 840 q 151 775 238 840 l 117 829 q 215 882 158 861 q 335 903 271 903 q 445 877 394 903 q 527 801 496 851 q 558 678 558 750 q 532 574 558 621 q 454 497 506 528 q 537 466 488 479 q 632 453 586 453 q 790 507 729 453 l 790 819 l 596 819 l 596 881 l 1183 881 l 1124 1007 q 1044 1167 1071 1118 q 983 1247 1018 1217 q 901 1278 949 1278 q 813 1257 853 1278 l 799 1318 q 900 1344 843 1344 q 1006 1312 963 1344 q 1087 1217 1050 1279 q 1185 1029 1124 1156 l 1257 881 l 1424 881 l 1424 819 z "},"औ":{"ha":1424,"x_min":0,"x_max":1424,"o":"m 1424 819 l 1260 819 l 1260 0 l 1189 0 l 1189 819 l 861 819 l 861 0 l 790 0 l 790 435 q 725 405 771 419 q 632 390 679 390 q 544 401 586 390 q 582 278 582 343 q 551 166 582 215 q 465 88 521 117 q 338 60 410 60 q 139 135 222 60 q 0 363 56 211 l 58 392 q 338 121 157 122 q 464 167 417 122 q 511 281 511 211 q 480 383 511 338 q 386 467 449 428 q 267 444 328 449 l 254 507 q 425 553 363 508 q 488 682 488 597 q 444 795 488 750 q 332 840 401 840 q 151 775 238 840 l 117 829 q 215 882 158 861 q 335 903 271 903 q 445 877 394 903 q 527 801 496 851 q 558 678 558 750 q 532 574 558 621 q 454 497 506 528 q 537 466 488 479 q 632 453 586 453 q 790 507 729 453 l 790 819 l 596 819 l 596 881 l 1138 881 l 1085 976 q 1003 1085 1043 1053 q 910 1118 963 1118 q 865 1115 882 1118 q 825 1101 847 1111 l 811 1163 q 857 1179 835 1174 q 908 1185 879 1185 q 1136 1001 1035 1185 l 1203 881 l 1221 881 l 1171 1015 q 1088 1216 1124 1142 q 1010 1331 1053 1290 q 911 1372 967 1372 q 822 1351 863 1372 l 808 1413 q 910 1439 853 1439 q 1031 1397 979 1439 q 1126 1269 1082 1354 q 1228 1029 1169 1185 l 1285 881 l 1424 881 l 1424 819 z "},"ॳ":{"ha":1025,"x_min":0,"x_max":1025,"o":"m 1025 819 l 861 819 l 861 0 l 790 0 l 790 435 q 725 405 771 419 q 632 390 679 390 q 544 401 586 390 q 582 278 582 343 q 551 166 582 215 q 465 88 521 117 q 338 60 410 60 q 139 135 222 60 q 0 363 56 211 l 58 392 q 338 121 157 122 q 464 167 417 122 q 511 281 511 211 q 480 383 511 338 q 386 467 449 428 q 267 444 328 449 l 254 507 q 425 553 363 508 q 488 682 488 597 q 444 795 488 750 q 332 840 401 840 q 151 775 238 840 l 117 829 q 215 882 158 861 q 335 903 271 903 q 445 877 394 903 q 527 801 496 851 q 558 678 558 750 q 532 574 558 621 q 454 497 506 528 q 537 466 488 479 q 632 453 586 453 q 790 507 729 453 l 790 819 l 596 819 l 596 881 l 789 881 l 789 1247 l 864 1247 l 864 881 l 1025 881 l 1025 819 z "},"ॴ":{"ha":1424,"x_min":0,"x_max":1424,"o":"m 1424 819 l 1260 819 l 1260 0 l 1189 0 l 1189 819 l 861 819 l 861 0 l 790 0 l 790 435 q 725 405 771 419 q 632 390 679 390 q 544 401 586 390 q 582 278 582 343 q 551 166 582 215 q 465 88 521 117 q 338 60 410 60 q 139 135 222 60 q 0 363 56 211 l 58 392 q 338 121 157 122 q 464 167 417 122 q 511 281 511 211 q 480 383 511 338 q 386 467 449 428 q 267 444 328 449 l 254 507 q 425 553 363 508 q 488 682 488 597 q 444 795 488 750 q 332 840 401 840 q 151 775 238 840 l 117 829 q 215 882 158 861 q 335 903 271 903 q 445 877 394 903 q 527 801 496 851 q 558 678 558 750 q 532 574 558 621 q 454 497 506 528 q 537 466 488 479 q 632 453 586 453 q 790 507 729 453 l 790 819 l 596 819 l 596 881 l 1185 881 l 1185 1247 l 1260 1247 l 1260 881 l 1424 881 l 1424 819 z "},"ॶ":{"ha":1025,"x_min":0,"x_max":1122,"o":"m 0 0 m 1025 819 l 861 819 l 861 0 l 790 0 l 790 435 q 725 405 771 419 q 632 390 679 390 q 544 401 586 390 q 582 278 582 343 q 551 166 582 215 q 465 88 521 117 q 338 60 410 60 q 139 135 222 60 q 0 363 56 211 l 58 392 q 338 121 157 122 q 464 167 417 122 q 511 281 511 211 q 480 383 511 338 q 386 467 449 428 q 267 444 328 449 l 254 507 q 425 553 363 508 q 488 682 488 597 q 444 795 488 750 q 332 840 401 840 q 151 775 238 840 l 117 829 q 215 882 158 861 q 335 903 271 903 q 445 877 394 903 q 527 801 496 851 q 558 678 558 750 q 532 574 558 621 q 454 497 506 528 q 537 466 488 479 q 632 453 586 453 q 790 507 729 453 l 790 819 l 596 819 l 596 881 l 1025 881 l 1025 819 m 826 -287 q 653 -240 733 -287 q 529 -122 572 -193 l 576 -85 q 679 -187 617 -147 q 826 -226 742 -226 q 974 -187 911 -226 q 1076 -85 1036 -147 l 1122 -122 q 999 -240 1079 -193 q 826 -287 918 -287 z "},"ॷ":{"ha":1025,"x_min":0,"x_max":1122,"o":"m 0 0 m 1025 819 l 861 819 l 861 0 l 790 0 l 790 435 q 725 405 771 419 q 632 390 679 390 q 544 401 586 390 q 582 278 582 343 q 551 166 582 215 q 465 88 521 117 q 338 60 410 60 q 139 135 222 60 q 0 363 56 211 l 58 392 q 338 121 157 122 q 464 167 417 122 q 511 281 511 211 q 480 383 511 338 q 386 467 449 428 q 267 444 328 449 l 254 507 q 425 553 363 508 q 488 682 488 597 q 444 795 488 750 q 332 840 401 840 q 151 775 238 840 l 117 829 q 215 882 158 861 q 335 903 271 903 q 445 877 394 903 q 527 801 496 851 q 558 678 558 750 q 532 574 558 621 q 454 497 506 528 q 537 466 488 479 q 632 453 586 453 q 790 507 729 453 l 790 819 l 596 819 l 596 881 l 1025 881 l 1025 819 m 826 -287 q 653 -240 733 -287 q 529 -122 572 -193 l 576 -85 q 679 -187 617 -147 q 826 -226 742 -226 q 974 -187 911 -226 q 1076 -85 1036 -147 l 1122 -122 q 999 -240 1079 -193 q 826 -287 918 -287 m 826 -518 q 653 -471 733 -518 q 529 -353 572 -424 l 576 -315 q 679 -417 617 -378 q 826 -457 742 -457 q 974 -417 911 -457 q 1076 -315 1036 -378 l 1122 -353 q 999 -471 1079 -424 q 826 -518 918 -518 z "},"ा":{"ha":399,"x_min":-28,"x_max":399,"o":"m 399 819 l 235 819 l 235 0 l 164 0 l 164 819 l -28 819 l -28 881 l 399 881 l 399 819 z "},"ि":{"ha":399,"x_min":-28,"x_max":994,"o":"m 335 1283 q 193 1238 247 1283 q 139 1113 139 1193 q 164 994 139 1057 q 231 881 189 932 l 399 881 l 399 819 l 235 819 l 235 0 l 164 0 l 164 819 l -28 819 l -28 881 l 153 881 q 92 994 115 933 q 68 1113 68 1056 q 140 1279 68 1214 q 336 1344 211 1344 q 568 1292 454 1344 q 774 1169 682 1240 q 994 985 867 1097 l 957 939 q 733 1120 828 1050 q 537 1237 639 1190 q 335 1283 435 1283 z "},"ी":{"ha":399,"x_min":-357,"x_max":399,"o":"m 399 819 l 235 819 l 235 0 l 164 0 l 164 819 l -28 819 l -28 881 l 157 881 q 9 1170 93 1057 q -164 1283 -75 1283 q -254 1251 -222 1283 q -286 1167 -286 1218 q -258 1063 -286 1114 q -196 979 -231 1013 l -243 938 q -324 1040 -290 982 q -357 1167 -357 1099 q -334 1255 -357 1214 q -267 1320 -311 1296 q -165 1344 -224 1344 q 53 1219 -39 1344 q 228 881 146 1094 l 399 881 l 399 819 z "},"ॉ":{"ha":399,"x_min":-83,"x_max":482,"o":"m 0 0 m 399 819 l 235 819 l 235 0 l 164 0 l 164 819 l -28 819 l -28 881 l 399 881 l 399 819 m 200 1021 q 34 1067 107 1021 q -83 1186 -39 1114 l -36 1224 q 62 1122 3 1161 q 200 1082 121 1082 q 338 1122 279 1082 q 436 1224 397 1161 l 482 1186 q 365 1067 438 1114 q 200 1021 292 1021 z "},"ॊ":{"ha":399,"x_min":-456,"x_max":399,"o":"m 399 819 l 235 819 l 235 0 l 164 0 l 164 819 l -28 819 l -28 881 l 168 881 q 178 944 178 913 q 139 1054 178 1010 q 7 1099 100 1099 q -142 1090 -42 1099 q -281 1082 -236 1082 q -410 1118 -364 1082 q -456 1221 -456 1154 q -424 1326 -456 1278 l -361 1308 q -386 1224 -386 1267 q -361 1164 -386 1183 q -279 1144 -336 1144 q -135 1153 -232 1144 q 7 1161 -37 1161 q 185 1101 124 1161 q 247 943 247 1042 q 238 881 247 908 l 399 881 l 399 819 z "},"ो":{"ha":399,"x_min":-226,"x_max":399,"o":"m 399 819 l 235 819 l 235 0 l 164 0 l 164 819 l -28 819 l -28 881 l 158 881 l 99 1007 q 19 1167 46 1118 q -42 1247 -7 1217 q -124 1278 -76 1278 q -212 1257 -172 1278 l -226 1318 q -125 1344 -182 1344 q -19 1312 -62 1344 q 62 1217 25 1279 q 160 1029 99 1156 l 232 881 l 399 881 l 399 819 z "},"ौ":{"ha":399,"x_min":-217,"x_max":399,"o":"m 399 819 l 235 819 l 235 0 l 164 0 l 164 819 l -28 819 l -28 881 l 113 881 l 60 976 q -22 1085 18 1053 q -115 1118 -62 1118 q -160 1115 -143 1118 q -200 1101 -178 1111 l -214 1163 q -168 1179 -190 1174 q -117 1185 -146 1185 q 111 1001 10 1185 l 178 881 l 196 881 l 146 1015 q 63 1216 99 1142 q -15 1331 28 1290 q -114 1372 -58 1372 q -203 1351 -162 1372 l -217 1413 q -115 1439 -172 1439 q 6 1397 -46 1439 q 101 1269 57 1354 q 203 1029 144 1185 l 260 881 l 399 881 l 399 819 z "},"ऻ":{"ha":399,"x_min":-28,"x_max":399,"o":"m 399 819 l 235 819 l 235 0 l 164 0 l 164 819 l -28 819 l -28 881 l 163 881 l 163 1247 l 238 1247 l 238 881 l 399 881 l 399 819 z "},"क":{"ha":1150,"x_min":-28,"x_max":1150,"o":"m 631 819 l 631 468 q 712 542 679 515 q 788 590 744 569 q 878 610 831 610 q 1026 549 972 610 q 1079 394 1079 489 q 1040 249 1079 310 q 922 132 1000 188 l 875 185 q 975 278 942 229 q 1008 390 1008 326 q 973 506 1008 464 q 879 547 938 547 q 764 505 821 547 q 631 382 707 463 l 631 0 l 560 0 l 560 318 q 431 222 492 257 q 297 186 369 186 q 178 215 228 186 q 102 289 128 243 q 76 388 76 335 q 108 504 76 453 q 192 584 139 556 q 304 613 244 613 q 442 578 378 613 q 560 489 507 543 l 560 819 l -28 819 l -28 881 l 1150 881 l 1150 819 l 631 819 m 296 249 q 560 399 407 249 l 560 403 q 313 549 438 549 q 194 504 242 549 q 147 392 147 460 q 188 289 147 329 q 296 249 229 249 z "},"ख":{"ha":1094,"x_min":-28,"x_max":1094,"o":"m 1094 819 l 935 819 l 935 -15 l 864 -15 l 864 168 q 710 74 800 108 q 524 40 621 40 q 201 171 314 40 q 89 528 89 301 l 158 533 q 160 479 158 497 q 199 467 174 467 q 275 579 275 467 q 265 697 275 626 q 240 819 256 767 l -28 819 l -28 881 l 1094 881 l 1094 819 m 864 819 l 311 819 q 344 578 344 672 q 306 447 344 490 q 210 403 267 403 q 168 411 188 403 q 287 183 196 263 q 524 103 378 103 q 707 142 614 103 q 864 253 800 182 l 864 369 q 743 285 801 317 q 617 253 685 253 q 509 280 554 253 q 440 351 464 307 q 417 447 417 396 q 445 560 417 511 q 521 635 474 608 q 624 663 568 663 q 758 629 692 663 q 864 551 824 596 l 864 819 m 864 458 q 754 561 815 522 q 624 600 693 600 q 526 558 564 600 q 488 451 488 515 q 524 354 488 393 q 617 315 560 315 q 739 356 674 315 q 864 458 804 396 z "},"ग":{"ha":826,"x_min":-28,"x_max":826,"o":"m 826 819 l 663 819 l 663 0 l 592 0 l 592 819 l 290 819 l 290 413 q 269 328 290 357 q 211 299 247 299 q 138 327 167 299 q 108 400 108 356 q 118 450 108 425 l 219 450 l 219 819 l -28 819 l -28 881 l 826 881 l 826 819 z "},"घ":{"ha":913,"x_min":-28,"x_max":913,"o":"m 913 819 l 749 819 l 749 0 l 679 0 l 679 321 q 413 204 546 204 q 258 260 318 204 q 199 406 199 315 q 261 539 199 486 q 140 632 176 583 q 104 740 104 681 q 121 819 104 785 l -28 819 l -28 881 l 913 881 l 913 819 m 679 819 l 203 819 q 175 742 175 790 q 208 658 175 696 q 332 578 240 619 q 400 589 368 589 q 486 574 453 589 l 474 518 q 408 526 449 526 q 306 493 343 526 q 269 407 269 460 q 310 301 269 335 q 411 267 351 267 q 547 301 485 267 q 679 399 608 336 l 679 819 z "},"ङ":{"ha":935,"x_min":-29,"x_max":935,"o":"m 935 819 l 618 819 l 618 578 l 313 578 q 242 553 267 578 q 217 485 217 528 q 253 402 217 432 q 368 372 290 372 q 621 433 514 372 q 694 345 664 399 q 725 235 725 292 q 647 79 725 139 q 428 19 568 19 q 51 243 210 19 l 103 285 q 251 133 168 186 q 424 81 335 81 q 594 124 535 81 q 654 235 654 167 q 638 299 654 267 q 599 353 622 332 q 490 321 550 332 q 371 310 429 310 q 199 360 251 310 q 146 490 146 410 q 189 597 146 556 q 313 639 232 639 l 549 639 l 549 819 l -29 819 l -29 881 l 935 881 l 935 819 m 831 560 q 879 539 858 560 q 900 490 900 518 q 879 442 900 463 q 831 421 858 421 q 782 442 803 421 q 761 490 761 463 q 782 539 761 518 q 831 560 803 560 z "},"च":{"ha":888,"x_min":-28,"x_max":888,"o":"m 888 819 l 724 819 l 724 0 l 653 0 l 653 318 q 516 215 589 254 q 375 176 443 176 q 226 228 282 176 q 169 361 169 281 q 200 464 169 419 q 283 538 231 508 l 69 538 l 69 599 l 464 599 l 464 542 q 307 483 374 532 q 240 361 240 435 q 274 272 240 306 q 374 239 308 239 q 515 282 446 239 q 653 396 583 325 l 653 819 l -28 819 l -28 881 l 888 881 l 888 819 z "},"छ":{"ha":1011,"x_min":-28,"x_max":1011,"o":"m 714 819 l 714 661 q 842 590 792 650 q 892 428 892 529 q 843 264 892 346 q 942 180 906 226 q 978 68 978 133 q 864 -183 978 -53 l 807 -143 q 878 -44 849 -101 q 907 68 907 14 q 881 146 907 113 q 806 211 854 179 q 619 66 732 122 q 392 10 507 10 q 224 65 286 10 q 161 211 161 119 q 201 322 161 275 q 105 394 138 356 q 72 490 72 433 q 125 607 72 563 q 263 651 178 651 q 363 631 317 651 l 350 574 q 264 589 311 589 q 176 562 208 589 q 143 490 143 535 q 168 422 143 450 q 254 365 193 393 q 363 394 303 394 q 449 379 415 394 l 436 324 q 365 332 411 332 q 268 299 304 332 q 232 213 232 265 q 275 106 232 139 q 390 72 318 72 q 588 120 493 72 q 746 244 683 168 q 660 291 735 251 q 547 385 586 331 q 508 503 508 439 q 546 609 508 568 q 643 660 583 650 l 643 819 l -28 819 l -28 881 l 1011 881 l 1011 819 l 714 819 m 821 429 q 781 557 821 513 q 679 601 740 601 q 609 578 639 601 q 579 503 579 554 q 607 420 579 456 q 670 363 635 385 q 783 299 706 340 q 821 429 821 365 z "},"ज":{"ha":985,"x_min":-28,"x_max":985,"o":"m 985 819 l 821 819 l 821 0 l 750 0 l 750 528 l 444 528 q 557 435 517 485 q 597 321 597 385 q 542 199 597 246 q 408 153 486 153 q 185 257 272 153 q 33 565 99 361 l 92 594 q 222 313 147 413 q 400 214 297 214 q 494 244 461 214 q 526 321 526 274 q 476 431 526 382 q 319 543 425 481 l 338 589 l 750 589 l 750 819 l -28 819 l -28 881 l 985 881 l 985 819 z "},"झ":{"ha":1031,"x_min":-28,"x_max":1031,"o":"m 1031 819 l 867 819 l 867 0 l 796 0 l 796 347 q 730 319 772 332 q 644 307 688 307 q 579 314 614 307 q 583 271 583 293 q 547 166 583 213 q 447 92 510 119 q 313 60 385 64 l 440 -133 l 383 -169 l 233 64 q 138 100 174 74 q 103 163 103 126 q 126 217 103 196 q 194 239 150 238 l 269 125 q 292 124 278 124 q 407 144 357 124 q 485 200 457 165 q 513 276 513 235 q 499 332 513 304 q 467 376 486 360 q 382 350 428 360 q 294 340 336 340 q 145 390 196 340 q 94 517 94 440 q 138 625 94 582 q 261 668 181 668 l 442 668 l 442 819 l -28 819 l -28 881 l 1031 881 l 1031 819 m 796 819 l 511 819 l 511 607 l 261 607 q 190 581 215 607 q 165 511 165 556 q 199 433 165 463 q 292 403 233 403 q 393 417 340 403 q 490 458 446 432 q 553 382 526 426 q 644 369 606 369 q 796 418 736 369 l 796 819 z "},"ञ":{"ha":943,"x_min":-28,"x_max":943,"o":"m 943 819 l 779 819 l 779 0 l 708 0 l 708 378 q 607 361 658 361 q 582 363 590 361 q 509 250 567 292 q 357 208 451 208 q 180 269 258 208 q 10 453 101 331 l 57 493 q 206 326 138 382 q 353 269 275 269 q 474 309 432 269 q 515 410 515 349 q 481 511 515 472 q 392 550 446 550 q 319 533 350 550 q 249 485 288 517 l 214 539 q 394 613 297 613 q 525 564 469 613 q 586 425 581 515 q 607 424 593 424 q 708 442 661 424 l 708 819 l -28 819 l -28 881 l 943 881 l 943 819 z "},"ट":{"ha":699,"x_min":-28,"x_max":699,"o":"m 500 568 q 251 498 342 554 q 160 347 160 442 q 213 210 160 260 q 371 160 267 160 q 499 178 429 160 q 639 232 568 197 l 665 178 q 514 117 590 138 q 371 97 438 97 q 164 163 239 97 q 89 347 89 228 q 180 527 89 458 q 429 622 271 596 l 429 819 l -28 819 l -28 881 l 699 881 l 699 819 l 500 819 l 500 568 z "},"ठ":{"ha":761,"x_min":-28,"x_max":763,"o":"m 763 819 l 496 819 q 528 718 528 769 q 506 615 528 664 q 628 490 585 561 q 672 342 672 418 q 634 206 672 268 q 528 109 596 144 q 375 74 461 74 q 228 106 293 74 q 126 199 163 139 q 89 339 89 258 q 188 540 89 463 q 443 646 288 618 q 457 717 457 683 q 424 819 457 761 l -28 819 l -28 881 l 763 881 l 763 819 m 601 342 q 574 443 601 394 q 510 528 547 492 q 442 576 472 564 q 308 539 372 568 q 201 459 243 510 q 160 340 160 408 q 222 188 160 240 q 375 136 283 136 q 492 164 440 136 q 573 239 544 192 q 601 342 601 286 z "},"ड":{"ha":765,"x_min":-29,"x_max":765,"o":"m 313 578 q 242 553 267 578 q 217 485 217 528 q 253 402 217 432 q 368 372 290 372 q 621 433 514 372 q 694 345 664 399 q 725 235 725 292 q 647 79 725 139 q 428 19 568 19 q 51 243 210 19 l 103 285 q 251 133 168 186 q 424 81 335 81 q 594 124 535 81 q 654 235 654 167 q 638 299 654 267 q 599 353 622 332 q 490 321 550 332 q 371 310 429 310 q 199 360 251 310 q 146 490 146 410 q 189 597 146 556 q 313 639 232 639 l 549 639 l 549 819 l -29 819 l -29 881 l 765 881 l 765 819 l 618 819 l 618 578 l 313 578 z "},"ढ":{"ha":732,"x_min":-28,"x_max":732,"o":"m 354 578 q 194 531 247 578 q 140 415 140 485 q 204 224 140 301 q 353 114 268 146 q 313 242 313 169 q 363 372 313 322 q 486 421 413 421 q 610 372 561 421 q 660 242 660 322 q 591 94 660 146 q 425 43 522 43 q 259 91 342 43 q 123 224 176 139 q 69 414 69 308 q 140 577 69 515 q 354 639 211 639 l 481 639 l 481 819 l -28 819 l -28 881 l 732 881 l 732 819 l 550 819 l 550 578 l 354 578 m 486 358 q 413 327 442 358 q 383 240 383 296 q 397 164 383 201 q 433 100 411 126 q 549 140 508 101 q 589 240 589 178 q 560 328 589 297 q 486 358 531 358 z "},"ण":{"ha":1024,"x_min":-28,"x_max":1024,"o":"m 1024 819 l 860 819 l 860 0 l 789 0 l 789 819 l 538 819 l 538 478 q 478 328 538 382 q 335 274 419 274 q 191 328 250 274 q 132 478 132 382 l 132 819 l -28 819 l -28 881 l 1024 881 l 1024 819 m 467 819 l 203 819 l 203 476 q 238 375 203 414 q 335 336 272 336 q 432 375 397 336 q 467 476 467 414 l 467 819 z "},"त":{"ha":797,"x_min":-28,"x_max":797,"o":"m 797 819 l 633 819 l 633 0 l 564 0 l 564 528 l 319 528 q 208 494 247 528 q 169 396 169 460 q 222 228 169 308 q 375 49 274 149 l 329 1 q 99 400 99 219 q 152 538 99 488 q 318 589 206 589 l 564 589 l 564 819 l -28 819 l -28 881 l 797 881 l 797 819 z "},"थ":{"ha":883,"x_min":72,"x_max":883,"o":"m 883 819 l 719 819 l 719 0 l 650 0 l 650 325 q 375 204 518 204 q 201 261 272 204 q 106 422 131 318 q 322 567 268 469 q 285 565 308 565 q 126 618 181 565 q 72 747 72 671 q 118 858 72 815 q 238 901 164 901 q 372 841 322 901 q 421 678 421 781 q 361 510 421 590 q 190 383 301 429 q 260 298 213 329 q 375 267 307 267 q 520 306 446 267 q 650 407 594 346 l 650 819 l 468 819 l 468 881 l 883 881 l 883 819 m 143 747 q 180 662 143 699 q 313 625 217 625 q 344 626 333 625 q 350 681 350 650 q 320 794 350 749 q 238 839 290 839 q 170 814 197 839 q 143 747 143 789 z "},"द":{"ha":746,"x_min":-28,"x_max":746,"o":"m 372 578 q 213 528 263 578 q 163 396 163 478 q 197 264 163 318 q 288 183 232 210 q 403 156 343 156 q 494 168 449 156 l 444 274 q 489 316 461 299 q 543 333 517 333 q 603 308 582 333 q 625 247 625 282 q 576 149 625 189 l 690 -86 l 631 -117 l 521 114 q 400 93 469 93 q 250 129 321 93 q 135 234 179 165 q 90 396 90 303 q 160 574 90 508 q 374 639 231 639 l 475 639 l 475 819 l -28 819 l -28 881 l 746 881 l 746 819 l 544 819 l 544 578 l 372 578 z "},"ध":{"ha":875,"x_min":81,"x_max":875,"o":"m 875 819 l 711 819 l 711 0 l 642 0 l 642 321 q 375 204 508 204 q 221 260 281 204 q 161 406 161 315 q 179 483 161 447 q 229 543 197 518 q 81 768 81 644 q 126 876 81 832 q 243 921 171 921 q 342 887 303 921 q 393 796 382 853 l 324 779 q 243 858 310 858 q 175 832 199 858 q 151 769 151 806 q 299 579 151 667 q 363 589 328 589 q 449 574 415 589 l 436 518 q 371 526 411 526 q 269 493 306 526 q 232 407 232 460 q 273 301 232 335 q 374 267 314 267 q 509 301 447 267 q 642 399 571 336 l 642 819 l 492 819 l 492 881 l 875 881 l 875 819 z "},"न":{"ha":775,"x_min":-28,"x_max":775,"o":"m 775 819 l 611 819 l 611 0 l 540 0 l 540 461 l 215 461 l 215 360 q 167 350 192 350 q 93 378 122 350 q 64 449 64 407 q 178 522 64 522 l 540 522 l 540 819 l -28 819 l -28 881 l 775 881 l 775 819 z "},"ऩ":{"ha":775,"x_min":-28,"x_max":775,"o":"m 0 0 m 775 819 l 611 819 l 611 0 l 540 0 l 540 461 l 215 461 l 215 360 q 167 350 192 350 q 93 378 122 350 q 64 449 64 407 q 178 522 64 522 l 540 522 l 540 819 l -28 819 l -28 881 l 775 881 l 775 819 m 226 96 q 247 144 226 124 q 296 165 268 165 q 344 144 324 165 q 365 96 365 124 q 344 47 365 68 q 296 26 324 26 q 247 47 268 26 q 226 96 226 68 z "},"प":{"ha":754,"x_min":-28,"x_max":754,"o":"m 754 819 l 590 819 l 590 0 l 519 0 l 519 347 q 332 278 433 278 q 184 333 235 278 q 133 489 133 388 l 133 819 l -28 819 l -28 881 l 754 881 l 754 819 m 519 819 l 204 819 l 204 488 q 239 378 204 415 q 333 342 274 342 q 431 362 388 342 q 519 422 475 382 l 519 819 z "},"फ":{"ha":1093,"x_min":-28,"x_max":1093,"o":"m 590 488 q 702 576 650 544 q 815 608 754 608 q 963 548 910 608 q 1017 393 1017 488 q 977 247 1017 308 q 860 131 938 186 l 813 183 q 913 276 879 228 q 946 389 946 325 q 912 503 946 460 q 817 546 878 546 q 710 509 764 546 q 590 404 657 472 l 590 0 l 519 0 l 519 347 q 332 278 433 278 q 184 333 235 278 q 133 489 133 388 l 133 819 l -28 819 l -28 881 l 1093 881 l 1093 819 l 590 819 l 590 488 m 519 819 l 204 819 l 204 488 q 239 378 204 415 q 333 342 274 342 q 431 362 388 342 q 519 422 475 382 l 519 819 z "},"ब":{"ha":869,"x_min":-28,"x_max":869,"o":"m 869 819 l 706 819 l 706 0 l 635 0 l 635 311 q 489 200 560 242 q 335 158 418 158 q 201 190 257 158 q 115 275 144 222 q 86 388 86 328 q 122 519 86 461 q 215 608 157 576 q 342 640 274 640 q 505 597 428 640 q 635 492 582 553 l 635 819 l -28 819 l -28 881 l 869 881 l 869 819 m 488 274 q 635 396 563 319 l 635 401 q 501 528 575 481 q 350 576 428 576 q 293 569 324 576 l 488 274 m 333 221 q 432 243 379 221 l 235 543 q 178 478 199 518 q 157 392 157 439 q 206 269 157 318 q 333 221 256 221 z "},"भ":{"ha":944,"x_min":68,"x_max":944,"o":"m 944 819 l 781 819 l 781 0 l 710 0 l 710 349 l 393 349 l 393 247 q 333 236 365 236 q 249 265 283 236 q 214 336 214 294 q 322 410 214 408 l 322 535 q 129 602 190 547 q 68 740 68 657 q 112 853 68 806 q 226 901 156 901 q 347 851 301 901 q 393 699 393 800 l 393 410 l 710 410 l 710 819 l 463 819 l 463 881 l 944 881 l 944 819 m 139 740 q 185 643 139 681 q 322 599 231 606 l 322 699 q 296 803 322 768 q 226 839 269 839 q 164 812 189 839 q 139 740 139 785 z "},"म":{"ha":819,"x_min":-28,"x_max":819,"o":"m 819 819 l 656 819 l 656 0 l 585 0 l 585 376 l 244 376 l 244 275 q 185 264 217 264 q 100 293 135 264 q 65 364 65 322 q 174 438 65 436 l 174 819 l -28 819 l -28 881 l 819 881 l 819 819 m 585 819 l 244 819 l 244 438 l 585 438 l 585 819 z "},"य":{"ha":822,"x_min":-28,"x_max":822,"o":"m 822 819 l 658 819 l 658 0 l 589 0 l 589 325 q 328 204 456 204 q 147 269 221 204 q 44 450 72 333 q 210 528 160 483 q 261 639 261 574 q 223 736 261 692 q 111 819 185 781 l -28 819 l -28 881 l 822 881 l 822 819 m 589 819 l 221 819 q 304 738 276 782 q 332 636 332 693 q 281 508 332 568 q 129 410 229 447 q 206 305 156 343 q 328 267 256 267 q 465 307 394 267 q 589 407 535 347 l 589 819 z "},"र":{"ha":510,"x_min":-28,"x_max":510,"o":"m 510 819 l 315 819 q 372 567 372 678 q 347 467 372 507 q 285 408 322 426 q 210 389 247 389 q 169 397 189 389 q 199 334 179 365 q 258 260 219 303 l 472 25 l 424 -22 l 224 200 q 138 309 167 264 q 99 399 110 354 q 89 514 89 444 l 158 519 l 158 467 q 204 453 174 453 q 271 481 239 453 q 303 568 303 508 q 286 694 303 626 q 243 819 269 761 l -28 819 l -28 881 l 510 881 l 510 819 z "},"ऱ":{"ha":510,"x_min":-28,"x_max":510,"o":"m 0 0 m 510 819 l 315 819 q 372 567 372 678 q 347 467 372 507 q 285 408 322 426 q 210 389 247 389 q 169 397 189 389 q 199 334 179 365 q 258 260 219 303 l 472 25 l 424 -22 l 224 200 q 138 309 167 264 q 99 399 110 354 q 89 514 89 444 l 158 519 l 158 467 q 204 453 174 453 q 271 481 239 453 q 303 568 303 508 q 286 694 303 626 q 243 819 269 761 l -28 819 l -28 881 l 510 881 l 510 819 m 69 42 q 90 90 69 69 q 139 111 111 111 q 188 90 167 111 q 208 42 208 69 q 188 -7 208 14 q 139 -28 167 -28 q 90 -7 111 -28 q 69 42 69 14 z "},"ल":{"ha":969,"x_min":-28,"x_max":969,"o":"m 969 819 l 806 819 l 806 0 l 735 0 l 735 497 q 658 519 699 519 q 535 455 578 519 q 492 279 493 390 l 421 292 q 442 417 422 356 q 360 512 399 481 q 271 543 322 543 q 183 503 217 543 q 150 389 150 464 q 209 198 150 286 q 371 26 268 110 l 325 -21 q 142 181 206 82 q 78 397 78 279 q 131 553 78 499 q 271 607 185 607 q 384 573 336 607 q 474 485 432 539 q 552 558 506 533 q 654 583 599 583 q 735 567 694 583 l 735 819 l -28 819 l -28 881 l 969 881 l 969 819 z "},"ळ":{"ha":1057,"x_min":-28,"x_max":1057,"o":"m 811 819 l 811 643 q 935 563 888 626 q 982 401 982 499 q 919 221 982 286 q 757 156 856 156 q 622 194 672 156 q 529 299 571 233 q 442 194 492 231 q 326 157 393 157 q 165 224 229 157 q 101 404 101 290 q 165 585 101 519 q 326 650 228 650 q 462 610 411 650 q 554 506 513 571 q 635 607 590 571 q 740 649 681 643 l 740 819 l -28 819 l -28 881 l 1057 881 l 1057 819 l 811 819 m 324 219 q 428 267 386 219 q 506 401 471 315 q 515 426 511 415 q 524 444 519 436 q 442 548 489 508 q 324 588 396 588 q 213 538 254 588 q 172 404 172 489 q 213 269 172 319 q 324 219 254 219 m 911 401 q 870 536 911 486 q 760 586 829 586 q 655 538 697 586 q 578 404 613 490 q 568 380 572 390 q 560 361 564 369 q 641 258 594 297 q 760 218 688 218 q 870 267 829 218 q 911 401 911 317 z "},"ऴ":{"ha":1057,"x_min":-28,"x_max":1057,"o":"m 0 0 m 811 819 l 811 643 q 935 563 888 626 q 982 401 982 499 q 919 221 982 286 q 757 156 856 156 q 622 194 672 156 q 529 299 571 233 q 442 194 492 231 q 326 157 393 157 q 165 224 229 157 q 101 404 101 290 q 165 585 101 519 q 326 650 228 650 q 462 610 411 650 q 554 506 513 571 q 635 607 590 571 q 740 649 681 643 l 740 819 l -28 819 l -28 881 l 1057 881 l 1057 819 l 811 819 m 324 219 q 428 267 386 219 q 506 401 471 315 q 515 426 511 415 q 524 444 519 436 q 442 548 489 508 q 324 588 396 588 q 213 538 254 588 q 172 404 172 489 q 213 269 172 319 q 324 219 254 219 m 911 401 q 870 536 911 486 q 760 586 829 586 q 655 538 697 586 q 578 404 613 490 q 568 380 572 390 q 560 361 564 369 q 641 258 594 297 q 760 218 688 218 q 870 267 829 218 q 911 401 911 317 m 460 54 q 481 103 460 82 q 529 124 501 124 q 578 103 557 124 q 599 54 599 82 q 578 6 599 26 q 529 -15 557 -15 q 481 6 501 -15 q 460 54 460 26 z "},"व":{"ha":869,"x_min":-28,"x_max":869,"o":"m 869 819 l 706 819 l 706 0 l 635 0 l 635 311 q 489 200 560 242 q 335 158 418 158 q 201 190 257 158 q 115 275 144 222 q 86 388 86 328 q 122 519 86 461 q 215 608 157 576 q 342 640 274 640 q 505 597 428 640 q 635 492 582 553 l 635 819 l -28 819 l -28 881 l 869 881 l 869 819 m 333 221 q 482 269 403 221 q 635 396 561 318 l 635 401 q 501 528 575 481 q 350 576 428 576 q 212 524 267 576 q 157 392 157 471 q 206 269 157 318 q 333 221 256 221 z "},"श":{"ha":969,"x_min":-28,"x_max":969,"o":"m 969 819 l 806 819 l 806 0 l 736 0 l 736 819 l 475 819 q 554 628 554 754 q 510 470 554 543 q 399 345 467 397 q 254 263 331 293 l 406 15 l 349 -21 l 186 256 q 99 284 131 261 q 68 339 68 307 q 92 393 68 372 q 160 415 115 414 l 219 318 q 331 373 278 338 q 419 456 383 408 q 227 563 294 499 q 160 711 160 628 q 203 819 160 779 l -28 819 l -28 881 l 969 881 l 969 819 m 483 628 q 441 764 483 708 q 333 819 399 819 q 260 792 290 819 q 231 711 231 765 q 293 594 231 646 q 457 513 356 542 q 483 628 483 569 z "},"ष":{"ha":779,"x_min":-28,"x_max":779,"o":"m 779 819 l 615 819 l 615 0 l 544 0 l 544 311 q 446 256 492 275 q 346 236 400 236 q 188 291 242 236 q 133 447 133 346 l 133 819 l -28 819 l -28 881 l 779 881 l 779 819 m 544 819 l 204 819 l 204 817 l 206 819 l 544 468 l 544 819 m 347 300 q 446 322 400 300 q 544 381 492 343 l 544 382 l 204 736 l 204 446 q 242 337 204 374 q 347 300 281 300 z "},"स":{"ha":876,"x_min":-28,"x_max":879,"o":"m 879 819 l 715 819 l 715 0 l 644 0 l 644 357 q 578 328 622 342 q 490 315 535 315 q 367 335 422 315 q 261 397 311 354 q 210 389 233 389 q 169 397 189 389 q 199 334 179 365 q 258 260 219 303 l 472 25 l 424 -22 l 224 200 q 138 309 167 264 q 99 399 110 354 q 89 514 89 444 l 158 519 l 158 467 q 204 453 174 453 q 271 481 239 453 q 303 568 303 508 q 286 694 303 626 q 243 819 269 761 l -28 819 l -28 881 l 879 881 l 879 819 m 644 819 l 315 819 q 372 567 372 678 q 321 433 372 485 q 399 392 354 407 q 490 378 444 378 q 644 428 583 378 l 644 819 z "},"ह":{"ha":756,"x_min":-29,"x_max":753,"o":"m 260 583 q 189 558 214 583 q 164 488 164 532 q 183 429 164 451 q 244 388 203 407 q 414 443 311 443 q 528 420 475 443 q 613 356 581 397 q 644 258 644 314 q 612 143 644 189 q 524 51 579 97 l 479 103 q 550 174 526 138 q 574 258 574 211 q 529 345 574 308 q 414 382 485 382 q 283 339 329 382 q 236 224 236 296 q 315 48 236 124 q 553 -110 393 -28 l 519 -167 q 255 19 344 -79 q 165 222 165 117 q 200 338 165 285 q 119 406 146 371 q 93 493 93 442 q 136 601 93 558 q 260 644 179 644 l 496 644 l 496 819 l -29 819 l -29 881 l 753 881 l 753 819 l 565 819 l 565 583 l 260 583 z "},"क़":{"ha":1150,"x_min":-28,"x_max":1150,"o":"m 0 0 m 631 819 l 631 468 q 712 542 679 515 q 788 590 744 569 q 878 610 831 610 q 1026 549 972 610 q 1079 394 1079 489 q 1040 249 1079 310 q 922 132 1000 188 l 875 185 q 975 278 942 229 q 1008 390 1008 326 q 973 506 1008 464 q 879 547 938 547 q 764 505 821 547 q 631 382 707 463 l 631 0 l 560 0 l 560 318 q 431 222 492 257 q 297 186 369 186 q 178 215 228 186 q 102 289 128 243 q 76 388 76 335 q 108 504 76 453 q 192 584 139 556 q 304 613 244 613 q 442 578 378 613 q 560 489 507 543 l 560 819 l -28 819 l -28 881 l 1150 881 l 1150 819 l 631 819 m 296 249 q 560 399 407 249 l 560 403 q 313 549 438 549 q 194 504 242 549 q 147 392 147 460 q 188 289 147 329 q 296 249 229 249 m 178 -1 q 199 47 178 26 q 247 68 219 68 q 296 47 275 68 q 317 -1 317 26 q 296 -50 317 -29 q 247 -71 275 -71 q 199 -50 219 -71 q 178 -1 178 -29 z "},"ख़":{"ha":1094,"x_min":-28,"x_max":1094,"o":"m 0 0 m 1094 819 l 935 819 l 935 -15 l 864 -15 l 864 168 q 710 74 800 108 q 524 40 621 40 q 201 171 314 40 q 89 528 89 301 l 158 533 q 160 479 158 497 q 199 467 174 467 q 275 579 275 467 q 265 697 275 626 q 240 819 256 767 l -28 819 l -28 881 l 1094 881 l 1094 819 m 864 819 l 311 819 q 344 578 344 672 q 306 447 344 490 q 210 403 267 403 q 168 411 188 403 q 287 183 196 263 q 524 103 378 103 q 707 142 614 103 q 864 253 800 182 l 864 369 q 743 285 801 317 q 617 253 685 253 q 509 280 554 253 q 440 351 464 307 q 417 447 417 396 q 445 560 417 511 q 521 635 474 608 q 624 663 568 663 q 758 629 692 663 q 864 551 824 596 l 864 819 m 864 458 q 754 561 815 522 q 624 600 693 600 q 526 558 564 600 q 488 451 488 515 q 524 354 488 393 q 617 315 560 315 q 739 356 674 315 q 864 458 804 396 m 122 -1 q 143 47 122 26 q 192 68 164 68 q 240 47 219 68 q 261 -1 261 26 q 240 -50 261 -29 q 192 -71 219 -71 q 143 -50 164 -71 q 122 -1 122 -29 z "},"ग़":{"ha":826,"x_min":-28,"x_max":826,"o":"m 0 0 m 826 819 l 663 819 l 663 0 l 592 0 l 592 819 l 290 819 l 290 413 q 269 328 290 357 q 211 299 247 299 q 138 327 167 299 q 108 400 108 356 q 118 450 108 425 l 219 450 l 219 819 l -28 819 l -28 881 l 826 881 l 826 819 m 150 96 q 171 144 150 124 q 219 165 192 165 q 268 144 247 165 q 289 96 289 124 q 268 47 289 68 q 219 26 247 26 q 171 47 192 26 q 150 96 150 68 z "},"ज़":{"ha":985,"x_min":-28,"x_max":985,"o":"m 0 0 m 985 819 l 821 819 l 821 0 l 750 0 l 750 528 l 444 528 q 557 435 517 485 q 597 321 597 385 q 542 199 597 246 q 408 153 486 153 q 185 257 272 153 q 33 565 99 361 l 92 594 q 222 313 147 413 q 400 214 297 214 q 494 244 461 214 q 526 321 526 274 q 476 431 526 382 q 319 543 425 481 l 338 589 l 750 589 l 750 819 l -28 819 l -28 881 l 985 881 l 985 819 m 83 40 q 104 89 83 68 q 153 110 125 110 q 201 89 181 110 q 222 40 222 68 q 201 -8 222 13 q 153 -29 181 -29 q 104 -8 125 -29 q 83 40 83 13 z "},"ड़":{"ha":765,"x_min":-29,"x_max":765,"o":"m 0 0 m 313 578 q 242 553 267 578 q 217 485 217 528 q 253 402 217 432 q 368 372 290 372 q 621 433 514 372 q 694 345 664 399 q 725 235 725 292 q 647 79 725 139 q 428 19 568 19 q 51 243 210 19 l 103 285 q 251 133 168 186 q 424 81 335 81 q 594 124 535 81 q 654 235 654 167 q 638 299 654 267 q 599 353 622 332 q 490 321 550 332 q 371 310 429 310 q 199 360 251 310 q 146 490 146 410 q 189 597 146 556 q 313 639 232 639 l 549 639 l 549 819 l -29 819 l -29 881 l 765 881 l 765 819 l 618 819 l 618 578 l 313 578 m 358 -182 q 379 -133 358 -154 q 428 -112 400 -112 q 476 -133 456 -112 q 497 -182 497 -154 q 476 -231 497 -210 q 428 -251 456 -251 q 379 -231 400 -251 q 358 -182 358 -210 z "},"ढ़":{"ha":732,"x_min":-28,"x_max":732,"o":"m 0 0 m 354 578 q 194 531 247 578 q 140 415 140 485 q 204 224 140 301 q 353 114 268 146 q 313 242 313 169 q 363 372 313 322 q 486 421 413 421 q 610 372 561 421 q 660 242 660 322 q 591 94 660 146 q 425 43 522 43 q 259 91 342 43 q 123 224 176 139 q 69 414 69 308 q 140 577 69 515 q 354 639 211 639 l 481 639 l 481 819 l -28 819 l -28 881 l 732 881 l 732 819 l 550 819 l 550 578 l 354 578 m 486 358 q 413 327 442 358 q 383 240 383 296 q 397 164 383 201 q 433 100 411 126 q 549 140 508 101 q 589 240 589 178 q 560 328 589 297 q 486 358 531 358 m 339 -140 q 360 -92 339 -112 q 408 -71 381 -71 q 457 -92 436 -71 q 478 -140 478 -112 q 457 -189 478 -168 q 408 -210 436 -210 q 360 -189 381 -210 q 339 -140 339 -168 z "},"फ़":{"ha":1093,"x_min":-28,"x_max":1093,"o":"m 0 0 m 590 488 q 702 576 650 544 q 815 608 754 608 q 963 548 910 608 q 1017 393 1017 488 q 977 247 1017 308 q 860 131 938 186 l 813 183 q 913 276 879 228 q 946 389 946 325 q 912 503 946 460 q 817 546 878 546 q 710 509 764 546 q 590 404 657 472 l 590 0 l 519 0 l 519 347 q 332 278 433 278 q 184 333 235 278 q 133 489 133 388 l 133 819 l -28 819 l -28 881 l 1093 881 l 1093 819 l 590 819 l 590 488 m 519 819 l 204 819 l 204 488 q 239 378 204 415 q 333 342 274 342 q 431 362 388 342 q 519 422 475 382 l 519 819 m 129 94 q 150 143 129 122 q 199 164 171 164 q 247 143 226 164 q 268 94 268 122 q 247 46 268 67 q 199 25 226 25 q 150 46 171 25 q 129 94 129 67 z "},"य़":{"ha":822,"x_min":-28,"x_max":822,"o":"m 0 0 m 822 819 l 658 819 l 658 0 l 589 0 l 589 325 q 328 204 456 204 q 147 269 221 204 q 44 450 72 333 q 210 528 160 483 q 261 639 261 574 q 223 736 261 692 q 111 819 185 781 l -28 819 l -28 881 l 822 881 l 822 819 m 589 819 l 221 819 q 304 738 276 782 q 332 636 332 693 q 281 508 332 568 q 129 410 229 447 q 206 305 156 343 q 328 267 256 267 q 465 307 394 267 q 589 407 535 347 l 589 819 m 32 103 q 53 151 32 131 q 101 172 74 172 q 150 151 129 172 q 171 103 171 131 q 150 54 171 75 q 101 33 129 33 q 53 54 74 33 q 32 103 32 75 z "},"ॹ":{"ha":985,"x_min":-28,"x_max":985,"o":"m 0 0 m 985 819 l 821 819 l 821 0 l 750 0 l 750 528 l 444 528 q 557 435 517 485 q 597 321 597 385 q 542 199 597 246 q 408 153 486 153 q 185 257 272 153 q 33 565 99 361 l 92 594 q 222 313 147 413 q 400 214 297 214 q 494 244 461 214 q 526 321 526 274 q 476 431 526 382 q 319 543 425 481 l 338 589 l 750 589 l 750 819 l -28 819 l -28 881 l 985 881 l 985 819 m 211 -44 q 232 4 211 -17 q 281 25 253 25 q 329 4 308 25 q 350 -44 350 -17 q 329 -93 350 -72 q 281 -114 308 -114 q 232 -93 253 -114 q 211 -44 211 -72 m 475 -44 q 496 4 475 -17 q 544 25 517 25 q 593 4 572 25 q 614 -44 614 -17 q 593 -93 614 -72 q 544 -114 572 -114 q 496 -93 517 -114 q 475 -44 475 -72 m 343 -182 q 364 -133 343 -154 q 413 -112 385 -112 q 461 -133 440 -112 q 482 -182 482 -154 q 461 -231 482 -210 q 413 -251 440 -251 q 364 -231 385 -251 q 343 -182 343 -210 z "},"ॺ":{"ha":822,"x_min":-28,"x_max":822,"o":"m 822 819 l 658 819 l 658 0 l 589 0 l 589 325 q 328 204 456 204 q 147 269 221 204 q 44 450 72 333 q 210 528 160 483 q 261 639 261 574 q 223 736 261 692 q 111 819 185 781 l -28 819 l -28 881 l 822 881 l 822 819 m 589 819 l 221 819 q 294 750 267 788 l 589 411 l 589 819 m 129 410 q 206 305 156 343 q 328 267 256 267 q 439 294 382 267 q 547 365 496 321 l 331 617 q 273 499 324 554 q 129 410 222 444 z "},"ॻ":{"ha":826,"x_min":-28,"x_max":826,"o":"m 826 819 l 663 819 l 663 0 l 119 0 l 119 61 l 592 61 l 592 819 l 290 819 l 290 413 q 269 328 290 357 q 211 299 247 299 q 138 327 167 299 q 108 400 108 356 q 118 450 108 425 l 219 450 l 219 819 l -28 819 l -28 881 l 826 881 l 826 819 z "},"ॼ":{"ha":985,"x_min":-28,"x_max":985,"o":"m 985 819 l 821 819 l 821 0 l 60 0 l 60 61 l 750 61 l 750 528 l 444 528 q 557 435 517 485 q 597 321 597 385 q 542 199 597 246 q 408 153 486 153 q 185 257 272 153 q 33 565 99 361 l 92 594 q 222 313 147 413 q 400 214 297 214 q 494 244 461 214 q 526 321 526 274 q 476 431 526 382 q 319 543 425 481 l 338 589 l 750 589 l 750 819 l -28 819 l -28 881 l 985 881 l 985 819 z "},"ॾ":{"ha":765,"x_min":-29,"x_max":765,"o":"m 313 578 q 242 553 267 578 q 217 485 217 528 q 253 402 217 432 q 368 372 290 372 q 621 433 514 372 q 694 345 664 399 q 725 235 725 292 q 647 79 725 139 q 428 19 568 19 q 51 243 210 19 l 103 285 q 251 133 168 186 q 424 81 335 81 q 594 124 535 81 q 654 235 654 167 q 638 299 654 267 q 599 353 622 332 q 490 321 550 332 q 371 310 429 310 q 199 360 251 310 q 146 490 146 410 q 189 597 146 556 q 313 639 232 639 l 549 639 l 549 819 l -29 819 l -29 881 l 765 881 l 765 819 l 618 819 l 618 578 l 313 578 m 75 -153 l 706 -153 l 706 -214 l 75 -214 l 75 -153 z "},"ॿ":{"ha":875,"x_min":-28,"x_max":869,"o":"m 869 819 l 706 819 l 706 0 l 115 0 l 115 61 l 635 61 l 635 311 q 489 200 560 242 q 335 158 418 158 q 201 190 257 158 q 115 275 144 222 q 86 388 86 328 q 122 519 86 461 q 215 608 157 576 q 342 640 274 640 q 505 597 428 640 q 635 492 582 553 l 635 819 l -28 819 l -28 881 l 869 881 l 869 819 m 488 274 q 635 396 563 319 l 635 401 q 501 528 575 481 q 350 576 428 576 q 293 569 324 576 l 488 274 m 333 221 q 432 243 379 221 l 235 543 q 178 478 199 518 q 157 392 157 439 q 206 269 157 318 q 333 221 256 221 z "},"⁄":{"ha":122,"x_min":-237,"x_max":367,"o":"m 367 933 l -189 -28 l -237 1 l 318 963 l 367 933 z "},"½":{"ha":1122,"x_min":71,"x_max":1089,"o":"m 71 0 m 894 933 l 339 -28 l 290 1 l 846 963 l 894 933 m 372 431 l 372 378 l 90 378 l 90 431 l 201 431 l 201 864 l 107 774 l 71 814 l 210 944 l 261 944 l 261 431 l 372 431 m 725 476 q 807 552 764 528 q 904 576 850 576 q 1028 533 982 576 q 1074 415 1074 489 q 1039 292 1074 353 q 911 140 1004 231 l 824 54 l 824 53 l 1089 53 l 1089 0 l 733 0 l 733 43 l 881 186 q 984 313 954 258 q 1014 415 1014 367 q 984 496 1014 467 q 904 525 954 525 q 831 507 863 525 q 763 444 800 489 l 725 476 z "},"¼":{"ha":1081,"x_min":71,"x_max":1078,"o":"m 71 0 m 894 933 l 339 -28 l 290 1 l 846 963 l 894 933 m 372 431 l 372 378 l 90 378 l 90 431 l 201 431 l 201 864 l 107 774 l 71 814 l 210 944 l 261 944 l 261 431 l 372 431 m 1078 157 l 985 157 l 985 0 l 925 0 l 925 157 l 668 157 l 668 193 l 933 567 l 985 567 l 985 208 l 1078 208 l 1078 157 m 925 208 l 925 461 l 821 317 l 744 208 l 925 208 z "},"¾":{"ha":1019,"x_min":15,"x_max":1017,"o":"m 15 0 m 833 933 l 278 -28 l 229 1 l 785 963 l 833 933 m 256 682 q 353 638 314 676 q 393 539 393 599 q 338 414 393 465 q 194 363 283 363 q 92 380 133 363 q 15 442 50 397 l 51 481 q 117 428 86 442 q 194 414 149 414 q 293 449 254 414 q 332 538 332 483 q 299 617 332 588 q 206 647 265 647 q 124 633 165 647 l 110 683 q 217 716 178 700 q 279 758 257 732 q 301 829 301 785 q 278 883 301 863 q 213 903 254 903 q 68 825 135 903 l 32 854 q 116 928 68 903 q 213 954 164 954 q 322 920 281 954 q 363 829 363 886 q 333 741 363 779 q 256 682 304 703 m 1017 157 l 924 157 l 924 0 l 864 0 l 864 157 l 607 157 l 607 193 l 872 567 l 924 567 l 924 208 l 1017 208 l 1017 157 m 864 208 l 864 461 l 760 317 l 683 208 l 864 208 z "},"¹":{"ha":417,"x_min":71,"x_max":372,"o":"m 372 708 l 372 656 l 90 656 l 90 708 l 201 708 l 201 1142 l 107 1051 l 71 1092 l 210 1222 l 261 1222 l 261 708 l 372 708 z "},"²":{"ha":417,"x_min":19,"x_max":383,"o":"m 19 1132 q 101 1208 58 1183 q 199 1232 144 1232 q 322 1188 276 1232 q 368 1071 368 1144 q 333 947 368 1008 q 206 796 299 886 l 118 710 l 118 708 l 383 708 l 383 656 l 28 656 l 28 699 l 175 842 q 278 968 249 914 q 308 1071 308 1022 q 278 1151 308 1122 q 199 1181 249 1181 q 126 1163 157 1181 q 57 1100 94 1144 l 19 1132 z "},"³":{"ha":418,"x_min":15,"x_max":393,"o":"m 256 960 q 353 915 314 954 q 393 817 393 876 q 338 692 393 743 q 194 640 283 640 q 92 658 133 640 q 15 719 50 675 l 51 758 q 117 706 86 719 q 194 692 149 692 q 293 726 254 692 q 332 815 332 761 q 299 895 332 865 q 206 925 265 925 q 124 911 165 925 l 110 961 q 217 994 178 978 q 279 1036 257 1010 q 301 1107 301 1063 q 278 1160 301 1140 q 213 1181 254 1181 q 68 1103 135 1181 l 32 1132 q 116 1206 68 1181 q 213 1232 164 1232 q 322 1198 281 1232 q 363 1107 363 1164 q 333 1019 363 1057 q 256 960 304 981 z "},"०":{"ha":876,"x_min":163,"x_max":704,"o":"m 433 85 q 288 124 349 85 q 194 229 226 163 q 163 378 163 296 q 194 533 163 464 q 288 641 226 601 q 433 681 349 681 q 579 641 518 681 q 672 533 640 601 q 704 378 704 464 q 672 229 704 296 q 579 124 640 163 q 433 85 518 85 m 433 149 q 576 215 525 149 q 626 378 626 282 q 576 549 626 481 q 433 617 525 617 q 291 549 342 617 q 240 378 240 481 q 291 215 240 282 q 433 149 342 149 z "},"१":{"ha":876,"x_min":219,"x_max":685,"o":"m 617 7 q 671 -65 657 -35 q 685 -131 685 -96 q 675 -186 685 -161 q 642 -237 665 -211 l 574 -200 q 607 -126 607 -171 q 599 -87 607 -107 q 565 -40 592 -67 l 278 260 q 463 464 410 399 q 290 551 360 486 q 219 714 219 615 q 278 869 219 810 q 436 929 336 929 q 592 869 533 929 q 651 714 651 810 q 619 583 651 649 q 536 453 586 517 q 392 285 486 390 l 371 261 l 617 7 m 290 714 q 348 592 290 643 q 507 522 406 540 q 581 714 581 626 q 541 826 581 785 q 436 867 501 867 q 331 825 371 867 q 290 714 290 783 z "},"२":{"ha":876,"x_min":168,"x_max":707,"o":"m 707 621 q 622 399 707 488 q 393 264 538 310 l 636 -132 l 579 -168 l 319 258 q 237 287 267 265 q 207 339 207 308 q 231 393 207 372 q 299 415 254 414 l 357 321 q 562 430 488 354 q 636 621 636 506 q 577 781 636 718 q 422 844 518 844 q 201 772 324 844 l 168 828 q 422 907 297 907 q 570 872 506 907 q 671 771 635 836 q 707 621 707 706 z "},"३":{"ha":876,"x_min":153,"x_max":776,"o":"m 776 339 q 697 156 776 231 q 467 46 618 81 l 581 -132 l 524 -168 l 390 42 q 307 69 338 47 q 276 122 276 92 q 300 176 276 156 q 368 199 324 197 l 429 104 q 635 190 564 128 q 706 339 706 253 q 653 458 706 414 q 503 503 600 503 q 297 440 404 503 l 264 496 q 504 565 376 565 q 544 692 544 619 q 499 796 544 751 q 368 840 453 840 q 188 775 274 840 l 153 829 q 251 882 194 861 q 371 903 307 903 q 547 845 478 903 q 615 688 615 788 q 576 558 615 615 q 723 484 669 542 q 776 339 776 426 z "},"४":{"ha":876,"x_min":42,"x_max":822,"o":"m 492 572 q 635 413 589 488 q 682 261 682 339 q 653 154 682 204 q 573 74 625 104 q 454 44 521 44 q 335 74 388 44 q 255 154 283 104 q 226 261 226 204 q 266 404 226 333 q 394 567 306 475 q 93 785 311 632 l 42 821 l 76 875 q 442 613 340 693 q 599 756 504 674 q 710 853 693 839 l 788 921 l 822 869 q 785 837 803 853 q 747 804 767 821 q 629 699 715 775 q 492 572 543 622 m 454 107 q 566 151 521 107 q 611 261 611 194 q 572 389 611 328 q 444 525 533 450 q 332 383 367 444 q 297 261 297 322 q 342 151 297 194 q 454 107 388 107 z "},"५":{"ha":876,"x_min":181,"x_max":871,"o":"m 811 -167 l 610 224 q 518 182 568 197 q 419 167 468 167 q 248 231 315 167 q 181 414 181 294 q 338 881 181 601 l 396 849 q 288 614 324 717 q 251 414 251 511 q 299 274 251 319 q 422 229 346 229 q 504 242 461 229 q 581 279 547 256 l 521 394 q 565 437 538 419 q 619 454 593 454 q 680 428 658 454 q 701 368 701 403 q 657 264 701 311 l 871 -136 l 811 -167 z "},"६":{"ha":876,"x_min":78,"x_max":871,"o":"m 811 -167 l 669 106 q 572 62 626 78 q 464 46 517 46 q 260 108 342 46 q 178 281 178 169 q 247 451 178 382 q 117 563 157 506 q 78 694 78 621 q 106 801 78 751 q 188 880 135 850 q 311 910 242 910 q 449 885 378 910 l 435 822 q 311 847 381 847 q 191 802 233 847 q 149 696 149 757 q 181 591 149 639 q 303 494 213 543 q 554 565 399 553 l 561 506 q 249 281 249 482 q 310 152 249 196 q 467 108 372 108 q 559 122 511 108 q 642 160 607 135 l 582 274 q 626 316 599 299 q 681 333 654 333 q 741 308 719 333 q 763 247 763 282 q 718 144 763 192 l 871 -136 l 811 -167 z "},"७":{"ha":876,"x_min":53,"x_max":832,"o":"m 564 860 q 705 806 644 860 q 799 654 765 751 q 832 433 832 557 q 753 144 832 254 q 532 35 675 35 q 208 238 333 35 q 53 875 82 442 l 122 888 q 256 294 147 493 q 532 96 365 96 q 702 189 643 96 q 761 433 761 282 l 761 443 q 686 407 726 419 q 613 394 646 394 q 424 462 489 394 q 358 631 358 529 q 383 744 358 692 q 455 828 408 796 q 564 860 501 860 m 607 457 q 678 469 638 457 q 758 506 718 482 q 695 719 747 642 q 564 797 643 797 q 467 749 506 797 q 429 631 429 701 q 472 505 429 553 q 607 457 515 457 z "},"८":{"ha":876,"x_min":117,"x_max":758,"o":"m 385 -28 q 188 42 260 -28 q 117 233 117 113 q 169 424 117 328 q 299 607 221 519 q 522 842 376 694 l 603 922 l 649 879 l 628 858 q 386 612 472 706 q 244 421 300 518 q 188 233 188 324 q 238 90 188 144 q 385 35 289 35 q 555 80 471 35 q 715 221 639 125 l 758 179 q 585 26 679 79 q 385 -28 490 -28 z "},"९":{"ha":876,"x_min":92,"x_max":836,"o":"m 768 7 q 823 -65 810 -35 q 836 -131 836 -96 q 826 -186 836 -161 q 793 -237 817 -211 l 725 -200 q 758 -129 758 -171 q 751 -88 758 -108 q 715 -39 743 -68 l 231 447 q 185 491 225 453 q 119 588 146 529 q 92 714 92 647 q 152 869 92 810 q 315 929 213 929 q 467 870 410 929 q 524 714 524 811 q 460 560 524 622 q 299 472 396 497 l 768 7 m 315 867 q 203 826 244 867 q 163 714 163 785 q 185 615 163 660 q 249 525 207 571 q 398 594 343 543 q 453 714 453 646 q 414 825 453 783 q 315 867 375 867 z "},"*":{"ha":647,"x_min":47,"x_max":600,"o":"m 364 651 l 517 464 l 457 419 l 322 624 l 190 419 l 131 464 l 282 656 l 47 717 l 71 788 l 300 703 l 286 944 l 361 944 l 350 700 l 576 788 l 600 717 l 364 651 z "},"\\":{"ha":456,"x_min":-11,"x_max":467,"o":"m -11 983 l 68 983 l 467 -328 l 389 -328 l -11 983 z "},"·":{"ha":347,"x_min":115,"x_max":233,"o":"m 174 308 q 133 326 150 308 q 115 367 115 343 q 133 408 115 390 q 174 426 150 426 q 216 408 199 426 q 233 367 233 390 q 216 326 233 343 q 174 308 199 308 z "},"•":{"ha":656,"x_min":190,"x_max":465,"o":"m 326 235 q 231 275 271 235 q 190 371 190 315 q 231 469 190 428 q 326 510 271 510 q 424 469 383 510 q 465 371 465 428 q 424 275 465 315 q 326 235 383 235 z "},":":{"ha":347,"x_min":115,"x_max":233,"o":"m 174 542 q 133 559 150 542 q 115 600 115 576 q 133 642 115 624 q 174 660 150 660 q 216 642 199 660 q 233 600 233 624 q 216 559 233 576 q 174 542 199 542 m 174 -14 q 133 3 150 -14 q 115 44 115 21 q 133 86 115 68 q 174 104 150 104 q 216 86 199 104 q 233 44 233 68 q 216 3 233 21 q 174 -14 199 -14 z "},",":{"ha":347,"x_min":60,"x_max":217,"o":"m 60 -162 q 149 -1 149 -106 q 135 93 149 43 l 206 101 q 217 18 217 54 q 183 -114 217 -56 q 90 -203 149 -172 l 60 -162 z "},"…":{"ha":904,"x_min":115,"x_max":789,"o":"m 174 -14 q 133 3 150 -14 q 115 44 115 21 q 133 86 115 68 q 174 104 150 104 q 216 86 199 104 q 233 44 233 68 q 216 3 233 21 q 174 -14 199 -14 m 451 -14 q 410 3 428 -14 q 393 44 393 21 q 410 86 393 68 q 451 104 428 104 q 494 86 476 104 q 511 44 511 68 q 494 3 511 21 q 451 -14 476 -14 m 729 -14 q 688 3 706 -14 q 671 44 671 21 q 688 86 671 68 q 729 104 706 104 q 772 86 754 104 q 789 44 789 68 q 772 3 789 21 q 729 -14 754 -14 z "},"!":{"ha":347,"x_min":115,"x_max":233,"o":"m 122 944 l 211 944 l 197 242 l 150 242 l 122 944 m 174 -14 q 133 3 150 -14 q 115 44 115 21 q 133 86 115 68 q 174 104 150 104 q 216 86 199 104 q 233 44 233 68 q 216 3 233 21 q 174 -14 199 -14 z "},"¡":{"ha":347,"x_min":114,"x_max":232,"o":"m 114 0 m 225 -208 l 136 -208 l 150 494 l 197 494 l 225 -208 m 174 750 q 215 733 197 750 q 232 692 232 715 q 215 650 232 668 q 174 632 197 632 q 131 650 149 632 q 114 692 114 668 q 131 733 114 715 q 174 750 149 750 z "},"#":{"ha":840,"x_min":32,"x_max":808,"o":"m 638 604 l 556 340 l 707 340 l 688 279 l 538 279 l 451 0 l 390 0 l 476 279 l 246 279 l 160 0 l 99 0 l 185 279 l 32 279 l 50 340 l 203 340 l 285 604 l 133 604 l 153 665 l 303 665 l 389 944 l 450 944 l 364 665 l 594 665 l 681 944 l 742 944 l 656 665 l 808 665 l 790 604 l 638 604 m 576 604 l 346 604 l 264 340 l 494 340 l 576 604 z "},".":{"ha":349,"x_min":115,"x_max":233,"o":"m 174 -14 q 133 3 150 -14 q 115 44 115 21 q 133 86 115 68 q 174 104 150 104 q 216 86 199 104 q 233 44 233 68 q 216 3 233 21 q 174 -14 199 -14 z "},"?":{"ha":599,"x_min":99,"x_max":507,"o":"m 156 463 q 367 540 303 490 q 432 689 432 590 q 360 830 432 775 q 99 885 289 885 l 99 946 q 411 874 315 946 q 507 688 507 801 q 217 415 507 481 l 211 242 l 164 242 l 156 463 m 188 -14 q 147 3 164 -14 q 129 44 129 21 q 147 86 129 68 q 188 104 164 104 q 230 86 213 104 q 247 44 247 68 q 230 3 247 21 q 188 -14 213 -14 z "},"¿":{"ha":599,"x_min":99,"x_max":507,"o":"m 99 0 m 450 274 q 238 196 303 246 q 174 47 174 146 q 245 -94 174 -39 q 507 -149 317 -149 l 507 -210 q 194 -137 290 -210 q 99 49 99 -65 q 389 321 99 256 l 394 494 l 442 494 l 450 274 m 418 750 q 459 733 442 750 q 476 692 476 715 q 459 650 476 668 q 418 632 442 632 q 376 650 393 632 q 358 692 358 668 q 376 733 358 715 q 418 750 393 750 z "},"\"":{"ha":569,"x_min":129,"x_max":440,"o":"m 129 688 m 129 1029 l 218 1029 l 210 688 l 151 688 l 129 1029 m 351 1029 l 440 1029 l 432 688 l 374 688 l 351 1029 z "},"'":{"ha":347,"x_min":129,"x_max":218,"o":"m 129 1029 l 218 1029 l 210 688 l 151 688 l 129 1029 z "},";":{"ha":347,"x_min":60,"x_max":233,"o":"m 174 542 q 133 559 150 542 q 115 600 115 576 q 133 642 115 624 q 174 660 150 660 q 216 642 199 660 q 233 600 233 624 q 216 559 233 576 q 174 542 199 542 m 60 -162 q 147 -8 147 -107 q 135 79 147 32 l 206 88 q 215 10 215 50 q 182 -117 215 -61 q 90 -203 149 -172 l 60 -162 z "},"/":{"ha":456,"x_min":-11,"x_max":467,"o":"m 388 983 l 467 983 l 67 -328 l -11 -328 l 388 983 z "},"_":{"ha":694,"x_min":0,"x_max":694,"o":"m 0 -268 l 694 -268 l 694 -329 l 0 -329 l 0 -268 z "},"{":{"ha":403,"x_min":19,"x_max":349,"o":"m 349 -181 q 197 -142 256 -181 q 139 3 139 -104 q 151 128 139 50 q 165 268 165 217 q 130 341 165 317 q 19 374 94 365 l 19 426 q 128 458 93 433 q 164 531 164 483 q 150 672 164 581 q 138 797 138 750 q 197 942 138 904 q 349 979 256 981 l 349 919 q 210 822 210 921 q 224 672 210 756 q 236 556 236 604 q 208 458 236 499 q 129 401 181 418 l 129 399 q 209 342 182 382 q 236 243 236 303 q 224 128 236 196 q 210 -22 210 44 q 349 -119 210 -119 l 349 -181 z "},"}":{"ha":403,"x_min":54,"x_max":383,"o":"m 54 -119 q 193 -22 193 -121 q 179 128 193 44 q 167 244 167 196 q 194 342 167 301 q 274 399 222 382 l 274 401 q 194 458 221 418 q 167 557 167 497 q 179 672 167 604 q 193 822 193 756 q 54 919 193 919 l 54 981 q 206 942 147 981 q 264 797 264 904 q 251 672 264 750 q 238 532 238 583 q 273 459 238 483 q 383 426 308 435 l 383 374 q 274 342 310 367 q 239 269 239 317 q 253 128 239 219 q 265 3 265 50 q 206 -142 265 -104 q 54 -179 147 -181 l 54 -119 z "},"[":{"ha":403,"x_min":101,"x_max":301,"o":"m 101 965 l 301 965 l 301 918 l 176 904 l 176 -115 l 301 -129 l 301 -176 l 101 -176 l 101 965 z "},"]":{"ha":403,"x_min":101,"x_max":301,"o":"m 101 -125 l 226 -115 l 226 904 l 101 914 l 101 965 l 301 965 l 301 -176 l 101 -176 l 101 -125 z "},"(":{"ha":403,"x_min":79,"x_max":357,"o":"m 315 -175 q 146 76 213 -75 q 79 408 79 226 q 146 741 79 590 q 315 992 213 892 l 357 957 q 210 722 267 871 q 154 408 154 572 q 210 95 154 244 q 357 -140 267 -54 l 315 -175 z "},")":{"ha":403,"x_min":46,"x_max":324,"o":"m 46 -140 q 192 95 136 -54 q 249 408 249 244 q 192 722 249 572 q 46 957 136 871 l 88 992 q 257 741 190 892 q 324 408 324 590 q 257 76 324 226 q 88 -175 190 -75 l 46 -140 z "},"—":{"ha":1389,"x_min":174,"x_max":1215,"o":"m 174 401 l 1215 401 l 1215 340 l 174 340 l 174 401 z "},"–":{"ha":694,"x_min":0,"x_max":694,"o":"m 0 401 l 694 401 l 694 340 l 0 340 l 0 401 z "},"-":{"ha":347,"x_min":28,"x_max":319,"o":"m 28 401 l 319 401 l 319 340 l 28 340 l 28 401 z "},"­":{"ha":833,"x_min":28,"x_max":319,"o":"m 28 340 m 28 401 l 319 401 l 319 340 l 28 340 l 28 401 z "},"«":{"ha":722,"x_min":56,"x_max":669,"o":"m 56 67 m 56 360 l 332 653 l 378 608 l 147 360 l 378 110 l 332 67 l 56 360 m 347 360 l 624 653 l 669 608 l 439 360 l 669 110 l 624 67 l 347 360 z "},"»":{"ha":722,"x_min":53,"x_max":667,"o":"m 53 67 m 53 111 l 283 360 l 53 610 l 99 653 l 375 360 l 99 67 l 53 111 m 344 111 l 575 360 l 344 610 l 390 653 l 667 360 l 390 67 l 344 111 z "},"‹":{"ha":431,"x_min":56,"x_max":378,"o":"m 56 360 l 332 653 l 378 608 l 147 360 l 378 110 l 332 67 l 56 360 z "},"›":{"ha":431,"x_min":53,"x_max":375,"o":"m 53 111 l 283 360 l 53 610 l 99 653 l 375 360 l 99 67 l 53 111 z "},"„":{"ha":556,"x_min":60,"x_max":425,"o":"m 60 0 m 60 -162 q 149 -1 149 -106 q 135 93 149 43 l 206 101 q 217 18 217 54 q 183 -114 217 -56 q 90 -203 149 -172 l 60 -162 m 268 -162 q 357 -1 357 -106 q 343 93 357 43 l 414 101 q 425 18 425 54 q 391 -114 425 -56 q 299 -203 357 -172 l 268 -162 z "},"“":{"ha":556,"x_min":131,"x_max":496,"o":"m 131 711 m 142 711 q 131 794 131 758 q 165 926 131 868 q 257 1015 199 985 l 288 975 q 199 813 199 917 q 213 719 199 769 l 142 711 m 350 711 q 339 794 339 758 q 373 926 339 868 q 465 1015 407 985 l 496 975 q 407 813 407 917 q 421 719 407 769 l 350 711 z "},"”":{"ha":556,"x_min":60,"x_max":425,"o":"m 60 711 m 60 751 q 149 914 149 810 q 135 1007 149 957 l 206 1015 q 217 932 217 968 q 183 800 217 858 q 90 711 149 742 l 60 751 m 268 751 q 357 914 357 810 q 343 1007 357 957 l 414 1015 q 425 932 425 968 q 391 800 425 858 q 299 711 357 742 l 268 751 z "},"‘":{"ha":347,"x_min":131,"x_max":288,"o":"m 142 711 q 131 794 131 758 q 165 926 131 868 q 257 1015 199 985 l 288 975 q 199 813 199 917 q 213 719 199 769 l 142 711 z "},"’":{"ha":347,"x_min":60,"x_max":217,"o":"m 60 751 q 149 914 149 810 q 135 1007 149 957 l 206 1015 q 217 932 217 968 q 183 800 217 858 q 90 711 149 742 l 60 751 z "},"‚":{"ha":347,"x_min":60,"x_max":217,"o":"m 60 0 m 60 -162 q 149 -1 149 -106 q 135 93 149 43 l 206 101 q 217 18 217 54 q 183 -114 217 -56 q 90 -203 149 -172 l 60 -162 z "},"ॽ":{"ha":739,"x_min":140,"x_max":615,"o":"m 615 653 q 541 475 615 546 q 331 379 467 404 l 331 0 l 260 0 l 260 432 q 468 501 392 443 q 544 653 544 558 q 502 790 544 739 q 382 840 460 840 q 273 823 318 840 q 172 768 228 806 l 140 822 q 258 883 204 864 q 382 903 311 903 q 552 836 489 903 q 615 653 615 769 z "},"।":{"ha":503,"x_min":268,"x_max":339,"o":"m 268 881 l 339 881 l 339 0 l 268 0 l 268 881 z "},"॥":{"ha":869,"x_min":268,"x_max":706,"o":"m 268 881 l 339 881 l 339 0 l 268 0 l 268 881 m 635 881 l 706 881 l 706 0 l 635 0 l 635 881 z "},"॰":{"ha":621,"x_min":107,"x_max":510,"o":"m 308 168 q 161 228 215 168 q 107 378 107 288 q 160 535 107 472 q 308 597 214 597 q 456 535 403 597 q 510 378 510 472 q 456 228 510 288 q 308 168 401 168 m 308 231 q 400 274 367 231 q 433 378 433 317 q 400 490 433 444 q 308 535 367 535 q 217 490 250 535 q 183 378 183 444 q 217 274 183 317 q 308 231 250 231 z "},"ॱ":{"ha":399,"x_min":119,"x_max":258,"o":"m 119 778 m 119 847 q 140 896 119 875 q 189 917 161 917 q 238 896 217 917 q 258 847 258 875 q 238 799 258 819 q 189 778 217 778 q 140 799 161 778 q 119 847 119 819 z "}," ":{"ha":1389,"x_min":0,"x_max":0,"o":""}," ":{"ha":1389,"x_min":0,"x_max":0,"o":""}," ":{"ha":2083,"x_min":0,"x_max":0,"o":""}," ":{"ha":694,"x_min":0,"x_max":0,"o":""}," ":{"ha":874,"x_min":0,"x_max":0,"o":""}," ":{"ha":347,"x_min":0,"x_max":0,"o":""}," ":{"ha":139,"x_min":0,"x_max":0,"o":""}," ":{"ha":490,"x_min":0,"x_max":0,"o":""}," ":{"ha":232,"x_min":0,"x_max":0,"o":""}," ":{"ha":347,"x_min":0,"x_max":0,"o":""}," ":{"ha":278,"x_min":0,"x_max":0,"o":""}," ":{"ha":463,"x_min":0,"x_max":0,"o":""},"‍":{"ha":0,"x_min":0,"x_max":0,"o":""},"‌":{"ha":0,"x_min":0,"x_max":0,"o":""},"":{"ha":0,"x_min":0,"x_max":0,"o":""},"¢":{"ha":694,"x_min":49,"x_max":647,"o":"m 647 225 q 403 88 550 97 l 403 -107 l 329 -107 l 329 89 q 121 215 193 108 q 49 469 49 322 q 121 721 49 615 q 329 849 193 826 l 329 1047 l 403 1047 l 403 854 q 533 825 472 851 q 633 750 593 799 l 589 699 q 506 763 557 739 q 403 790 456 788 l 403 151 q 608 274 522 161 l 647 225 m 128 471 q 181 260 128 346 q 329 156 233 174 l 329 783 q 180 675 232 760 q 128 471 128 590 z "},"¤":{"ha":694,"x_min":113,"x_max":582,"o":"m 561 372 q 521 239 561 296 l 582 178 l 539 135 l 479 194 q 347 151 428 151 q 215 194 272 151 l 156 135 l 113 178 l 174 239 q 135 369 135 297 q 174 500 135 442 l 113 561 l 156 604 l 214 546 q 347 590 269 590 q 481 546 425 590 l 539 604 l 582 561 l 522 501 q 561 372 561 443 m 347 203 q 457 251 414 203 q 500 371 500 299 q 457 491 500 443 q 347 539 414 539 q 238 491 281 539 q 196 371 196 443 q 238 251 196 299 q 347 203 281 203 z "},"$":{"ha":694,"x_min":46,"x_max":650,"o":"m 411 506 q 532 455 483 482 q 613 381 581 428 q 644 263 644 335 q 579 102 644 167 q 411 22 514 38 l 411 -107 l 338 -107 l 338 18 q 175 44 242 19 q 46 117 108 68 l 89 176 q 338 82 183 88 l 338 449 q 206 499 257 474 q 121 572 156 525 q 86 697 86 619 q 157 858 86 800 q 338 922 228 917 l 338 1047 l 411 1047 l 411 919 q 538 890 481 914 q 650 824 596 865 l 608 765 q 411 854 524 839 l 411 506 m 161 699 q 206 594 161 631 q 338 529 251 558 l 338 858 q 211 812 261 853 q 161 699 161 771 m 411 88 q 525 147 482 100 q 568 263 568 193 q 527 364 568 328 q 411 425 486 400 l 411 88 z "},"€":{"ha":694,"x_min":31,"x_max":672,"o":"m 457 42 q 554 64 515 42 q 625 129 593 86 l 672 90 q 583 8 635 38 q 457 -22 532 -22 q 249 69 326 -22 q 153 339 172 161 l 31 339 l 31 401 l 147 401 q 146 471 146 424 q 149 549 146 499 l 31 549 l 31 611 l 154 611 q 251 874 175 785 q 457 964 328 964 q 582 934 531 964 q 672 851 633 904 l 625 813 q 553 877 592 854 q 457 900 514 900 q 231 611 267 900 l 519 611 l 519 549 l 226 549 q 224 469 224 499 q 225 401 224 424 l 519 401 l 519 339 l 231 339 q 304 113 247 185 q 457 42 361 42 z "},"ƒ":{"ha":694,"x_min":144,"x_max":603,"o":"m 603 528 l 358 528 l 297 -240 l 224 -240 l 285 528 l 144 528 l 144 590 l 290 590 l 296 661 q 360 890 308 814 q 528 965 411 965 q 594 954 561 965 l 579 893 q 528 900 554 900 q 413 844 446 900 q 369 658 379 788 l 364 590 l 603 590 l 603 528 z "},"₹":{"ha":876,"x_min":222,"x_max":768,"o":"m 768 819 l 464 819 q 549 672 535 756 l 768 672 l 768 611 l 553 611 q 498 476 547 533 q 367 388 449 418 l 690 21 l 642 -21 l 288 381 l 290 424 q 428 491 379 446 q 482 611 476 536 l 222 611 l 222 672 l 478 672 q 444 750 469 717 q 374 819 418 783 l 222 819 l 222 881 l 768 881 l 768 819 z "},"£":{"ha":694,"x_min":61,"x_max":617,"o":"m 617 61 l 617 0 l 63 0 l 63 44 q 195 190 151 128 q 239 308 239 253 q 229 376 239 344 q 201 444 219 408 l 61 444 l 61 507 l 171 507 q 125 708 125 601 q 156 835 125 776 q 247 928 188 893 q 388 964 307 964 q 513 932 461 963 q 603 850 564 901 l 556 811 q 483 875 522 853 q 388 899 444 897 q 249 844 297 899 q 201 706 201 789 q 215 600 201 646 q 254 507 229 554 l 547 507 l 547 444 l 285 444 q 315 308 315 374 q 280 187 315 244 q 172 61 244 129 l 617 61 z "},"¥":{"ha":694,"x_min":54,"x_max":638,"o":"m 418 590 l 603 590 l 603 528 l 385 528 l 385 424 l 603 424 l 603 361 l 385 361 l 385 0 l 308 0 l 308 361 l 89 361 l 89 424 l 308 424 l 308 528 l 89 528 l 89 590 l 272 590 l 54 944 l 142 944 l 347 592 l 554 944 l 638 944 l 418 590 z "},"≈":{"ha":696,"x_min":7,"x_max":689,"o":"m 7 467 q 100 558 51 522 q 217 593 149 593 q 292 579 258 593 q 365 540 325 565 q 427 508 403 518 q 481 497 451 497 q 642 597 571 497 l 689 556 q 596 465 643 499 q 481 431 549 431 q 414 443 443 431 q 339 481 385 456 q 274 515 301 504 q 217 526 247 526 q 127 498 167 526 q 53 422 88 469 l 7 467 m 7 183 q 100 274 51 239 q 217 310 149 310 q 292 296 258 310 q 365 257 325 282 q 427 224 403 235 q 481 214 451 214 q 642 314 571 214 l 689 272 q 596 181 643 215 q 481 147 549 147 q 414 160 443 147 q 339 197 385 172 q 274 232 301 221 q 217 243 247 243 q 127 215 167 243 q 53 139 88 186 l 7 183 z "},"~":{"ha":694,"x_min":7,"x_max":689,"o":"m 7 342 q 100 433 51 397 q 217 468 149 468 q 292 454 258 468 q 365 415 325 440 q 427 383 403 393 q 481 372 451 372 q 642 472 571 372 l 689 431 q 596 340 643 374 q 481 306 549 306 q 414 318 443 306 q 339 356 385 331 q 274 390 301 379 q 217 401 247 401 q 127 373 167 401 q 53 297 88 344 l 7 342 z "},"÷":{"ha":694,"x_min":46,"x_max":649,"o":"m 346 575 q 305 592 322 575 q 288 633 288 610 q 305 675 288 657 q 346 693 322 693 q 388 675 371 693 q 406 633 406 657 q 388 592 406 610 q 346 575 371 575 m 46 400 l 649 400 l 649 339 l 46 339 l 46 400 m 346 47 q 305 65 322 47 q 288 106 288 82 q 305 147 288 129 q 346 165 322 165 q 388 147 371 165 q 406 106 406 129 q 388 65 406 82 q 346 47 371 47 z "},"=":{"ha":694,"x_min":46,"x_max":649,"o":"m 46 532 l 649 532 l 649 471 l 46 471 l 46 532 m 46 268 l 649 268 l 649 207 l 46 207 l 46 268 z "},">":{"ha":694,"x_min":46,"x_max":649,"o":"m 649 396 l 649 342 l 46 40 l 46 110 l 567 369 l 46 629 l 46 699 l 649 396 z "},"≥":{"ha":694,"x_min":46,"x_max":649,"o":"m 649 463 l 649 408 l 46 172 l 46 242 l 542 436 l 46 629 l 46 699 l 649 463 m 46 61 l 649 61 l 649 0 l 46 0 l 46 61 z "},"∆":{"ha":874,"x_min":35,"x_max":839,"o":"m 839 0 l 35 0 l 403 957 l 469 957 l 839 0 m 735 64 l 435 846 l 136 64 l 735 64 z "},"∞":{"ha":713,"x_min":35,"x_max":678,"o":"m 513 556 q 632 509 586 556 q 678 372 678 463 q 630 235 678 282 q 511 188 582 188 q 353 289 406 188 q 289 213 326 238 q 200 188 251 188 q 81 234 126 188 q 35 371 35 281 q 83 508 35 461 q 201 556 131 556 q 358 453 306 556 q 422 531 385 506 q 513 556 460 556 m 200 246 q 279 279 251 246 q 331 382 307 313 l 332 389 q 280 469 314 440 q 201 497 246 497 q 127 466 158 497 q 96 371 96 435 q 126 276 96 307 q 200 246 156 246 m 511 246 q 585 277 554 246 q 617 372 617 308 q 587 467 617 436 q 513 497 557 497 q 433 465 461 497 q 382 364 404 432 l 378 351 q 429 274 394 301 q 511 246 464 246 z "},"∫":{"ha":694,"x_min":85,"x_max":610,"o":"m 151 -264 q 85 -253 118 -264 l 100 -192 q 151 -199 125 -199 q 273 -140 236 -199 q 310 43 310 -82 l 310 807 q 543 1111 310 1111 q 610 1100 576 1111 l 594 1039 q 543 1046 569 1046 q 422 988 458 1046 q 385 804 385 929 l 385 40 q 151 -264 385 -264 z "},"<":{"ha":694,"x_min":46,"x_max":649,"o":"m 649 629 l 128 369 l 649 110 l 649 40 l 46 343 l 46 397 l 649 699 l 649 629 z "},"≤":{"ha":694,"x_min":46,"x_max":649,"o":"m 649 629 l 153 436 l 649 242 l 649 172 l 46 408 l 46 463 l 649 699 l 649 629 m 46 61 l 649 61 l 649 0 l 46 0 l 46 61 z "},"¬":{"ha":694,"x_min":46,"x_max":649,"o":"m 649 400 l 649 68 l 588 68 l 588 339 l 46 339 l 46 400 l 649 400 z "},"−":{"ha":694,"x_min":46,"x_max":649,"o":"m 46 400 l 649 400 l 649 339 l 46 339 l 46 400 z "},"×":{"ha":694,"x_min":113,"x_max":582,"o":"m 390 369 l 582 178 l 539 135 l 347 326 l 156 135 l 113 178 l 304 369 l 113 561 l 156 604 l 347 413 l 539 604 l 582 561 l 390 369 z "},"≠":{"ha":694,"x_min":46,"x_max":649,"o":"m 443 471 l 328 268 l 649 268 l 649 207 l 292 207 l 174 0 l 101 0 l 219 207 l 46 207 l 46 268 l 256 268 l 371 471 l 46 471 l 46 532 l 407 532 l 525 739 l 597 739 l 479 532 l 649 532 l 649 471 l 443 471 z "},"∂":{"ha":694,"x_min":46,"x_max":649,"o":"m 122 964 q 509 734 369 893 q 649 349 649 575 q 610 151 649 235 q 504 24 572 68 q 347 -21 436 -21 q 182 18 250 -21 q 80 122 114 57 q 46 264 46 186 q 79 408 46 342 q 175 515 113 475 q 324 554 238 554 q 458 525 394 554 q 564 444 521 496 q 417 730 536 615 q 96 904 297 844 l 122 964 m 347 43 q 509 120 449 43 q 571 343 569 197 q 324 490 481 490 q 176 428 229 490 q 124 264 124 367 q 181 106 124 168 q 347 43 239 43 z "},"%":{"ha":1063,"x_min":10,"x_max":1053,"o":"m 10 0 m 833 933 l 278 -28 l 229 1 l 785 963 l 833 933 m 208 363 q 60 440 110 363 q 10 658 10 518 q 60 876 10 799 q 208 954 110 954 q 358 876 308 954 q 408 658 408 799 q 358 440 408 518 q 208 363 308 363 m 208 414 q 347 658 347 414 q 208 903 347 903 q 106 841 142 903 q 71 658 71 779 q 106 476 71 538 q 208 414 142 414 m 853 -15 q 704 63 754 -15 q 654 281 654 140 q 704 499 654 421 q 853 576 754 576 q 1003 499 953 576 q 1053 281 1053 421 q 1003 63 1053 140 q 853 -15 953 -15 m 853 36 q 992 281 992 36 q 853 525 992 525 q 751 463 786 525 q 715 281 715 401 q 751 98 715 160 q 853 36 786 36 z "},"‰":{"ha":1531,"x_min":10,"x_max":1521,"o":"m 10 0 m 833 933 l 278 -28 l 229 1 l 785 963 l 833 933 m 208 363 q 60 440 110 363 q 10 658 10 518 q 60 876 10 799 q 208 954 110 954 q 358 876 308 954 q 408 658 408 799 q 358 440 408 518 q 208 363 308 363 m 208 414 q 347 658 347 414 q 208 903 347 903 q 106 841 142 903 q 71 658 71 779 q 106 476 71 538 q 208 414 142 414 m 853 -15 q 704 63 754 -15 q 654 281 654 140 q 704 499 654 421 q 853 576 754 576 q 1003 499 953 576 q 1053 281 1053 421 q 1003 63 1053 140 q 853 -15 953 -15 m 853 36 q 992 281 992 36 q 853 525 992 525 q 751 463 786 525 q 715 281 715 401 q 751 98 715 160 q 853 36 786 36 m 1321 -15 q 1172 63 1222 -15 q 1122 281 1122 140 q 1172 499 1122 421 q 1321 576 1222 576 q 1471 499 1421 576 q 1521 281 1521 421 q 1471 63 1521 140 q 1321 -15 1421 -15 m 1321 36 q 1460 281 1460 36 q 1321 525 1460 525 q 1219 463 1254 525 q 1183 281 1183 401 q 1219 98 1183 160 q 1321 36 1254 36 z "},"+":{"ha":694,"x_min":46,"x_max":649,"o":"m 649 339 l 378 339 l 378 68 l 317 68 l 317 339 l 46 339 l 46 400 l 317 400 l 317 671 l 378 671 l 378 400 l 649 400 l 649 339 z "},"±":{"ha":694,"x_min":46,"x_max":649,"o":"m 649 435 l 649 374 l 378 374 l 378 151 l 317 151 l 317 374 l 46 374 l 46 435 l 317 435 l 317 671 l 378 671 l 378 435 l 649 435 m 46 61 l 649 61 l 649 0 l 46 0 l 46 61 z "},"∏":{"ha":1049,"x_min":167,"x_max":882,"o":"m 882 -326 l 804 -326 l 804 881 l 244 881 l 244 -326 l 167 -326 l 167 944 l 882 944 l 882 -326 z "},"√":{"ha":694,"x_min":43,"x_max":653,"o":"m 653 944 l 371 0 l 317 0 l 146 485 l 43 485 l 43 546 l 193 546 l 343 96 l 592 944 l 653 944 z "},"∑":{"ha":901,"x_min":111,"x_max":818,"o":"m 111 -289 l 542 314 l 131 890 l 131 944 l 800 944 l 800 881 l 221 881 l 626 314 l 211 -268 l 818 -268 l 818 -332 l 111 -332 l 111 -289 z "},"◌":{"ha":1069,"x_min":129,"x_max":940,"o":"m 536 742 q 496 758 513 742 q 479 799 479 775 q 496 838 479 821 q 536 856 513 856 q 576 838 558 856 q 593 799 593 821 q 576 758 593 775 q 536 742 558 742 m 358 697 q 319 714 336 697 q 303 754 303 731 q 319 794 303 778 q 358 811 336 811 q 399 794 382 811 q 415 754 415 778 q 399 715 415 732 q 358 697 382 697 m 708 697 q 669 715 686 697 q 651 754 651 732 q 669 794 651 778 q 708 811 686 811 q 749 794 732 811 q 765 754 765 778 q 749 714 765 731 q 708 697 732 697 m 229 568 q 189 585 206 568 q 172 625 172 601 q 189 665 172 649 q 229 682 206 682 q 269 665 253 682 q 286 625 286 649 q 269 585 286 601 q 229 568 253 568 m 840 568 q 800 585 817 568 q 783 625 783 601 q 801 665 783 649 q 840 682 818 682 q 881 665 864 682 q 897 625 897 649 q 881 585 897 601 q 840 568 864 568 m 186 392 q 146 408 163 392 q 129 449 129 425 q 146 489 129 472 q 186 506 163 506 q 226 489 210 506 q 243 449 243 472 q 226 409 243 426 q 186 392 210 392 m 883 392 q 844 409 861 392 q 828 449 828 426 q 844 489 828 472 q 883 506 861 506 q 924 489 907 506 q 940 449 940 472 q 924 408 940 425 q 883 392 907 392 m 229 217 q 189 233 206 217 q 172 274 172 250 q 189 313 172 297 q 229 329 206 329 q 269 313 253 329 q 286 274 286 296 q 269 234 286 251 q 229 217 253 217 m 840 217 q 801 234 818 217 q 783 274 783 251 q 800 313 783 296 q 840 329 817 329 q 881 313 864 329 q 897 274 897 297 q 881 233 897 250 q 840 217 864 217 m 358 85 q 319 101 336 85 q 303 142 303 118 q 319 181 303 165 q 358 197 336 197 q 399 181 382 197 q 415 142 415 164 q 399 102 415 119 q 358 85 382 85 m 708 85 q 669 102 686 85 q 651 142 651 119 q 668 181 651 164 q 708 197 685 197 q 749 181 732 197 q 765 142 765 165 q 749 101 765 118 q 708 85 732 85 m 536 42 q 496 58 513 42 q 479 99 479 75 q 496 139 479 122 q 536 156 513 156 q 576 139 558 156 q 593 99 593 122 q 576 59 593 76 q 536 42 558 42 z "},"◊":{"ha":694,"x_min":83,"x_max":611,"o":"m 611 472 l 374 0 l 319 0 l 83 472 l 321 944 l 375 944 l 611 472 m 542 472 l 347 863 l 153 472 l 347 82 l 542 472 z "},"|":{"ha":468,"x_min":194,"x_max":272,"o":"m 194 1121 l 272 1121 l 272 -328 l 194 -328 l 194 1121 z "},"¦":{"ha":468,"x_min":194,"x_max":272,"o":"m 194 1121 l 272 1121 l 272 554 l 194 554 l 194 1121 m 194 239 l 272 239 l 272 -328 l 194 -328 l 194 239 z "},"@":{"ha":1121,"x_min":83,"x_max":1038,"o":"m 371 226 q 406 310 371 278 q 499 365 440 343 q 672 417 557 386 l 672 468 q 653 547 672 517 q 583 578 635 578 q 501 558 536 578 q 418 478 465 538 l 372 521 q 582 639 465 639 q 703 597 667 639 q 740 467 740 554 l 740 206 q 788 167 740 167 q 877 197 835 167 q 946 289 919 226 q 972 444 972 351 q 917 631 972 550 q 773 755 863 711 q 581 799 683 799 q 353 742 451 799 q 202 583 256 685 q 149 349 149 481 q 205 134 149 229 q 356 -15 261 39 q 558 -68 450 -68 q 708 -44 639 -68 q 854 35 778 -19 l 886 -11 q 727 -100 801 -74 q 557 -126 653 -126 q 327 -67 436 -126 q 151 102 218 -7 q 83 350 83 211 q 145 609 83 493 q 320 791 207 725 q 579 857 433 857 q 812 805 707 857 q 977 659 917 753 q 1038 446 1038 565 q 1001 263 1038 339 q 907 149 965 188 q 782 110 849 110 q 709 130 739 110 q 674 188 679 150 q 501 110 576 110 q 407 142 443 110 q 371 226 371 175 m 439 226 q 503 169 439 169 q 580 190 540 169 q 672 250 619 210 l 672 358 q 535 317 583 335 q 463 278 486 299 q 439 226 439 257 z "},"&":{"ha":992,"x_min":69,"x_max":936,"o":"m 936 0 q 869 -11 903 -11 q 792 8 822 -11 q 710 83 761 26 l 669 128 q 368 -21 536 -21 q 208 13 275 -21 q 105 103 140 47 q 69 225 69 158 q 124 389 69 319 q 311 526 178 458 q 219 649 244 601 q 194 760 194 697 q 253 906 194 847 q 421 964 311 964 q 581 910 524 964 q 639 778 639 856 q 588 624 639 688 q 421 507 538 560 l 668 232 q 838 619 765 374 l 903 601 q 714 182 829 338 l 767 124 q 823 70 801 86 q 869 54 844 54 q 921 61 896 54 l 936 0 m 421 900 q 310 860 347 900 q 272 760 272 819 q 294 665 272 707 q 378 554 317 622 q 519 650 478 599 q 561 778 561 701 q 525 864 561 828 q 421 900 489 900 m 368 43 q 626 176 511 43 l 353 479 q 226 399 271 436 q 165 322 182 361 q 147 232 147 283 q 172 139 147 182 q 247 69 197 96 q 368 43 297 43 z "},"¶":{"ha":817,"x_min":42,"x_max":650,"o":"m 650 -36 q 592 -262 650 -183 q 414 -340 535 -340 q 347 -329 381 -340 l 363 -265 q 414 -272 388 -272 q 535 -215 499 -272 q 572 -33 572 -157 l 572 278 l 414 278 q 138 369 235 278 q 42 613 42 460 q 84 783 42 707 q 210 901 126 858 q 414 944 294 944 l 650 944 l 650 -36 z "},"©":{"ha":1138,"x_min":83,"x_max":1054,"o":"m 568 -22 q 326 45 438 -22 q 149 227 214 113 q 83 478 83 342 q 149 722 83 610 q 326 899 214 833 q 568 964 438 964 q 812 899 700 964 q 989 722 924 833 q 1054 478 1054 610 q 989 227 1054 342 q 812 45 924 113 q 568 -22 700 -22 m 568 33 q 781 93 683 33 q 935 255 878 153 q 992 478 992 357 q 934 694 992 594 q 779 851 876 793 q 568 908 682 908 q 356 851 453 908 q 203 694 260 793 q 146 478 146 596 q 203 255 146 357 q 356 93 260 153 q 568 33 453 33 m 574 224 q 445 258 500 224 q 360 349 390 292 q 331 471 331 406 q 361 592 331 536 q 449 683 392 649 q 583 717 507 717 q 681 697 635 717 q 760 642 728 678 l 718 606 q 658 646 696 631 q 583 661 621 661 q 448 606 501 661 q 394 471 394 551 q 445 333 394 388 q 574 278 496 278 q 732 354 672 278 l 769 319 q 687 250 736 276 q 574 224 638 224 z "},"®":{"ha":474,"x_min":47,"x_max":426,"o":"m 238 964 q 333 938 289 964 q 401 869 376 913 q 426 774 426 825 q 401 679 426 722 q 333 610 376 636 q 238 585 289 585 q 142 610 186 585 q 73 679 99 636 q 47 774 47 722 q 73 869 47 825 q 142 938 99 913 q 238 964 186 964 m 236 621 q 343 666 299 621 q 388 774 388 711 q 343 883 388 838 q 236 929 299 929 q 131 883 175 929 q 86 774 86 838 q 131 666 86 711 q 236 621 175 621 m 315 806 q 279 749 315 764 l 329 681 l 276 681 l 233 742 l 210 742 l 210 681 l 165 681 l 165 869 l 240 869 q 295 851 275 869 q 315 806 315 833 m 210 833 l 210 778 l 238 778 q 261 785 253 778 q 269 806 269 792 q 260 825 269 817 q 238 833 251 833 l 210 833 z "},"§":{"ha":839,"x_min":182,"x_max":683,"o":"m 565 185 q 636 119 611 157 q 661 26 661 82 q 591 -137 661 -81 q 414 -194 521 -194 q 288 -175 343 -194 q 182 -117 233 -156 l 215 -58 q 307 -113 256 -94 q 414 -132 358 -132 q 540 -92 490 -132 q 589 25 589 -53 q 565 92 589 65 q 507 136 542 119 q 411 175 472 153 q 294 224 338 201 q 221 286 251 246 q 190 389 190 326 q 222 494 190 447 q 314 583 254 540 q 239 652 265 613 q 213 751 213 692 q 276 894 213 844 q 435 944 339 944 q 560 925 506 944 q 667 867 615 906 l 633 808 q 542 863 593 844 q 435 882 490 882 q 327 849 369 882 q 285 753 285 817 q 308 683 285 711 q 367 637 332 654 q 463 596 401 619 q 579 545 536 568 q 653 481 622 522 q 683 375 683 440 q 653 272 683 318 q 565 185 622 226 m 263 389 q 286 322 263 349 q 344 278 310 294 q 440 239 379 261 q 501 217 482 225 q 611 375 611 279 q 587 446 611 417 q 528 493 563 475 q 432 533 493 511 q 381 553 414 539 q 263 389 263 488 z "},"™":{"ha":956,"x_min":56,"x_max":789,"o":"m 361 899 l 239 899 l 239 567 l 179 567 l 179 899 l 56 899 l 56 944 l 361 944 l 361 899 m 789 944 l 789 567 l 729 567 l 729 840 l 625 694 l 581 694 l 476 840 l 476 567 l 417 567 l 417 944 l 471 944 l 603 757 l 735 944 l 789 944 z "},"°":{"ha":593,"x_min":83,"x_max":510,"o":"m 296 525 q 183 555 231 525 q 109 635 135 585 q 83 743 83 685 q 109 852 83 801 q 183 933 135 903 q 296 964 231 964 q 410 933 361 964 q 484 853 458 903 q 510 746 510 803 q 484 635 510 686 q 410 555 458 585 q 296 525 361 525 m 296 576 q 406 624 363 576 q 449 744 449 672 q 406 865 449 817 q 296 913 363 913 q 187 865 229 913 q 144 744 144 817 q 187 624 144 672 q 296 576 229 576 z "},"^":{"ha":694,"x_min":165,"x_max":529,"o":"m 468 236 l 347 467 l 226 236 l 165 236 l 311 528 l 383 528 l 529 236 l 468 236 z "},"†":{"ha":471,"x_min":33,"x_max":436,"o":"m 436 626 l 436 565 l 33 565 l 33 626 l 197 626 l 197 944 l 272 944 l 272 626 l 436 626 m 197 464 l 272 464 l 265 -210 l 204 -210 l 197 464 z "},"‡":{"ha":471,"x_min":33,"x_max":436,"o":"m 436 626 l 436 565 l 33 565 l 33 626 l 197 626 l 197 944 l 272 944 l 272 626 l 436 626 m 289 367 q 272 326 289 343 q 229 308 254 308 q 188 326 206 308 q 171 367 171 343 q 188 408 171 390 q 229 426 206 426 q 272 408 254 426 q 289 367 289 390 m 33 169 l 436 169 l 436 108 l 272 108 l 272 -210 l 197 -210 l 197 108 l 33 108 l 33 169 z "},"ऽ":{"ha":710,"x_min":54,"x_max":608,"o":"m 347 38 q 182 88 254 38 q 54 239 110 139 l 108 274 q 347 99 204 100 q 453 140 414 100 q 493 244 493 181 q 456 367 493 310 q 353 494 419 425 l 253 599 q 181 688 204 649 q 157 768 157 728 q 189 852 157 824 q 293 881 221 881 l 608 881 l 608 819 l 293 819 q 241 806 254 819 q 228 764 228 793 q 245 711 228 739 q 300 643 263 683 l 400 539 q 526 379 488 447 q 564 242 564 311 q 504 95 564 153 q 347 38 444 38 z "},"ॐ":{"ha":1492,"x_min":0,"x_max":1406,"o":"m 883 944 q 835 965 856 944 q 814 1014 814 986 q 835 1063 814 1042 q 883 1083 856 1083 q 932 1063 911 1083 q 953 1014 953 1042 q 932 965 953 986 q 883 944 911 944 m 888 736 q 722 783 794 736 q 604 901 649 829 l 651 939 q 749 837 690 876 q 888 797 808 797 q 1026 837 967 797 q 1124 939 1085 876 l 1169 901 q 1052 783 1125 829 q 888 736 979 736 m 1204 650 q 1352 590 1299 650 q 1406 435 1406 529 q 1352 267 1406 332 q 1204 201 1299 201 q 985 342 1075 201 q 890 213 940 260 q 763 167 839 167 q 664 188 707 167 q 581 254 621 210 q 506 114 572 168 q 338 60 439 60 q 139 135 222 60 q 0 363 56 211 l 58 392 q 338 121 157 122 q 464 167 417 122 q 511 281 511 211 q 480 383 511 338 q 386 467 449 428 q 267 444 328 449 l 254 507 q 425 553 363 508 q 488 682 488 597 q 444 795 488 750 q 332 840 401 840 q 151 775 238 840 l 117 829 q 215 882 158 861 q 335 903 271 903 q 445 877 394 903 q 527 801 496 851 q 558 678 558 750 q 532 574 558 621 q 454 497 506 528 q 550 393 518 446 q 618 304 590 336 q 682 251 646 272 q 764 231 718 231 q 838 256 804 231 q 895 319 871 282 q 954 421 919 356 q 1025 541 994 496 q 1101 618 1056 586 q 1204 650 1146 650 m 1206 264 q 1300 311 1265 264 q 1335 431 1335 358 q 1301 544 1335 501 q 1206 588 1267 588 q 1105 542 1144 588 q 1019 407 1065 497 q 1101 302 1057 340 q 1206 264 1146 264 z "},"̦":{"ha":696,"x_min":-428,"x_max":-268,"o":"m -428 -287 q -353 -245 -374 -265 q -333 -196 -333 -225 q -349 -164 -333 -176 q -403 -144 -365 -151 l -382 -94 q -295 -129 -322 -103 q -268 -193 -268 -156 q -400 -328 -268 -282 l -428 -287 z "},"´":{"ha":694,"x_min":240,"x_max":454,"o":"m 375 1114 l 454 1114 l 301 819 l 240 819 l 375 1114 z "},"˘":{"ha":694,"x_min":167,"x_max":528,"o":"m 347 858 q 217 916 264 858 q 167 1074 169 974 l 218 1076 q 256 949 222 992 q 347 907 290 907 q 438 949 404 907 q 476 1076 472 992 l 528 1074 q 478 916 525 974 q 347 858 431 858 z "},"ˇ":{"ha":694,"x_min":165,"x_max":529,"o":"m 529 1111 l 383 819 l 311 819 l 165 1111 l 226 1111 l 347 881 l 468 1111 l 529 1111 z "},"¸":{"ha":694,"x_min":244,"x_max":450,"o":"m 361 -100 q 425 -122 400 -100 q 450 -178 450 -143 q 413 -260 450 -225 q 293 -328 375 -296 l 265 -289 q 360 -234 335 -257 q 385 -186 385 -211 q 343 -151 385 -151 q 288 -167 318 -151 l 244 -129 l 314 0 l 372 0 l 314 -108 q 361 -100 342 -100 z "},"ˆ":{"ha":694,"x_min":165,"x_max":529,"o":"m 468 819 l 347 1050 l 226 819 l 165 819 l 311 1111 l 383 1111 l 529 819 l 468 819 z "},"¨":{"ha":694,"x_min":168,"x_max":528,"o":"m 222 1003 q 184 1019 200 1003 q 168 1056 168 1035 q 184 1094 168 1078 q 222 1111 200 1111 q 262 1095 246 1111 q 278 1056 278 1079 q 261 1019 278 1035 q 222 1003 244 1003 m 472 1003 q 434 1019 450 1003 q 418 1056 418 1035 q 434 1094 418 1078 q 472 1111 450 1111 q 512 1095 496 1111 q 528 1056 528 1079 q 511 1019 528 1035 q 472 1003 494 1003 z "},"˙":{"ha":694,"x_min":293,"x_max":403,"o":"m 347 1003 q 309 1019 325 1003 q 293 1056 293 1035 q 309 1094 293 1078 q 347 1111 325 1111 q 387 1095 371 1111 q 403 1056 403 1079 q 386 1019 403 1035 q 347 1003 369 1003 z "},"`":{"ha":694,"x_min":240,"x_max":454,"o":"m 240 1111 l 319 1111 l 454 819 l 393 819 l 240 1111 z "},"˝":{"ha":694,"x_min":136,"x_max":558,"o":"m 271 1111 l 350 1111 l 197 819 l 136 819 l 271 1111 m 479 1111 l 558 1111 l 406 819 l 344 819 l 479 1111 z "},"¯":{"ha":694,"x_min":153,"x_max":542,"o":"m 153 1086 l 542 1086 l 542 1028 l 153 1028 l 153 1086 z "},"˛":{"ha":694,"x_min":221,"x_max":475,"o":"m 349 -328 q 256 -295 290 -328 q 221 -204 221 -262 q 367 21 221 -94 l 443 21 q 324 -99 361 -47 q 286 -200 286 -150 q 304 -251 286 -233 q 353 -269 322 -269 q 439 -226 397 -269 l 475 -261 q 349 -328 422 -328 z "},"˚":{"ha":694,"x_min":201,"x_max":493,"o":"m 347 819 q 240 863 279 819 q 201 967 201 907 q 240 1068 201 1025 q 347 1111 279 1111 q 454 1068 415 1111 q 493 967 493 1025 q 454 863 493 907 q 347 819 415 819 m 347 868 q 413 896 389 868 q 438 967 438 924 q 413 1035 438 1008 q 347 1063 389 1063 q 281 1035 306 1063 q 257 967 257 1008 q 281 896 257 924 q 347 868 306 868 z "},"˜":{"ha":694,"x_min":132,"x_max":563,"o":"m 132 882 q 170 1013 139 967 q 257 1058 201 1058 q 317 1040 294 1058 q 365 986 340 1021 q 401 945 386 958 q 438 932 417 932 q 485 960 469 932 q 508 1058 500 989 l 563 1053 q 524 922 556 968 q 438 876 493 876 q 376 895 399 876 q 324 951 353 914 q 290 990 304 978 q 257 1003 276 1003 q 210 974 225 1003 q 186 876 194 946 l 132 882 z "},"ु":{"ha":0,"x_min":-546,"x_max":-17,"o":"m -239 -346 q -408 -303 -336 -346 q -546 -181 -481 -261 l -499 -139 q -378 -249 -439 -212 q -243 -285 -318 -285 q -128 -251 -168 -285 q -87 -165 -87 -218 q -119 -90 -87 -119 q -199 -60 -151 -60 q -271 -74 -239 -60 q -333 -114 -303 -87 l -368 -60 q -196 3 -299 3 q -70 -41 -124 3 q -17 -165 -17 -85 q -76 -296 -17 -246 q -239 -346 -135 -346 z "},"ू":{"ha":0,"x_min":-424,"x_max":106,"o":"m -201 3 q -32 -40 -104 3 q 106 -162 40 -82 l 58 -204 q -62 -94 -1 -131 q -197 -58 -122 -58 q -312 -92 -272 -58 q -353 -178 -353 -125 q -321 -253 -353 -224 q -242 -283 -289 -283 q -169 -269 -201 -283 q -107 -229 -137 -256 l -72 -283 q -244 -346 -142 -346 q -370 -302 -317 -346 q -424 -178 -424 -258 q -365 -47 -424 -97 q -201 3 -306 3 z "},"ृ":{"ha":0,"x_min":-372,"x_max":-58,"o":"m -203 -307 q -326 -262 -279 -307 q -372 -151 -372 -218 q -337 -55 -372 -97 q -224 35 -301 -12 l -164 0 q -267 -73 -233 -37 q -301 -147 -301 -108 q -275 -217 -301 -189 q -199 -244 -249 -244 q -93 -211 -135 -244 l -58 -265 q -203 -307 -121 -307 z "},"ॄ":{"ha":0,"x_min":-372,"x_max":67,"o":"m 67 -476 q -24 -551 25 -525 q -139 -576 -72 -576 q -253 -537 -207 -576 q -300 -429 -300 -497 q -287 -364 -300 -394 q -251 -301 -275 -333 q -340 -247 -307 -287 q -372 -151 -372 -206 q -337 -55 -372 -97 q -224 35 -301 -12 l -164 0 q -267 -73 -233 -37 q -301 -147 -301 -108 q -275 -217 -301 -189 q -199 -244 -249 -244 q -93 -211 -135 -244 l -58 -265 q -183 -307 -112 -301 q -229 -429 -229 -362 q -204 -491 -229 -468 q -133 -514 -179 -514 q 26 -428 -46 -514 l 67 -476 z "},"ॢ":{"ha":0,"x_min":-601,"x_max":10,"o":"m 10 -454 q -52 -506 -19 -489 q -131 -522 -85 -522 q -212 -495 -178 -522 q -247 -422 -247 -468 q -233 -367 -247 -390 q -189 -315 -218 -344 q -153 -274 -164 -289 q -143 -239 -143 -260 q -165 -189 -143 -207 q -218 -171 -186 -171 q -301 -213 -274 -171 q -328 -328 -328 -256 l -393 -319 q -372 -214 -392 -258 q -462 -158 -414 -158 q -512 -181 -493 -158 q -532 -242 -532 -203 q -424 -424 -532 -336 l -467 -465 q -568 -356 -535 -407 q -601 -236 -601 -306 q -562 -135 -601 -174 q -462 -97 -522 -97 q -339 -158 -392 -97 q -235 -110 -299 -117 l -235 18 l -164 18 l -164 -118 q -99 -162 -122 -131 q -75 -237 -75 -194 q -90 -294 -75 -271 q -135 -347 -106 -318 q -169 -387 -158 -374 q -179 -421 -179 -401 q -166 -451 -179 -440 q -128 -461 -153 -461 q -81 -449 -103 -461 q -31 -406 -60 -436 l 10 -454 z "},"ॣ":{"ha":0,"x_min":-601,"x_max":115,"o":"m 115 -574 q -17 -632 67 -632 q -96 -607 -64 -632 q -128 -539 -128 -582 q -126 -522 -128 -528 l -131 -522 q -212 -495 -178 -522 q -247 -422 -247 -468 q -233 -367 -247 -390 q -189 -315 -218 -344 q -153 -274 -164 -289 q -143 -239 -143 -260 q -165 -189 -143 -207 q -218 -171 -186 -171 q -301 -213 -274 -171 q -328 -328 -328 -256 l -393 -319 q -372 -214 -392 -258 q -462 -158 -414 -158 q -512 -181 -493 -158 q -532 -242 -532 -203 q -424 -424 -532 -336 l -467 -465 q -568 -356 -535 -407 q -601 -236 -601 -306 q -562 -135 -601 -174 q -462 -97 -522 -97 q -339 -158 -392 -97 q -235 -110 -299 -117 l -235 18 l -164 18 l -164 -118 q -99 -162 -122 -131 q -75 -237 -75 -194 q -90 -294 -75 -271 q -135 -347 -106 -318 q -169 -387 -158 -374 q -179 -421 -179 -401 q -166 -451 -179 -440 q -128 -461 -153 -461 q -81 -449 -103 -461 q -31 -406 -60 -436 l 10 -454 q -60 -510 -21 -492 q -61 -524 -61 -514 q -48 -558 -61 -546 q -11 -569 -35 -569 q 35 -559 14 -569 q 75 -525 56 -549 l 115 -574 z "},"ॅ":{"ha":0,"x_min":-486,"x_max":79,"o":"m -203 1021 q -369 1067 -296 1021 q -486 1186 -442 1114 l -439 1224 q -341 1122 -400 1161 q -203 1082 -282 1082 q -65 1122 -124 1082 q 33 1224 -6 1161 l 79 1186 q -38 1067 35 1114 q -203 1021 -111 1021 z "},"ँ":{"ha":0,"x_min":-486,"x_max":79,"o":"m 0 1021 m -203 1021 q -369 1067 -296 1021 q -486 1186 -442 1114 l -439 1224 q -341 1122 -400 1161 q -203 1082 -282 1082 q -65 1122 -124 1082 q 33 1224 -6 1161 l 79 1186 q -38 1067 35 1114 q -203 1021 -111 1021 m -276 1299 q -256 1347 -276 1326 q -207 1368 -235 1368 q -158 1347 -179 1368 q -137 1299 -137 1326 q -158 1250 -137 1271 q -207 1229 -179 1229 q -256 1250 -235 1229 q -276 1299 -276 1271 z "},"ॆ":{"ha":0,"x_min":-856,"x_max":-153,"o":"m -237 868 q -222 944 -222 896 q -261 1054 -222 1010 q -393 1099 -300 1099 q -542 1090 -442 1099 q -681 1082 -636 1082 q -810 1118 -764 1082 q -856 1221 -856 1154 q -824 1326 -856 1278 l -761 1308 q -786 1224 -786 1267 q -761 1164 -786 1183 q -679 1144 -736 1144 q -535 1153 -632 1144 q -393 1161 -437 1161 q -215 1101 -276 1161 q -153 943 -153 1042 q -168 864 -153 899 l -237 868 z "},"े":{"ha":0,"x_min":-624,"x_max":-162,"o":"m -299 1007 q -376 1167 -349 1117 q -439 1247 -404 1217 q -521 1278 -474 1278 q -610 1257 -569 1278 l -624 1318 q -522 1344 -579 1344 q -415 1311 -460 1344 q -334 1216 -371 1278 q -237 1029 -297 1154 l -162 872 l -236 872 l -299 1007 z "},"ै":{"ha":0,"x_min":-604,"x_max":-128,"o":"m -242 1015 q -324 1216 -289 1142 q -403 1331 -360 1290 q -501 1372 -446 1372 q -590 1351 -550 1372 l -604 1413 q -503 1439 -560 1439 q -382 1397 -433 1439 q -287 1269 -331 1354 q -185 1029 -243 1185 l -128 879 l -192 879 l -242 1015 m -328 976 q -410 1085 -369 1053 q -503 1118 -450 1118 q -548 1115 -531 1118 q -587 1101 -565 1111 l -601 1163 q -556 1179 -578 1174 q -504 1185 -533 1185 q -276 1001 -378 1185 l -201 867 l -267 867 l -328 976 z "},"ं":{"ha":0,"x_min":-268,"x_max":-129,"o":"m -268 1090 q -247 1139 -268 1118 q -199 1160 -226 1160 q -150 1139 -171 1160 q -129 1090 -129 1118 q -150 1042 -129 1063 q -199 1021 -171 1021 q -247 1042 -226 1021 q -268 1090 -268 1063 z "},"्":{"ha":0,"x_min":-479,"x_max":90,"o":"m -365 -110 q -113 -183 -224 -110 q 90 -374 -3 -256 l 35 -410 q -328 -172 -129 -186 l -328 -272 q -376 -282 -351 -282 q -450 -253 -421 -282 q -479 -183 -479 -225 q -365 -110 -479 -110 z "},"़":{"ha":0,"x_min":-69,"x_max":69,"o":"m -69 -179 q -49 -131 -69 -151 q 0 -110 -28 -110 q 49 -131 28 -110 q 69 -179 69 -151 q 49 -228 69 -207 q 0 -249 28 -249 q -49 -228 -28 -249 q -69 -179 -69 -207 z "},"ऺ":{"ha":0,"x_min":-236,"x_max":-161,"o":"m -236 1247 l -161 1247 l -161 860 l -236 860 l -236 1247 z "},"ॖ":{"ha":0,"x_min":-610,"x_max":-17,"o":"m -312 -287 q -486 -240 -406 -287 q -610 -122 -567 -193 l -562 -85 q -460 -187 -522 -147 q -312 -226 -397 -226 q -165 -187 -228 -226 q -62 -85 -103 -147 l -17 -122 q -140 -240 -60 -193 q -312 -287 -221 -287 z "},"ॗ":{"ha":0,"x_min":-610,"x_max":-17,"o":"m -312 -287 q -486 -240 -406 -287 q -610 -122 -567 -193 l -562 -85 q -460 -187 -522 -147 q -312 -226 -397 -226 q -165 -187 -228 -226 q -62 -85 -103 -147 l -17 -122 q -140 -240 -60 -193 q -312 -287 -221 -287 m -312 -518 q -486 -471 -406 -518 q -610 -353 -567 -424 l -562 -315 q -460 -417 -522 -378 q -312 -457 -397 -457 q -165 -417 -228 -457 q -62 -315 -103 -378 l -17 -353 q -140 -471 -60 -424 q -312 -518 -221 -518 z "},"॑":{"ha":0,"x_min":-232,"x_max":-167,"o":"m -232 1344 l -167 1344 l -167 1026 l -232 1026 l -232 1344 z "},"॒":{"ha":0,"x_min":-535,"x_max":107,"o":"m -535 -282 l 107 -282 l 107 -343 l -535 -343 l -535 -282 z "},"॓":{"ha":0,"x_min":-486,"x_max":-167,"o":"m -486 1344 l -399 1344 l -167 1053 l -236 1053 l -486 1344 z "},"॔":{"ha":0,"x_min":-222,"x_max":97,"o":"m 10 1344 l 97 1344 l -153 1053 l -222 1053 l 10 1344 z "},"ः":{"ha":426,"x_min":151,"x_max":269,"o":"m 210 542 q 169 559 186 542 q 151 600 151 576 q 169 642 151 624 q 210 660 186 660 q 252 642 235 660 q 269 600 269 624 q 252 559 269 576 q 210 542 235 542 m 210 75 q 169 92 186 75 q 151 133 151 110 q 169 175 151 157 q 210 193 186 193 q 252 175 235 193 q 269 133 269 157 q 252 92 269 110 q 210 75 235 75 z "}}}
